<?xml version="1.0" encoding="UTF-8" standalone="no"?>
<!DOCTYPE svg PUBLIC "-//W3C//DTD SVG 1.1//EN"
 "http://www.w3.org/Graphics/SVG/1.1/DTD/svg11.dtd">
<!-- Generated by graphviz version 12.1.2 (0)
 -->
<!-- Title: graph Pages: 1 -->
<svg width="479pt" height="194pt"
 viewBox="0.00 0.00 479.00 193.50" xmlns="http://www.w3.org/2000/svg" xmlns:xlink="http://www.w3.org/1999/xlink">
<g id="graph0" class="graph" transform="scale(1 1) rotate(0) translate(4 189.5)">
<title>graph</title>
<polygon fill="#ffffff" stroke="none" points="-4,4 -4,-189.5 475,-189.5 475,4 -4,4"/>
<!-- X1 -->
<g id="node1" class="node">
<title>X1</title>
<polygon fill="#ffffff" stroke="black" points="38,-155 0,-155 0,-12.5 38,-12.5 38,-155"/>
<polygon fill="none" stroke="black" points="0,-131.25 0,-155 38,-155 38,-131.25 0,-131.25"/>
<text text-anchor="start" x="10.75" y="-137.7" font-family="arial" font-size="14.00">X1</text>
<polygon fill="none" stroke="black" points="0,-107.5 0,-131.25 38,-131.25 38,-107.5 0,-107.5"/>
<text text-anchor="start" x="4" y="-113.95" font-family="arial" font-size="14.00">4&#45;pin</text>
<polygon fill="none" stroke="black" points="0,-83.75 0,-107.5 38,-107.5 38,-83.75 0,-83.75"/>
<text text-anchor="start" x="15.25" y="-90.2" font-family="arial" font-size="14.00">1</text>
<polygon fill="none" stroke="black" points="0,-60 0,-83.75 38,-83.75 38,-60 0,-60"/>
<text text-anchor="start" x="15.25" y="-66.45" font-family="arial" font-size="14.00">2</text>
<polygon fill="none" stroke="black" points="0,-36.25 0,-60 38,-60 38,-36.25 0,-36.25"/>
<text text-anchor="start" x="15.25" y="-42.7" font-family="arial" font-size="14.00">3</text>
<polygon fill="none" stroke="black" points="0,-12.5 0,-36.25 38,-36.25 38,-12.5 0,-12.5"/>
<text text-anchor="start" x="15.25" y="-18.95" font-family="arial" font-size="14.00">4</text>
</g>
<!-- W1 -->
<g id="node3" class="node">
<title>W1</title>
<polygon fill="#ffffff" stroke="black" points="289,-185.5 182,-185.5 182,0 289,0 289,-185.5"/>
<polygon fill="none" stroke="black" points="182,-161.75 182,-185.5 289,-185.5 289,-161.75 182,-161.75"/>
<text text-anchor="start" x="225" y="-168.2" font-family="arial" font-size="14.00">W1</text>
<polygon fill="none" stroke="black" points="182,-138 182,-161.75 231,-161.75 231,-138 182,-138"/>
<text text-anchor="start" x="199.38" y="-144.45" font-family="arial" font-size="14.00">4x</text>
<polygon fill="none" stroke="black" points="231,-138 231,-161.75 289,-161.75 289,-138 231,-138"/>
<text text-anchor="start" x="248.38" y="-144.45" font-family="arial" font-size="14.00">1 m</text>
<text text-anchor="start" x="195.62" y="-122.7" font-family="arial" font-size="14.00"> </text>
<text text-anchor="start" x="183.62" y="-103.7" font-family="arial" font-size="14.00">X1:1</text>
<text text-anchor="start" x="214.88" y="-103.7" font-family="arial" font-size="14.00"> &#160;&#160;&#160;&#160;1 &#160;&#160;&#160;</text>
<text text-anchor="start" x="259.62" y="-103.7" font-family="arial" font-size="14.00">X2:1</text>
<polygon fill="#000000" stroke="none" points="182,-98 182,-100 289,-100 289,-98 182,-98"/>
<polygon fill="#ffffff" stroke="none" points="182,-96 182,-98 289,-98 289,-96 182,-96"/>
<polygon fill="#000000" stroke="none" points="182,-94 182,-96 289,-96 289,-94 182,-94"/>
<text text-anchor="start" x="183.62" y="-78.7" font-family="arial" font-size="14.00">X1:2</text>
<text text-anchor="start" x="214.88" y="-78.7" font-family="arial" font-size="14.00"> &#160;&#160;&#160;&#160;2 &#160;&#160;&#160;</text>
<text text-anchor="start" x="259.62" y="-78.7" font-family="arial" font-size="14.00">X2:2</text>
<polygon fill="#000000" stroke="none" points="182,-73 182,-75 289,-75 289,-73 182,-73"/>
<polygon fill="#ffffff" stroke="none" points="182,-71 182,-73 289,-73 289,-71 182,-71"/>
<polygon fill="#000000" stroke="none" points="182,-69 182,-71 289,-71 289,-69 182,-69"/>
<text text-anchor="start" x="183.62" y="-53.7" font-family="arial" font-size="14.00">X1:3</text>
<text text-anchor="start" x="214.88" y="-53.7" font-family="arial" font-size="14.00"> &#160;&#160;&#160;&#160;3 &#160;&#160;&#160;</text>
<text text-anchor="start" x="259.62" y="-53.7" font-family="arial" font-size="14.00">X2:3</text>
<polygon fill="#000000" stroke="none" points="182,-48 182,-50 289,-50 289,-48 182,-48"/>
<polygon fill="#ffffff" stroke="none" points="182,-46 182,-48 289,-48 289,-46 182,-46"/>
<polygon fill="#000000" stroke="none" points="182,-44 182,-46 289,-46 289,-44 182,-44"/>
<text text-anchor="start" x="183.62" y="-28.7" font-family="arial" font-size="14.00">X1:4</text>
<text text-anchor="start" x="214.88" y="-28.7" font-family="arial" font-size="14.00"> &#160;&#160;&#160;&#160;4 &#160;&#160;&#160;</text>
<text text-anchor="start" x="259.62" y="-28.7" font-family="arial" font-size="14.00">X2:4</text>
<polygon fill="#000000" stroke="none" points="182,-23 182,-25 289,-25 289,-23 182,-23"/>
<polygon fill="#ffffff" stroke="none" points="182,-21 182,-23 289,-23 289,-21 182,-21"/>
<polygon fill="#000000" stroke="none" points="182,-19 182,-21 289,-21 289,-19 182,-19"/>
<text text-anchor="start" x="195.62" y="-3.7" font-family="arial" font-size="14.00"> </text>
</g>
<!-- X1&#45;&#45;W1 -->
<g id="edge1" class="edge">
<title>X1:e&#45;&#45;W1:w</title>
<path fill="none" stroke="#000000" stroke-width="2" d="M38,-93.63C102.17,-93.63 118.17,-95.01 182,-95"/>
<path fill="none" stroke="#ffffff" stroke-width="2" d="M38,-95.63C102,-95.62 118,-97 182,-97"/>
<path fill="none" stroke="#000000" stroke-width="2" d="M38,-97.62C101.83,-97.62 117.83,-98.99 182,-99"/>
</g>
<!-- X1&#45;&#45;W1 -->
<g id="edge3" class="edge">
<title>X1:e&#45;&#45;W1:w</title>
<path fill="none" stroke="#000000" stroke-width="2" d="M38,-69.88C102.02,-69.88 118.02,-70 182,-70"/>
<path fill="none" stroke="#ffffff" stroke-width="2" d="M38,-71.87C102,-71.88 118,-72 182,-72"/>
<path fill="none" stroke="#000000" stroke-width="2" d="M38,-73.87C101.98,-73.87 117.98,-74 182,-74"/>
</g>
<!-- X1&#45;&#45;W1 -->
<g id="edge5" class="edge">
<title>X1:e&#45;&#45;W1:w</title>
<path fill="none" stroke="#000000" stroke-width="2" d="M38,-46.13C101.86,-46.13 117.86,-45 182,-45"/>
<path fill="none" stroke="#ffffff" stroke-width="2" d="M38,-48.12C102,-48.13 118,-47 182,-47"/>
<path fill="none" stroke="#000000" stroke-width="2" d="M38,-50.12C102.14,-50.12 118.14,-49 182,-49"/>
</g>
<!-- X1&#45;&#45;W1 -->
<g id="edge7" class="edge">
<title>X1:e&#45;&#45;W1:w</title>
<path fill="none" stroke="#000000" stroke-width="2" d="M38,-22.38C101.71,-22.4 117.7,-20.02 182,-20"/>
<path fill="none" stroke="#ffffff" stroke-width="2" d="M38,-24.38C102.01,-24.37 117.99,-22 182,-22"/>
<path fill="none" stroke="#000000" stroke-width="2" d="M38,-26.37C102.3,-26.35 118.29,-23.98 182,-24"/>
</g>
<!-- X2 -->
<g id="node2" class="node">
<title>X2</title>
<polygon fill="#ffffff" stroke="black" points="471,-155 433,-155 433,-12.5 471,-12.5 471,-155"/>
<polygon fill="none" stroke="black" points="433,-131.25 433,-155 471,-155 471,-131.25 433,-131.25"/>
<text text-anchor="start" x="443.75" y="-137.7" font-family="arial" font-size="14.00">X2</text>
<polygon fill="none" stroke="black" points="433,-107.5 433,-131.25 471,-131.25 471,-107.5 433,-107.5"/>
<text text-anchor="start" x="437" y="-113.95" font-family="arial" font-size="14.00">4&#45;pin</text>
<polygon fill="none" stroke="black" points="433,-83.75 433,-107.5 471,-107.5 471,-83.75 433,-83.75"/>
<text text-anchor="start" x="448.25" y="-90.2" font-family="arial" font-size="14.00">1</text>
<polygon fill="none" stroke="black" points="433,-60 433,-83.75 471,-83.75 471,-60 433,-60"/>
<text text-anchor="start" x="448.25" y="-66.45" font-family="arial" font-size="14.00">2</text>
<polygon fill="none" stroke="black" points="433,-36.25 433,-60 471,-60 471,-36.25 433,-36.25"/>
<text text-anchor="start" x="448.25" y="-42.7" font-family="arial" font-size="14.00">3</text>
<polygon fill="none" stroke="black" points="433,-12.5 433,-36.25 471,-36.25 471,-12.5 433,-12.5"/>
<text text-anchor="start" x="448.25" y="-18.95" font-family="arial" font-size="14.00">4</text>
</g>
<!-- W1&#45;&#45;X2 -->
<g id="edge2" class="edge">
<title>W1:e&#45;&#45;X2:w</title>
<path fill="none" stroke="#000000" stroke-width="2" d="M289,-95C352.83,-95.01 368.83,-93.63 433,-93.63"/>
<path fill="none" stroke="#ffffff" stroke-width="2" d="M289,-97C353,-97 369,-95.62 433,-95.63"/>
<path fill="none" stroke="#000000" stroke-width="2" d="M289,-99C353.17,-98.99 369.17,-97.62 433,-97.62"/>
</g>
<!-- W1&#45;&#45;X2 -->
<g id="edge4" class="edge">
<title>W1:e&#45;&#45;X2:w</title>
<path fill="none" stroke="#000000" stroke-width="2" d="M289,-70C352.98,-70 368.98,-69.88 433,-69.88"/>
<path fill="none" stroke="#ffffff" stroke-width="2" d="M289,-72C353,-72 369,-71.88 433,-71.87"/>
<path fill="none" stroke="#000000" stroke-width="2" d="M289,-74C353.02,-74 369.02,-73.87 433,-73.87"/>
</g>
<!-- W1&#45;&#45;X2 -->
<g id="edge6" class="edge">
<title>W1:e&#45;&#45;X2:w</title>
<path fill="none" stroke="#000000" stroke-width="2" d="M289,-45C353.14,-45 369.14,-46.13 433,-46.13"/>
<path fill="none" stroke="#ffffff" stroke-width="2" d="M289,-47C353,-47 369,-48.13 433,-48.12"/>
<path fill="none" stroke="#000000" stroke-width="2" d="M289,-49C352.86,-49 368.86,-50.12 433,-50.12"/>
</g>
<!-- W1&#45;&#45;X2 -->
<g id="edge8" class="edge">
<title>W1:e&#45;&#45;X2:w</title>
<path fill="none" stroke="#000000" stroke-width="2" d="M289,-20C353.3,-20.02 369.29,-22.4 433,-22.38"/>
<path fill="none" stroke="#ffffff" stroke-width="2" d="M289,-22C353.01,-22 368.99,-24.37 433,-24.38"/>
<path fill="none" stroke="#000000" stroke-width="2" d="M289,-24C352.71,-23.98 368.7,-26.35 433,-26.37"/>
</g>
</g>
</svg>
