<?xml version="1.0" encoding="UTF-8" standalone="no"?>
<!DOCTYPE svg PUBLIC "-//W3C//DTD SVG 1.1//EN"
 "http://www.w3.org/Graphics/SVG/1.1/DTD/svg11.dtd">
<!-- Generated by graphviz version 12.1.2 (0)
 -->
<!-- Title: graph Pages: 1 -->
<svg width="841pt" height="194pt"
 viewBox="0.00 0.00 840.50 193.50" xmlns="http://www.w3.org/2000/svg" xmlns:xlink="http://www.w3.org/1999/xlink">
<g id="graph0" class="graph" transform="scale(1 1) rotate(0) translate(4 189.5)">
<title>graph</title>
<polygon fill="#ffffff" stroke="none" points="-4,4 -4,-189.5 836.5,-189.5 836.5,4 -4,4"/>
<!-- X1 -->
<g id="node1" class="node">
<title>X1</title>
<polygon fill="#ffffff" stroke="black" points="180,-155 0,-155 0,-12.5 180,-12.5 180,-155"/>
<polygon fill="none" stroke="black" points="0,-131.25 0,-155 180,-155 180,-131.25 0,-131.25"/>
<text text-anchor="start" x="81.75" y="-137.7" font-family="arial" font-size="14.00">X1</text>
<polygon fill="none" stroke="black" points="0,-107.5 0,-131.25 92.75,-131.25 92.75,-107.5 0,-107.5"/>
<text text-anchor="start" x="4" y="-113.95" font-family="arial" font-size="14.00">Molex KK 254</text>
<polygon fill="none" stroke="black" points="92.75,-107.5 92.75,-131.25 142,-131.25 142,-107.5 92.75,-107.5"/>
<text text-anchor="start" x="96.75" y="-113.95" font-family="arial" font-size="14.00">female</text>
<polygon fill="none" stroke="black" points="142,-107.5 142,-131.25 180,-131.25 180,-107.5 142,-107.5"/>
<text text-anchor="start" x="146" y="-113.95" font-family="arial" font-size="14.00">4&#45;pin</text>
<polygon fill="none" stroke="black" points="0,-83.75 0,-107.5 180,-107.5 180,-83.75 0,-83.75"/>
<text text-anchor="start" x="86.25" y="-90.2" font-family="arial" font-size="14.00">1</text>
<polygon fill="none" stroke="black" points="0,-60 0,-83.75 180,-83.75 180,-60 0,-60"/>
<text text-anchor="start" x="86.25" y="-66.45" font-family="arial" font-size="14.00">2</text>
<polygon fill="none" stroke="black" points="0,-36.25 0,-60 180,-60 180,-36.25 0,-36.25"/>
<text text-anchor="start" x="86.25" y="-42.7" font-family="arial" font-size="14.00">3</text>
<polygon fill="none" stroke="black" points="0,-12.5 0,-36.25 180,-36.25 180,-12.5 0,-12.5"/>
<text text-anchor="start" x="86.25" y="-18.95" font-family="arial" font-size="14.00">4</text>
</g>
<!-- W1 -->
<g id="node3" class="node">
<title>W1</title>
<polygon fill="#ffffff" stroke="black" points="508.5,-185.5 324,-185.5 324,0 508.5,0 508.5,-185.5"/>
<polygon fill="none" stroke="black" points="324,-161.75 324,-185.5 508.5,-185.5 508.5,-161.75 324,-161.75"/>
<text text-anchor="start" x="405.75" y="-168.2" font-family="arial" font-size="14.00">W1</text>
<polygon fill="none" stroke="black" points="324,-138 324,-161.75 346.25,-161.75 346.25,-138 324,-138"/>
<text text-anchor="start" x="328" y="-144.45" font-family="arial" font-size="14.00">4x</text>
<polygon fill="none" stroke="black" points="346.25,-138 346.25,-161.75 477.25,-161.75 477.25,-138 346.25,-138"/>
<text text-anchor="start" x="350.25" y="-144.45" font-family="arial" font-size="14.00">0.25 mm² (24 AWG)</text>
<polygon fill="none" stroke="black" points="477.25,-138 477.25,-161.75 508.5,-161.75 508.5,-138 477.25,-138"/>
<text text-anchor="start" x="481.25" y="-144.45" font-family="arial" font-size="14.00">1 m</text>
<text text-anchor="start" x="346.04" y="-122.7" font-family="arial" font-size="14.00"> </text>
<text text-anchor="start" x="334.04" y="-103.7" font-family="arial" font-size="14.00">X1:1</text>
<text text-anchor="start" x="382.12" y="-103.7" font-family="arial" font-size="14.00"> &#160;&#160;&#160;&#160;1:WH &#160;&#160;&#160;</text>
<text text-anchor="start" x="470.71" y="-103.7" font-family="arial" font-size="14.00">X2:1</text>
<polygon fill="#000000" stroke="none" points="324,-98 324,-100 508.5,-100 508.5,-98 324,-98"/>
<polygon fill="#ffffff" stroke="none" points="324,-96 324,-98 508.5,-98 508.5,-96 324,-96"/>
<polygon fill="#000000" stroke="none" points="324,-94 324,-96 508.5,-96 508.5,-94 324,-94"/>
<text text-anchor="start" x="334.04" y="-78.7" font-family="arial" font-size="14.00">X1:2</text>
<text text-anchor="start" x="384.38" y="-78.7" font-family="arial" font-size="14.00"> &#160;&#160;&#160;&#160;2:BN &#160;&#160;&#160;</text>
<text text-anchor="start" x="470.71" y="-78.7" font-family="arial" font-size="14.00">X2:2</text>
<polygon fill="#000000" stroke="none" points="324,-73 324,-75 508.5,-75 508.5,-73 324,-73"/>
<polygon fill="#895956" stroke="none" points="324,-71 324,-73 508.5,-73 508.5,-71 324,-71"/>
<polygon fill="#000000" stroke="none" points="324,-69 324,-71 508.5,-71 508.5,-69 324,-69"/>
<text text-anchor="start" x="334.04" y="-53.7" font-family="arial" font-size="14.00">X1:3</text>
<text text-anchor="start" x="383.25" y="-53.7" font-family="arial" font-size="14.00"> &#160;&#160;&#160;&#160;3:GN &#160;&#160;&#160;</text>
<text text-anchor="start" x="470.71" y="-53.7" font-family="arial" font-size="14.00">X2:4</text>
<polygon fill="#000000" stroke="none" points="324,-48 324,-50 508.5,-50 508.5,-48 324,-48"/>
<polygon fill="#00ff00" stroke="none" points="324,-46 324,-48 508.5,-48 508.5,-46 324,-46"/>
<polygon fill="#000000" stroke="none" points="324,-44 324,-46 508.5,-46 508.5,-44 324,-44"/>
<text text-anchor="start" x="334.04" y="-28.7" font-family="arial" font-size="14.00">X1:4</text>
<text text-anchor="start" x="384.75" y="-28.7" font-family="arial" font-size="14.00"> &#160;&#160;&#160;&#160;4:YE &#160;&#160;&#160;</text>
<text text-anchor="start" x="470.71" y="-28.7" font-family="arial" font-size="14.00">X2:3</text>
<polygon fill="#000000" stroke="none" points="324,-23 324,-25 508.5,-25 508.5,-23 324,-23"/>
<polygon fill="#ffff00" stroke="none" points="324,-21 324,-23 508.5,-23 508.5,-21 324,-21"/>
<polygon fill="#000000" stroke="none" points="324,-19 324,-21 508.5,-21 508.5,-19 324,-19"/>
<text text-anchor="start" x="346.04" y="-3.7" font-family="arial" font-size="14.00"> </text>
</g>
<!-- X1&#45;&#45;W1 -->
<g id="edge1" class="edge">
<title>X1:e&#45;&#45;W1:w</title>
<path fill="none" stroke="#000000" stroke-width="2" d="M180,-93.63C244.17,-93.63 260.17,-95.01 324,-95"/>
<path fill="none" stroke="#ffffff" stroke-width="2" d="M180,-95.63C244,-95.62 260,-97 324,-97"/>
<path fill="none" stroke="#000000" stroke-width="2" d="M180,-97.62C243.83,-97.62 259.83,-98.99 324,-99"/>
</g>
<!-- X1&#45;&#45;W1 -->
<g id="edge3" class="edge">
<title>X1:e&#45;&#45;W1:w</title>
<path fill="none" stroke="#000000" stroke-width="2" d="M180,-69.88C244.02,-69.88 260.02,-70 324,-70"/>
<path fill="none" stroke="#895956" stroke-width="2" d="M180,-71.87C244,-71.88 260,-72 324,-72"/>
<path fill="none" stroke="#000000" stroke-width="2" d="M180,-73.87C243.98,-73.87 259.98,-74 324,-74"/>
</g>
<!-- X1&#45;&#45;W1 -->
<g id="edge5" class="edge">
<title>X1:e&#45;&#45;W1:w</title>
<path fill="none" stroke="#000000" stroke-width="2" d="M180,-46.13C243.86,-46.13 259.86,-45 324,-45"/>
<path fill="none" stroke="#00ff00" stroke-width="2" d="M180,-48.12C244,-48.13 260,-47 324,-47"/>
<path fill="none" stroke="#000000" stroke-width="2" d="M180,-50.12C244.14,-50.12 260.14,-49 324,-49"/>
</g>
<!-- X1&#45;&#45;W1 -->
<g id="edge7" class="edge">
<title>X1:e&#45;&#45;W1:w</title>
<path fill="none" stroke="#000000" stroke-width="2" d="M180,-22.38C243.71,-22.4 259.7,-20.02 324,-20"/>
<path fill="none" stroke="#ffff00" stroke-width="2" d="M180,-24.38C244.01,-24.37 259.99,-22 324,-22"/>
<path fill="none" stroke="#000000" stroke-width="2" d="M180,-26.37C244.3,-26.35 260.29,-23.98 324,-24"/>
</g>
<!-- X2 -->
<g id="node2" class="node">
<title>X2</title>
<polygon fill="#ffffff" stroke="black" points="832.5,-157 652.5,-157 652.5,-14.5 832.5,-14.5 832.5,-157"/>
<polygon fill="none" stroke="black" points="652.5,-133.25 652.5,-157 832.5,-157 832.5,-133.25 652.5,-133.25"/>
<text text-anchor="start" x="734.25" y="-139.7" font-family="arial" font-size="14.00">X2</text>
<polygon fill="none" stroke="black" points="652.5,-109.5 652.5,-133.25 745.25,-133.25 745.25,-109.5 652.5,-109.5"/>
<text text-anchor="start" x="656.5" y="-115.95" font-family="arial" font-size="14.00">Molex KK 254</text>
<polygon fill="none" stroke="black" points="745.25,-109.5 745.25,-133.25 794.5,-133.25 794.5,-109.5 745.25,-109.5"/>
<text text-anchor="start" x="749.25" y="-115.95" font-family="arial" font-size="14.00">female</text>
<polygon fill="none" stroke="black" points="794.5,-109.5 794.5,-133.25 832.5,-133.25 832.5,-109.5 794.5,-109.5"/>
<text text-anchor="start" x="798.5" y="-115.95" font-family="arial" font-size="14.00">4&#45;pin</text>
<polygon fill="none" stroke="black" points="652.5,-85.75 652.5,-109.5 832.5,-109.5 832.5,-85.75 652.5,-85.75"/>
<text text-anchor="start" x="738.75" y="-92.2" font-family="arial" font-size="14.00">1</text>
<polygon fill="none" stroke="black" points="652.5,-62 652.5,-85.75 832.5,-85.75 832.5,-62 652.5,-62"/>
<text text-anchor="start" x="738.75" y="-68.45" font-family="arial" font-size="14.00">2</text>
<polygon fill="none" stroke="black" points="652.5,-38.25 652.5,-62 832.5,-62 832.5,-38.25 652.5,-38.25"/>
<text text-anchor="start" x="738.75" y="-44.7" font-family="arial" font-size="14.00">3</text>
<polygon fill="none" stroke="black" points="652.5,-14.5 652.5,-38.25 832.5,-38.25 832.5,-14.5 652.5,-14.5"/>
<text text-anchor="start" x="738.75" y="-20.95" font-family="arial" font-size="14.00">4</text>
</g>
<!-- W1&#45;&#45;X2 -->
<g id="edge2" class="edge">
<title>W1:e&#45;&#45;X2:w</title>
<path fill="none" stroke="#000000" stroke-width="2" d="M508.5,-95C572.58,-95 588.58,-95.63 652.5,-95.63"/>
<path fill="none" stroke="#ffffff" stroke-width="2" d="M508.5,-97C572.5,-97 588.5,-97.62 652.5,-97.62"/>
<path fill="none" stroke="#000000" stroke-width="2" d="M508.5,-99C572.42,-99 588.42,-99.62 652.5,-99.62"/>
</g>
<!-- W1&#45;&#45;X2 -->
<g id="edge4" class="edge">
<title>W1:e&#45;&#45;X2:w</title>
<path fill="none" stroke="#000000" stroke-width="2" d="M508.5,-70C572.74,-70.01 588.73,-71.89 652.5,-71.88"/>
<path fill="none" stroke="#895956" stroke-width="2" d="M508.5,-72C572.51,-72 588.49,-73.88 652.5,-73.87"/>
<path fill="none" stroke="#000000" stroke-width="2" d="M508.5,-74C572.27,-73.99 588.26,-75.86 652.5,-75.87"/>
</g>
<!-- W1&#45;&#45;X2 -->
<g id="edge6" class="edge">
<title>W1:e&#45;&#45;X2:w</title>
<path fill="none" stroke="#000000" stroke-width="2" d="M508.5,-45C571.52,-45.84 586.22,-25.21 652.5,-24.38"/>
<path fill="none" stroke="#00ff00" stroke-width="2" d="M508.5,-47C573.15,-47 587.85,-26.38 652.5,-26.38"/>
<path fill="none" stroke="#000000" stroke-width="2" d="M508.5,-49C574.78,-48.16 589.48,-27.54 652.5,-28.37"/>
</g>
<!-- W1&#45;&#45;X2 -->
<g id="edge8" class="edge">
<title>W1:e&#45;&#45;X2:w</title>
<path fill="none" stroke="#000000" stroke-width="2" d="M508.5,-20C575.51,-21.13 589.09,-49.26 652.5,-48.13"/>
<path fill="none" stroke="#ffff00" stroke-width="2" d="M508.5,-22C573.71,-22 587.29,-50.13 652.5,-50.12"/>
<path fill="none" stroke="#000000" stroke-width="2" d="M508.5,-24C571.91,-22.87 585.49,-50.99 652.5,-52.12"/>
</g>
</g>
</svg>
