<?xml version="1.0" encoding="UTF-8" standalone="no"?>
<!DOCTYPE svg PUBLIC "-//W3C//DTD SVG 1.1//EN"
 "http://www.w3.org/Graphics/SVG/1.1/DTD/svg11.dtd">
<!-- Generated by graphviz version 12.1.2 (0)
 -->
<!-- Title: graph Pages: 1 -->
<svg width="1217pt" height="596pt"
 viewBox="0.00 0.00 1216.75 596.12" xmlns="http://www.w3.org/2000/svg" xmlns:xlink="http://www.w3.org/1999/xlink">
<g id="graph0" class="graph" transform="scale(1 1) rotate(0) translate(4 592.12)">
<title>graph</title>
<polygon fill="#ffffff" stroke="none" points="-4,4 -4,-592.12 1212.75,-592.12 1212.75,4 -4,4"/>
<!-- X1 -->
<g id="node1" class="node">
<title>X1</title>
<polygon fill="#ffffff" stroke="black" points="257,-451 0,-451 0,-182 257,-182 257,-451"/>
<polygon fill="none" stroke="black" points="0,-427.25 0,-451 257,-451 257,-427.25 0,-427.25"/>
<text text-anchor="start" x="120.25" y="-433.7" font-family="arial" font-size="14.00">X1</text>
<polygon fill="none" stroke="black" points="0,-403.5 0,-427.25 129.62,-427.25 129.62,-403.5 0,-403.5"/>
<text text-anchor="start" x="12.69" y="-409.95" font-family="arial" font-size="14.00">Molex: 22013047</text>
<polygon fill="none" stroke="black" points="129.62,-403.5 129.62,-427.25 257,-427.25 257,-403.5 129.62,-403.5"/>
<text text-anchor="start" x="142.31" y="-409.95" font-family="arial" font-size="14.00">Digimouse: 1234</text>
<polygon fill="none" stroke="black" points="0,-379.75 0,-403.5 118.42,-403.5 118.42,-379.75 0,-379.75"/>
<text text-anchor="start" x="16.83" y="-386.2" font-family="arial" font-size="14.00">Molex KK 254</text>
<polygon fill="none" stroke="black" points="118.42,-379.75 118.42,-403.5 193.33,-403.5 193.33,-379.75 118.42,-379.75"/>
<text text-anchor="start" x="135.25" y="-386.2" font-family="arial" font-size="14.00">female</text>
<polygon fill="none" stroke="black" points="193.33,-379.75 193.33,-403.5 257,-403.5 257,-379.75 193.33,-379.75"/>
<text text-anchor="start" x="210.17" y="-386.2" font-family="arial" font-size="14.00">4&#45;pin</text>
<polygon fill="none" stroke="black" points="0,-356 0,-379.75 257,-379.75 257,-356 0,-356"/>
<text text-anchor="start" x="124.75" y="-362.45" font-family="arial" font-size="14.00">1</text>
<polygon fill="none" stroke="black" points="0,-332.25 0,-356 257,-356 257,-332.25 0,-332.25"/>
<text text-anchor="start" x="124.75" y="-338.7" font-family="arial" font-size="14.00">2</text>
<polygon fill="none" stroke="black" points="0,-308.5 0,-332.25 257,-332.25 257,-308.5 0,-308.5"/>
<text text-anchor="start" x="124.75" y="-314.95" font-family="arial" font-size="14.00">3</text>
<polygon fill="none" stroke="black" points="0,-284.75 0,-308.5 257,-308.5 257,-284.75 0,-284.75"/>
<text text-anchor="start" x="124.75" y="-291.2" font-family="arial" font-size="14.00">4</text>
<polygon fill="none" stroke="black" points="0,-261 0,-284.75 257,-284.75 257,-261 0,-261"/>
<text text-anchor="start" x="59.88" y="-267.45" font-family="arial" font-size="14.00">Additional components</text>
<polygon fill="none" stroke="black" points="0,-221.5 0,-261 257,-261 257,-221.5 0,-221.5"/>
<text text-anchor="start" x="4" y="-243.7" font-family="arial" font-size="14.00">4 x Crimp, Molex KK 254, 22&#45;30 AWG</text>
<text text-anchor="start" x="4" y="-227.95" font-family="arial" font-size="14.00">Molex: 08500030</text>
<polygon fill="none" stroke="black" points="0,-182 0,-221.5 257,-221.5 257,-182 0,-182"/>
<text text-anchor="start" x="4" y="-204.2" font-family="arial" font-size="14.00">1 x Test</text>
<text text-anchor="start" x="4" y="-188.45" font-family="arial" font-size="14.00">P/N: ABC, Molex: 45454, Mousikey: 9999</text>
</g>
<!-- W1 -->
<g id="node4" class="node">
<title>W1</title>
<polygon fill="#ffffff" stroke="black" points="766.25,-588.12 401,-588.12 401,-378.88 766.25,-378.88 766.25,-588.12"/>
<polygon fill="none" stroke="black" points="401,-564.38 401,-588.12 766.25,-588.12 766.25,-564.38 401,-564.38"/>
<text text-anchor="start" x="573.12" y="-570.83" font-family="arial" font-size="14.00">W1</text>
<polygon fill="none" stroke="black" points="401,-540.62 401,-564.38 474.25,-564.38 474.25,-540.62 401,-540.62"/>
<text text-anchor="start" x="405" y="-547.08" font-family="arial" font-size="14.00">P/N: CAB1</text>
<polygon fill="none" stroke="black" points="474.25,-540.62 474.25,-564.38 598.5,-564.38 598.5,-540.62 474.25,-540.62"/>
<text text-anchor="start" x="478.25" y="-547.08" font-family="arial" font-size="14.00">CablesCo: ABC123</text>
<polygon fill="none" stroke="black" points="598.5,-540.62 598.5,-564.38 766.25,-564.38 766.25,-540.62 598.5,-540.62"/>
<text text-anchor="start" x="602.5" y="-547.08" font-family="arial" font-size="14.00">Cables R Us: 999&#45;888&#45;777</text>
<polygon fill="none" stroke="black" points="401,-516.88 401,-540.62 505,-540.62 505,-516.88 401,-516.88"/>
<text text-anchor="start" x="445.88" y="-523.33" font-family="arial" font-size="14.00">4x</text>
<polygon fill="none" stroke="black" points="505,-516.88 505,-540.62 653.25,-540.62 653.25,-516.88 505,-516.88"/>
<text text-anchor="start" x="549.88" y="-523.33" font-family="arial" font-size="14.00">0.25 mm²</text>
<polygon fill="none" stroke="black" points="653.25,-516.88 653.25,-540.62 766.25,-540.62 766.25,-516.88 653.25,-516.88"/>
<text text-anchor="start" x="698.12" y="-523.33" font-family="arial" font-size="14.00">1 m</text>
<text text-anchor="start" x="453.33" y="-501.57" font-family="arial" font-size="14.00"> </text>
<text text-anchor="start" x="441.33" y="-482.57" font-family="arial" font-size="14.00">X1:1</text>
<text text-anchor="start" x="551.75" y="-482.57" font-family="arial" font-size="14.00"> &#160;&#160;&#160;&#160;1:BN &#160;&#160;&#160;</text>
<text text-anchor="start" x="698.17" y="-482.57" font-family="arial" font-size="14.00">X2:1</text>
<polygon fill="#000000" stroke="none" points="401,-476.88 401,-478.88 766.25,-478.88 766.25,-476.88 401,-476.88"/>
<polygon fill="#895956" stroke="none" points="401,-474.88 401,-476.88 766.25,-476.88 766.25,-474.88 401,-474.88"/>
<polygon fill="#000000" stroke="none" points="401,-472.88 401,-474.88 766.25,-474.88 766.25,-472.88 401,-472.88"/>
<text text-anchor="start" x="441.33" y="-457.57" font-family="arial" font-size="14.00">X1:2</text>
<text text-anchor="start" x="551.38" y="-457.57" font-family="arial" font-size="14.00"> &#160;&#160;&#160;&#160;2:RD &#160;&#160;&#160;</text>
<text text-anchor="start" x="698.17" y="-457.57" font-family="arial" font-size="14.00">X2:2</text>
<polygon fill="#000000" stroke="none" points="401,-451.88 401,-453.88 766.25,-453.88 766.25,-451.88 401,-451.88"/>
<polygon fill="#ff0000" stroke="none" points="401,-449.88 401,-451.88 766.25,-451.88 766.25,-449.88 401,-449.88"/>
<polygon fill="#000000" stroke="none" points="401,-447.88 401,-449.88 766.25,-449.88 766.25,-447.88 401,-447.88"/>
<text text-anchor="start" x="441.33" y="-432.57" font-family="arial" font-size="14.00">X1:3</text>
<text text-anchor="start" x="549.88" y="-432.57" font-family="arial" font-size="14.00"> &#160;&#160;&#160;&#160;3:OG &#160;&#160;&#160;</text>
<text text-anchor="start" x="698.17" y="-432.57" font-family="arial" font-size="14.00">X2:3</text>
<polygon fill="#000000" stroke="none" points="401,-426.88 401,-428.88 766.25,-428.88 766.25,-426.88 401,-426.88"/>
<polygon fill="#ff8000" stroke="none" points="401,-424.88 401,-426.88 766.25,-426.88 766.25,-424.88 401,-424.88"/>
<polygon fill="#000000" stroke="none" points="401,-422.88 401,-424.88 766.25,-424.88 766.25,-422.88 401,-422.88"/>
<text text-anchor="start" x="441.33" y="-407.57" font-family="arial" font-size="14.00">X1:4</text>
<text text-anchor="start" x="552.12" y="-407.57" font-family="arial" font-size="14.00"> &#160;&#160;&#160;&#160;4:YE &#160;&#160;&#160;</text>
<text text-anchor="start" x="698.17" y="-407.57" font-family="arial" font-size="14.00">X2:4</text>
<polygon fill="#000000" stroke="none" points="401,-401.88 401,-403.88 766.25,-403.88 766.25,-401.88 401,-401.88"/>
<polygon fill="#ffff00" stroke="none" points="401,-399.88 401,-401.88 766.25,-401.88 766.25,-399.88 401,-399.88"/>
<polygon fill="#000000" stroke="none" points="401,-397.88 401,-399.88 766.25,-399.88 766.25,-397.88 401,-397.88"/>
<text text-anchor="start" x="453.33" y="-382.57" font-family="arial" font-size="14.00"> </text>
</g>
<!-- X1&#45;&#45;W1 -->
<g id="edge1" class="edge">
<title>X1:e&#45;&#45;W1:w</title>
<path fill="none" stroke="#000000" stroke-width="2" d="M257,-365.88C338.98,-368.17 322.98,-476.17 401,-473.88"/>
<path fill="none" stroke="#895956" stroke-width="2" d="M257,-367.88C337,-367.88 321,-475.88 401,-475.88"/>
<path fill="none" stroke="#000000" stroke-width="2" d="M257,-369.87C335.02,-367.58 319.02,-475.58 401,-477.87"/>
</g>
<!-- X1&#45;&#45;W1 -->
<g id="edge3" class="edge">
<title>X1:e&#45;&#45;W1:w</title>
<path fill="none" stroke="#000000" stroke-width="2" d="M257,-342.13C338.65,-344.41 323.31,-451.16 401,-448.88"/>
<path fill="none" stroke="#ff0000" stroke-width="2" d="M257,-344.13C336.67,-344.12 321.33,-450.88 401,-450.88"/>
<path fill="none" stroke="#000000" stroke-width="2" d="M257,-346.12C334.69,-343.84 319.35,-450.59 401,-452.87"/>
</g>
<!-- X1&#45;&#45;W1 -->
<g id="edge5" class="edge">
<title>X1:e&#45;&#45;W1:w</title>
<path fill="none" stroke="#000000" stroke-width="2" d="M257,-318.38C338.32,-320.65 323.64,-426.15 401,-423.88"/>
<path fill="none" stroke="#ff8000" stroke-width="2" d="M257,-320.38C336.34,-320.38 321.66,-425.88 401,-425.88"/>
<path fill="none" stroke="#000000" stroke-width="2" d="M257,-322.37C334.36,-320.1 319.68,-425.6 401,-427.87"/>
</g>
<!-- X1&#45;&#45;W1 -->
<g id="edge7" class="edge">
<title>X1:e&#45;&#45;W1:w</title>
<path fill="none" stroke="#000000" stroke-width="2" d="M257,-294.63C337.99,-296.89 323.97,-401.14 401,-398.88"/>
<path fill="none" stroke="#ffff00" stroke-width="2" d="M257,-296.62C336.01,-296.62 321.99,-400.88 401,-400.87"/>
<path fill="none" stroke="#000000" stroke-width="2" d="M257,-298.62C334.03,-296.36 320.01,-400.61 401,-402.87"/>
</g>
<!-- W2 -->
<g id="node5" class="node">
<title>W2</title>
<polygon fill="#ffffff" stroke="black" stroke-dasharray="5,2" points="732.62,-351.88 434.62,-351.88 434.62,-11.12 732.62,-11.12 732.62,-351.88"/>
<polygon fill="none" stroke="black" points="434.62,-328.12 434.62,-351.88 732.62,-351.88 732.62,-328.12 434.62,-328.12"/>
<text text-anchor="start" x="573.12" y="-334.57" font-family="arial" font-size="14.00">W2</text>
<polygon fill="none" stroke="black" points="434.62,-304.38 434.62,-328.12 516.21,-328.12 516.21,-304.38 434.62,-304.38"/>
<text text-anchor="start" x="468.29" y="-310.82" font-family="arial" font-size="14.00">4x</text>
<polygon fill="none" stroke="black" points="516.21,-304.38 516.21,-328.12 642.04,-328.12 642.04,-304.38 516.21,-304.38"/>
<text text-anchor="start" x="549.88" y="-310.82" font-family="arial" font-size="14.00">0.25 mm²</text>
<polygon fill="none" stroke="black" points="642.04,-304.38 642.04,-328.12 732.62,-328.12 732.62,-304.38 642.04,-304.38"/>
<text text-anchor="start" x="675.71" y="-310.82" font-family="arial" font-size="14.00">1 m</text>
<text text-anchor="start" x="492.75" y="-289.07" font-family="arial" font-size="14.00"> </text>
<text text-anchor="start" x="480.75" y="-270.07" font-family="arial" font-size="14.00">X1:1</text>
<text text-anchor="start" x="579.75" y="-270.07" font-family="arial" font-size="14.00"> &#160;&#160;&#160;&#160;YE &#160;&#160;&#160;</text>
<text text-anchor="start" x="680.75" y="-270.07" font-family="arial" font-size="14.00">X3:1</text>
<polygon fill="#000000" stroke="none" points="434.62,-264.38 434.62,-266.38 732.62,-266.38 732.62,-264.38 434.62,-264.38"/>
<polygon fill="#ffff00" stroke="none" points="434.62,-262.38 434.62,-264.38 732.62,-264.38 732.62,-262.38 434.62,-262.38"/>
<polygon fill="#000000" stroke="none" points="434.62,-260.38 434.62,-262.38 732.62,-262.38 732.62,-260.38 434.62,-260.38"/>
<text text-anchor="start" x="438.88" y="-243.07" font-family="arial" font-size="14.00">P/N: WIRE1</text>
<text text-anchor="start" x="516.88" y="-243.07" font-family="arial" font-size="14.00">WiresCo: W1&#45;YE</text>
<text text-anchor="start" x="624.88" y="-243.07" font-family="arial" font-size="14.00">WireShack: 1001</text>
<text text-anchor="start" x="480.75" y="-222.07" font-family="arial" font-size="14.00">X1:2</text>
<text text-anchor="start" x="579.75" y="-222.07" font-family="arial" font-size="14.00"> &#160;&#160;&#160;&#160;BK &#160;&#160;&#160;</text>
<text text-anchor="start" x="680.75" y="-222.07" font-family="arial" font-size="14.00">X3:2</text>
<polygon fill="#000000" stroke="none" points="434.62,-216.38 434.62,-218.38 732.62,-218.38 732.62,-216.38 434.62,-216.38"/>
<polygon fill="#000000" stroke="none" points="434.62,-214.38 434.62,-216.38 732.62,-216.38 732.62,-214.38 434.62,-214.38"/>
<polygon fill="#000000" stroke="none" points="434.62,-212.38 434.62,-214.38 732.62,-214.38 732.62,-212.38 434.62,-212.38"/>
<text text-anchor="start" x="438.88" y="-195.07" font-family="arial" font-size="14.00">P/N: WIRE2</text>
<text text-anchor="start" x="516.88" y="-195.07" font-family="arial" font-size="14.00">WiresCo: W1&#45;BK</text>
<text text-anchor="start" x="624.88" y="-195.07" font-family="arial" font-size="14.00">WireShack: 1002</text>
<text text-anchor="start" x="480.75" y="-174.07" font-family="arial" font-size="14.00">X1:3</text>
<text text-anchor="start" x="579.75" y="-174.07" font-family="arial" font-size="14.00"> &#160;&#160;&#160;&#160;BK &#160;&#160;&#160;</text>
<text text-anchor="start" x="680.75" y="-174.07" font-family="arial" font-size="14.00">X3:3</text>
<polygon fill="#000000" stroke="none" points="434.62,-168.38 434.62,-170.38 732.62,-170.38 732.62,-168.38 434.62,-168.38"/>
<polygon fill="#000000" stroke="none" points="434.62,-166.38 434.62,-168.38 732.62,-168.38 732.62,-166.38 434.62,-166.38"/>
<polygon fill="#000000" stroke="none" points="434.62,-164.38 434.62,-166.38 732.62,-166.38 732.62,-164.38 434.62,-164.38"/>
<text text-anchor="start" x="438.88" y="-147.07" font-family="arial" font-size="14.00">P/N: WIRE2</text>
<text text-anchor="start" x="516.88" y="-147.07" font-family="arial" font-size="14.00">WiresCo: W1&#45;BK</text>
<text text-anchor="start" x="624.88" y="-147.07" font-family="arial" font-size="14.00">WireShack: 1002</text>
<text text-anchor="start" x="480.75" y="-126.08" font-family="arial" font-size="14.00">X1:4</text>
<text text-anchor="start" x="579" y="-126.08" font-family="arial" font-size="14.00"> &#160;&#160;&#160;&#160;RD &#160;&#160;&#160;</text>
<text text-anchor="start" x="680.75" y="-126.08" font-family="arial" font-size="14.00">X3:4</text>
<polygon fill="#000000" stroke="none" points="434.62,-120.38 434.62,-122.38 732.62,-122.38 732.62,-120.38 434.62,-120.38"/>
<polygon fill="#ff0000" stroke="none" points="434.62,-118.38 434.62,-120.38 732.62,-120.38 732.62,-118.38 434.62,-118.38"/>
<polygon fill="#000000" stroke="none" points="434.62,-116.38 434.62,-118.38 732.62,-118.38 732.62,-116.38 434.62,-116.38"/>
<text text-anchor="start" x="438.62" y="-99.08" font-family="arial" font-size="14.00">P/N: WIRE3</text>
<text text-anchor="start" x="516.12" y="-99.08" font-family="arial" font-size="14.00">WiresCo: W1&#45;RD</text>
<text text-anchor="start" x="625.12" y="-99.08" font-family="arial" font-size="14.00">WireShack: 1009</text>
<text text-anchor="start" x="492.75" y="-78.08" font-family="arial" font-size="14.00"> </text>
<polygon fill="none" stroke="black" points="434.62,-50.62 434.62,-74.38 732.62,-74.38 732.62,-50.62 434.62,-50.62"/>
<text text-anchor="start" x="515" y="-57.08" font-family="arial" font-size="14.00">Additional components</text>
<polygon fill="none" stroke="black" points="434.62,-11.12 434.62,-50.62 732.62,-50.62 732.62,-11.12 434.62,-11.12"/>
<text text-anchor="start" x="438.62" y="-33.33" font-family="arial" font-size="14.00">1 m x Sleve, Braided nylon, black, 3mm</text>
<text text-anchor="start" x="438.62" y="-17.57" font-family="arial" font-size="14.00">P/N: SLV&#45;1</text>
</g>
<!-- X1&#45;&#45;W2 -->
<g id="edge9" class="edge">
<title>X1:e&#45;&#45;W2:w</title>
<path fill="none" stroke="#000000" stroke-width="2" d="M257,-365.88C346.21,-367.99 340.42,-263.49 433.62,-261.38"/>
<path fill="none" stroke="#ffff00" stroke-width="2" d="M257,-367.88C348.21,-367.87 342.41,-263.37 433.62,-263.38"/>
<path fill="none" stroke="#000000" stroke-width="2" d="M257,-369.87C350.21,-367.76 344.41,-263.26 433.62,-265.37"/>
</g>
<!-- X1&#45;&#45;W2 -->
<g id="edge11" class="edge">
<title>X1:e&#45;&#45;W2:w</title>
<path fill="none" stroke="#000000" stroke-width="2" d="M257,-342.13C352.16,-344.4 334.5,-215.65 433.62,-213.38"/>
<path fill="none" stroke="#000000" stroke-width="2" d="M257,-344.13C354.14,-344.12 336.48,-215.38 433.62,-215.38"/>
<path fill="none" stroke="#000000" stroke-width="2" d="M257,-346.12C356.12,-343.85 338.46,-215.1 433.62,-217.37"/>
</g>
<!-- X1&#45;&#45;W2 -->
<g id="edge13" class="edge">
<title>X1:e&#45;&#45;W2:w</title>
<path fill="none" stroke="#000000" stroke-width="2" d="M257,-318.38C358.9,-320.77 327.81,-167.77 433.62,-165.38"/>
<path fill="none" stroke="#000000" stroke-width="2" d="M257,-320.38C360.86,-320.38 329.77,-167.37 433.62,-167.37"/>
<path fill="none" stroke="#000000" stroke-width="2" d="M257,-322.37C362.82,-319.98 331.73,-166.98 433.62,-169.37"/>
</g>
<!-- X1&#45;&#45;W2 -->
<g id="edge15" class="edge">
<title>X1:e&#45;&#45;W2:w</title>
<path fill="none" stroke="#000000" stroke-width="2" d="M257,-294.63C366.28,-297.13 320.48,-119.88 433.62,-117.38"/>
<path fill="none" stroke="#ff0000" stroke-width="2" d="M257,-296.63C368.21,-296.62 322.41,-119.37 433.62,-119.38"/>
<path fill="none" stroke="#000000" stroke-width="2" d="M257,-298.62C370.15,-296.12 324.35,-118.87 433.62,-121.37"/>
</g>
<!-- X2 -->
<g id="node2" class="node">
<title>X2</title>
<polygon fill="#ffffff" stroke="black" points="1208.75,-562 910.25,-562 910.25,-293 1208.75,-293 1208.75,-562"/>
<polygon fill="none" stroke="black" points="910.25,-538.25 910.25,-562 1208.75,-562 1208.75,-538.25 910.25,-538.25"/>
<text text-anchor="start" x="1051.25" y="-544.7" font-family="arial" font-size="14.00">X2</text>
<polygon fill="none" stroke="black" points="910.25,-514.5 910.25,-538.25 986.5,-538.25 986.5,-514.5 910.25,-514.5"/>
<text text-anchor="start" x="914.25" y="-520.95" font-family="arial" font-size="14.00">P/N: CON4</text>
<polygon fill="none" stroke="black" points="986.5,-514.5 986.5,-538.25 1098.75,-538.25 1098.75,-514.5 986.5,-514.5"/>
<text text-anchor="start" x="990.5" y="-520.95" font-family="arial" font-size="14.00">Molex: 22013047</text>
<polygon fill="none" stroke="black" points="1098.75,-514.5 1098.75,-538.25 1208.75,-538.25 1208.75,-514.5 1098.75,-514.5"/>
<text text-anchor="start" x="1102.75" y="-520.95" font-family="arial" font-size="14.00">Digimouse: 1234</text>
<polygon fill="none" stroke="black" points="910.25,-490.75 910.25,-514.5 1042.5,-514.5 1042.5,-490.75 910.25,-490.75"/>
<text text-anchor="start" x="934" y="-497.2" font-family="arial" font-size="14.00">Molex KK 254</text>
<polygon fill="none" stroke="black" points="1042.5,-490.75 1042.5,-514.5 1131.25,-514.5 1131.25,-490.75 1042.5,-490.75"/>
<text text-anchor="start" x="1066.25" y="-497.2" font-family="arial" font-size="14.00">female</text>
<polygon fill="none" stroke="black" points="1131.25,-490.75 1131.25,-514.5 1208.75,-514.5 1208.75,-490.75 1131.25,-490.75"/>
<text text-anchor="start" x="1155" y="-497.2" font-family="arial" font-size="14.00">4&#45;pin</text>
<polygon fill="none" stroke="black" points="910.25,-467 910.25,-490.75 1208.75,-490.75 1208.75,-467 910.25,-467"/>
<text text-anchor="start" x="1055.75" y="-473.45" font-family="arial" font-size="14.00">1</text>
<polygon fill="none" stroke="black" points="910.25,-443.25 910.25,-467 1208.75,-467 1208.75,-443.25 910.25,-443.25"/>
<text text-anchor="start" x="1055.75" y="-449.7" font-family="arial" font-size="14.00">2</text>
<polygon fill="none" stroke="black" points="910.25,-419.5 910.25,-443.25 1208.75,-443.25 1208.75,-419.5 910.25,-419.5"/>
<text text-anchor="start" x="1055.75" y="-425.95" font-family="arial" font-size="14.00">3</text>
<polygon fill="none" stroke="black" points="910.25,-395.75 910.25,-419.5 1208.75,-419.5 1208.75,-395.75 910.25,-395.75"/>
<text text-anchor="start" x="1055.75" y="-402.2" font-family="arial" font-size="14.00">4</text>
<polygon fill="none" stroke="black" points="910.25,-372 910.25,-395.75 1208.75,-395.75 1208.75,-372 910.25,-372"/>
<text text-anchor="start" x="990.88" y="-378.45" font-family="arial" font-size="14.00">Additional components</text>
<polygon fill="none" stroke="black" points="910.25,-332.5 910.25,-372 1208.75,-372 1208.75,-332.5 910.25,-332.5"/>
<text text-anchor="start" x="914.25" y="-354.7" font-family="arial" font-size="14.00">4 x Crimp, Molex KK 254, 22&#45;30 AWG</text>
<text text-anchor="start" x="914.25" y="-338.95" font-family="arial" font-size="14.00">Molex: 08500030</text>
<polygon fill="none" stroke="black" points="910.25,-293 910.25,-332.5 1208.75,-332.5 1208.75,-293 910.25,-293"/>
<text text-anchor="start" x="914.25" y="-315.2" font-family="arial" font-size="14.00">1 x Test</text>
<text text-anchor="start" x="914.25" y="-299.45" font-family="arial" font-size="14.00">P/N: ABC, Molex: 45454, Mousikey: 9999</text>
</g>
<!-- X3 -->
<g id="node3" class="node">
<title>X3</title>
<polygon fill="#ffffff" stroke="black" points="1188,-269 931,-269 931,0 1188,0 1188,-269"/>
<polygon fill="none" stroke="black" points="931,-245.25 931,-269 1188,-269 1188,-245.25 931,-245.25"/>
<text text-anchor="start" x="1051.25" y="-251.7" font-family="arial" font-size="14.00">X3</text>
<polygon fill="none" stroke="black" points="931,-221.5 931,-245.25 1060.62,-245.25 1060.62,-221.5 931,-221.5"/>
<text text-anchor="start" x="943.69" y="-227.95" font-family="arial" font-size="14.00">Molex: 22013047</text>
<polygon fill="none" stroke="black" points="1060.62,-221.5 1060.62,-245.25 1188,-245.25 1188,-221.5 1060.62,-221.5"/>
<text text-anchor="start" x="1073.31" y="-227.95" font-family="arial" font-size="14.00">Digimouse: 1234</text>
<polygon fill="none" stroke="black" points="931,-197.75 931,-221.5 1049.42,-221.5 1049.42,-197.75 931,-197.75"/>
<text text-anchor="start" x="947.83" y="-204.2" font-family="arial" font-size="14.00">Molex KK 254</text>
<polygon fill="none" stroke="black" points="1049.42,-197.75 1049.42,-221.5 1124.33,-221.5 1124.33,-197.75 1049.42,-197.75"/>
<text text-anchor="start" x="1066.25" y="-204.2" font-family="arial" font-size="14.00">female</text>
<polygon fill="none" stroke="black" points="1124.33,-197.75 1124.33,-221.5 1188,-221.5 1188,-197.75 1124.33,-197.75"/>
<text text-anchor="start" x="1141.17" y="-204.2" font-family="arial" font-size="14.00">4&#45;pin</text>
<polygon fill="none" stroke="black" points="931,-174 931,-197.75 1188,-197.75 1188,-174 931,-174"/>
<text text-anchor="start" x="1055.75" y="-180.45" font-family="arial" font-size="14.00">1</text>
<polygon fill="none" stroke="black" points="931,-150.25 931,-174 1188,-174 1188,-150.25 931,-150.25"/>
<text text-anchor="start" x="1055.75" y="-156.7" font-family="arial" font-size="14.00">2</text>
<polygon fill="none" stroke="black" points="931,-126.5 931,-150.25 1188,-150.25 1188,-126.5 931,-126.5"/>
<text text-anchor="start" x="1055.75" y="-132.95" font-family="arial" font-size="14.00">3</text>
<polygon fill="none" stroke="black" points="931,-102.75 931,-126.5 1188,-126.5 1188,-102.75 931,-102.75"/>
<text text-anchor="start" x="1055.75" y="-109.2" font-family="arial" font-size="14.00">4</text>
<polygon fill="none" stroke="black" points="931,-79 931,-102.75 1188,-102.75 1188,-79 931,-79"/>
<text text-anchor="start" x="990.88" y="-85.45" font-family="arial" font-size="14.00">Additional components</text>
<polygon fill="none" stroke="black" points="931,-39.5 931,-79 1188,-79 1188,-39.5 931,-39.5"/>
<text text-anchor="start" x="935" y="-61.7" font-family="arial" font-size="14.00">4 x Crimp, Molex KK 254, 22&#45;30 AWG</text>
<text text-anchor="start" x="935" y="-45.95" font-family="arial" font-size="14.00">Molex: 08500030</text>
<polygon fill="none" stroke="black" points="931,0 931,-39.5 1188,-39.5 1188,0 931,0"/>
<text text-anchor="start" x="935" y="-22.2" font-family="arial" font-size="14.00">1 x Test</text>
<text text-anchor="start" x="935" y="-6.45" font-family="arial" font-size="14.00">P/N: ABC, Molex: 45454, Mousikey: 9999</text>
</g>
<!-- W1&#45;&#45;X2 -->
<g id="edge2" class="edge">
<title>W1:e&#45;&#45;X2:w</title>
<path fill="none" stroke="#000000" stroke-width="2" d="M766.25,-473.88C830.63,-473.91 846.61,-476.91 910.25,-476.88"/>
<path fill="none" stroke="#895956" stroke-width="2" d="M766.25,-475.88C830.26,-475.88 846.24,-478.88 910.25,-478.88"/>
<path fill="none" stroke="#000000" stroke-width="2" d="M766.25,-477.87C829.89,-477.84 845.87,-480.84 910.25,-480.87"/>
</g>
<!-- W1&#45;&#45;X2 -->
<g id="edge4" class="edge">
<title>W1:e&#45;&#45;X2:w</title>
<path fill="none" stroke="#000000" stroke-width="2" d="M766.25,-448.88C830.79,-448.94 846.74,-453.19 910.25,-453.13"/>
<path fill="none" stroke="#ff0000" stroke-width="2" d="M766.25,-450.88C830.28,-450.88 846.22,-455.12 910.25,-455.12"/>
<path fill="none" stroke="#000000" stroke-width="2" d="M766.25,-452.87C829.76,-452.81 845.71,-457.06 910.25,-457.12"/>
</g>
<!-- W1&#45;&#45;X2 -->
<g id="edge6" class="edge">
<title>W1:e&#45;&#45;X2:w</title>
<path fill="none" stroke="#000000" stroke-width="2" d="M766.25,-423.88C830.95,-423.98 846.86,-429.48 910.25,-429.38"/>
<path fill="none" stroke="#ff8000" stroke-width="2" d="M766.25,-425.88C830.3,-425.88 846.2,-431.38 910.25,-431.38"/>
<path fill="none" stroke="#000000" stroke-width="2" d="M766.25,-427.87C829.64,-427.77 845.55,-433.27 910.25,-433.37"/>
</g>
<!-- W1&#45;&#45;X2 -->
<g id="edge8" class="edge">
<title>W1:e&#45;&#45;X2:w</title>
<path fill="none" stroke="#000000" stroke-width="2" d="M766.25,-398.88C831.1,-399.03 846.96,-405.78 910.25,-405.63"/>
<path fill="none" stroke="#ffff00" stroke-width="2" d="M766.25,-400.88C830.32,-400.88 846.18,-407.62 910.25,-407.62"/>
<path fill="none" stroke="#000000" stroke-width="2" d="M766.25,-402.87C829.54,-402.72 845.4,-409.47 910.25,-409.62"/>
</g>
<!-- W2&#45;&#45;X3 -->
<g id="edge10" class="edge">
<title>W2:e&#45;&#45;X3:w</title>
<path fill="none" stroke="#000000" stroke-width="2" d="M733.62,-261.38C825.47,-263.15 834.18,-185.65 930,-183.88"/>
<path fill="none" stroke="#ffff00" stroke-width="2" d="M733.62,-263.38C827.45,-263.38 836.17,-185.87 930,-185.88"/>
<path fill="none" stroke="#000000" stroke-width="2" d="M733.62,-265.37C829.44,-263.6 838.16,-186.1 930,-187.87"/>
</g>
<!-- W2&#45;&#45;X3 -->
<g id="edge12" class="edge">
<title>W2:e&#45;&#45;X3:w</title>
<path fill="none" stroke="#000000" stroke-width="2" d="M733.62,-213.38C822.13,-214.82 837.65,-161.57 930,-160.13"/>
<path fill="none" stroke="#000000" stroke-width="2" d="M733.62,-215.38C824.05,-215.38 839.57,-162.12 930,-162.12"/>
<path fill="none" stroke="#000000" stroke-width="2" d="M733.62,-217.37C825.97,-215.93 841.49,-162.68 930,-164.12"/>
</g>
<!-- W2&#45;&#45;X3 -->
<g id="edge14" class="edge">
<title>W2:e&#45;&#45;X3:w</title>
<path fill="none" stroke="#000000" stroke-width="2" d="M733.62,-165.38C820.2,-166.24 840.13,-137.24 930,-136.38"/>
<path fill="none" stroke="#000000" stroke-width="2" d="M733.62,-167.38C821.85,-167.38 841.78,-138.38 930,-138.38"/>
<path fill="none" stroke="#000000" stroke-width="2" d="M733.62,-169.37C823.5,-168.51 843.42,-139.51 930,-140.37"/>
</g>
<!-- W2&#45;&#45;X3 -->
<g id="edge16" class="edge">
<title>W2:e&#45;&#45;X3:w</title>
<path fill="none" stroke="#000000" stroke-width="2" d="M733.62,-117.38C820.5,-117.42 842.27,-112.67 930,-112.63"/>
<path fill="none" stroke="#ff0000" stroke-width="2" d="M733.62,-119.38C820.93,-119.37 842.7,-114.62 930,-114.62"/>
<path fill="none" stroke="#000000" stroke-width="2" d="M733.62,-121.37C821.35,-121.33 843.12,-116.58 930,-116.62"/>
</g>
</g>
</svg>
