<?xml version="1.0" encoding="UTF-8" standalone="no"?>
<!DOCTYPE svg PUBLIC "-//W3C//DTD SVG 1.1//EN"
 "http://www.w3.org/Graphics/SVG/1.1/DTD/svg11.dtd">
<!-- Generated by graphviz version 12.1.2 (0)
 -->
<!-- Title: graph Pages: 1 -->
<svg width="777pt" height="217pt"
 viewBox="0.00 0.00 777.00 216.62" xmlns="http://www.w3.org/2000/svg" xmlns:xlink="http://www.w3.org/1999/xlink">
<g id="graph0" class="graph" transform="scale(1 1) rotate(0) translate(4 212.62)">
<title>graph</title>
<polygon fill="#ffffff" stroke="none" points="-4,4 -4,-212.62 773,-212.62 773,4 -4,4"/>
<!-- __F1_1 -->
<g id="node1" class="node">
<title>__F1_1</title>
<polygon fill="#ffffff" stroke="black" points="184.25,-167.75 0,-167.75 0,-144 184.25,-144 184.25,-167.75"/>
<polygon fill="none" stroke="black" points="0,-144 0,-167.75 86.75,-167.75 86.75,-144 0,-144"/>
<text text-anchor="start" x="4" y="-150.45" font-family="arial" font-size="14.00">Crimp ferrule</text>
<polygon fill="none" stroke="black" points="86.75,-144 86.75,-167.75 145.75,-167.75 145.75,-144 86.75,-144"/>
<text text-anchor="start" x="90.75" y="-150.45" font-family="arial" font-size="14.00">0.5 mm²</text>
<polygon fill="none" stroke="black" points="145.75,-144 145.75,-167.75 176.25,-167.75 176.25,-144 145.75,-144"/>
<text text-anchor="start" x="149.75" y="-150.45" font-family="arial" font-size="14.00">OG</text>
<polygon fill="#ff8000" stroke="none" points="176.25,-144 176.25,-167.75 184.25,-167.75 184.25,-144 176.25,-144"/>
<polygon fill="none" stroke="black" points="176.25,-144 176.25,-167.75 184.25,-167.75 184.25,-144 176.25,-144"/>
</g>
<!-- W1 -->
<g id="node6" class="node">
<title>W1</title>
<polygon fill="#ffffff" stroke="black" stroke-dasharray="5,2" points="459.25,-208.62 328.25,-208.62 328.25,-23.12 459.25,-23.12 459.25,-208.62"/>
<polygon fill="none" stroke="black" points="328.25,-184.88 328.25,-208.62 459.25,-208.62 459.25,-184.88 328.25,-184.88"/>
<text text-anchor="start" x="383.25" y="-191.32" font-family="arial" font-size="14.00">W1</text>
<polygon fill="none" stroke="black" points="328.25,-161.12 328.25,-184.88 352.92,-184.88 352.92,-161.12 328.25,-161.12"/>
<text text-anchor="start" x="333.46" y="-167.57" font-family="arial" font-size="14.00">4x</text>
<polygon fill="none" stroke="black" points="352.92,-161.12 352.92,-184.88 414.33,-184.88 414.33,-161.12 352.92,-161.12"/>
<text text-anchor="start" x="358.12" y="-167.57" font-family="arial" font-size="14.00">0.5 mm²</text>
<polygon fill="none" stroke="black" points="414.33,-161.12 414.33,-184.88 459.25,-184.88 459.25,-161.12 414.33,-161.12"/>
<text text-anchor="start" x="419.54" y="-167.57" font-family="arial" font-size="14.00">0.3 m</text>
<text text-anchor="start" x="329.88" y="-145.82" font-family="arial" font-size="14.00"> </text>
<text text-anchor="start" x="337.88" y="-126.83" font-family="arial" font-size="14.00"> &#160;&#160;&#160;&#160;YE &#160;&#160;&#160;</text>
<text text-anchor="start" x="393.88" y="-126.83" font-family="arial" font-size="14.00">X1:1:+12V</text>
<polygon fill="#000000" stroke="none" points="328.25,-121.12 328.25,-123.12 459.25,-123.12 459.25,-121.12 328.25,-121.12"/>
<polygon fill="#ffff00" stroke="none" points="328.25,-119.12 328.25,-121.12 459.25,-121.12 459.25,-119.12 328.25,-119.12"/>
<polygon fill="#000000" stroke="none" points="328.25,-117.12 328.25,-119.12 459.25,-119.12 459.25,-117.12 328.25,-117.12"/>
<text text-anchor="start" x="337.88" y="-101.83" font-family="arial" font-size="14.00"> &#160;&#160;&#160;&#160;BK &#160;&#160;&#160;</text>
<text text-anchor="start" x="394.62" y="-101.83" font-family="arial" font-size="14.00">X1:2:GND</text>
<polygon fill="#000000" stroke="none" points="328.25,-96.12 328.25,-98.12 459.25,-98.12 459.25,-96.12 328.25,-96.12"/>
<polygon fill="#000000" stroke="none" points="328.25,-94.12 328.25,-96.12 459.25,-96.12 459.25,-94.12 328.25,-94.12"/>
<polygon fill="#000000" stroke="none" points="328.25,-92.12 328.25,-94.12 459.25,-94.12 459.25,-92.12 328.25,-92.12"/>
<text text-anchor="start" x="337.88" y="-76.83" font-family="arial" font-size="14.00"> &#160;&#160;&#160;&#160;BK &#160;&#160;&#160;</text>
<text text-anchor="start" x="394.62" y="-76.83" font-family="arial" font-size="14.00">X1:3:GND</text>
<polygon fill="#000000" stroke="none" points="328.25,-71.12 328.25,-73.12 459.25,-73.12 459.25,-71.12 328.25,-71.12"/>
<polygon fill="#000000" stroke="none" points="328.25,-69.12 328.25,-71.12 459.25,-71.12 459.25,-69.12 328.25,-69.12"/>
<polygon fill="#000000" stroke="none" points="328.25,-67.12 328.25,-69.12 459.25,-69.12 459.25,-67.12 328.25,-67.12"/>
<text text-anchor="start" x="337.12" y="-51.83" font-family="arial" font-size="14.00"> &#160;&#160;&#160;&#160;RD &#160;&#160;&#160;</text>
<text text-anchor="start" x="397.62" y="-51.83" font-family="arial" font-size="14.00">X1:4:+5V</text>
<polygon fill="#000000" stroke="none" points="328.25,-46.12 328.25,-48.12 459.25,-48.12 459.25,-46.12 328.25,-46.12"/>
<polygon fill="#ff0000" stroke="none" points="328.25,-44.12 328.25,-46.12 459.25,-46.12 459.25,-44.12 328.25,-44.12"/>
<polygon fill="#000000" stroke="none" points="328.25,-42.12 328.25,-44.12 459.25,-44.12 459.25,-42.12 328.25,-42.12"/>
<text text-anchor="start" x="329.88" y="-26.82" font-family="arial" font-size="14.00"> </text>
</g>
<!-- __F1_1&#45;&#45;W1 -->
<g id="edge1" class="edge">
<title>__F1_1:e&#45;&#45;W1:w</title>
<path fill="none" stroke="#000000" stroke-width="2" d="M184.25,-153.88C248.3,-155.23 260.41,-119.48 328.25,-118.13"/>
<path fill="none" stroke="#ffff00" stroke-width="2" d="M184.25,-155.88C250.19,-155.88 262.31,-120.12 328.25,-120.13"/>
<path fill="none" stroke="#000000" stroke-width="2" d="M184.25,-157.87C252.09,-156.52 264.2,-120.77 328.25,-122.12"/>
</g>
<!-- __F1_2 -->
<g id="node2" class="node">
<title>__F1_2</title>
<polygon fill="#ffffff" stroke="black" points="184.25,-119.75 0,-119.75 0,-96 184.25,-96 184.25,-119.75"/>
<polygon fill="none" stroke="black" points="0,-96 0,-119.75 86.75,-119.75 86.75,-96 0,-96"/>
<text text-anchor="start" x="4" y="-102.45" font-family="arial" font-size="14.00">Crimp ferrule</text>
<polygon fill="none" stroke="black" points="86.75,-96 86.75,-119.75 145.75,-119.75 145.75,-96 86.75,-96"/>
<text text-anchor="start" x="90.75" y="-102.45" font-family="arial" font-size="14.00">0.5 mm²</text>
<polygon fill="none" stroke="black" points="145.75,-96 145.75,-119.75 176.25,-119.75 176.25,-96 145.75,-96"/>
<text text-anchor="start" x="149.75" y="-102.45" font-family="arial" font-size="14.00">OG</text>
<polygon fill="#ff8000" stroke="none" points="176.25,-96 176.25,-119.75 184.25,-119.75 184.25,-96 176.25,-96"/>
<polygon fill="none" stroke="black" points="176.25,-96 176.25,-119.75 184.25,-119.75 184.25,-96 176.25,-96"/>
</g>
<!-- __F1_2&#45;&#45;W1 -->
<g id="edge3" class="edge">
<title>__F1_2:e&#45;&#45;W1:w</title>
<path fill="none" stroke="#000000" stroke-width="2" d="M184.25,-105.88C247.23,-106.33 262.73,-93.58 328.25,-93.13"/>
<path fill="none" stroke="#000000" stroke-width="2" d="M184.25,-107.88C248.5,-107.88 264,-95.12 328.25,-95.13"/>
<path fill="none" stroke="#000000" stroke-width="2" d="M184.25,-109.87C249.77,-109.42 265.27,-96.67 328.25,-97.12"/>
</g>
<!-- __F1_3 -->
<g id="node3" class="node">
<title>__F1_3</title>
<polygon fill="#ffffff" stroke="black" points="184.25,-71.75 0,-71.75 0,-48 184.25,-48 184.25,-71.75"/>
<polygon fill="none" stroke="black" points="0,-48 0,-71.75 86.75,-71.75 86.75,-48 0,-48"/>
<text text-anchor="start" x="4" y="-54.45" font-family="arial" font-size="14.00">Crimp ferrule</text>
<polygon fill="none" stroke="black" points="86.75,-48 86.75,-71.75 145.75,-71.75 145.75,-48 86.75,-48"/>
<text text-anchor="start" x="90.75" y="-54.45" font-family="arial" font-size="14.00">0.5 mm²</text>
<polygon fill="none" stroke="black" points="145.75,-48 145.75,-71.75 176.25,-71.75 176.25,-48 145.75,-48"/>
<text text-anchor="start" x="149.75" y="-54.45" font-family="arial" font-size="14.00">OG</text>
<polygon fill="#ff8000" stroke="none" points="176.25,-48 176.25,-71.75 184.25,-71.75 184.25,-48 176.25,-48"/>
<polygon fill="none" stroke="black" points="176.25,-48 176.25,-71.75 184.25,-71.75 184.25,-48 176.25,-48"/>
</g>
<!-- __F1_3&#45;&#45;W1 -->
<g id="edge5" class="edge">
<title>__F1_3:e&#45;&#45;W1:w</title>
<path fill="none" stroke="#000000" stroke-width="2" d="M184.25,-57.88C249.51,-58.2 265.18,-68.45 328.25,-68.13"/>
<path fill="none" stroke="#000000" stroke-width="2" d="M184.25,-59.87C248.41,-59.88 264.09,-70.12 328.25,-70.13"/>
<path fill="none" stroke="#000000" stroke-width="2" d="M184.25,-61.87C247.32,-61.55 262.99,-71.8 328.25,-72.12"/>
</g>
<!-- __F1_4 -->
<g id="node4" class="node">
<title>__F1_4</title>
<polygon fill="#ffffff" stroke="black" points="184.25,-23.75 0,-23.75 0,0 184.25,0 184.25,-23.75"/>
<polygon fill="none" stroke="black" points="0,0 0,-23.75 86.75,-23.75 86.75,0 0,0"/>
<text text-anchor="start" x="4" y="-6.45" font-family="arial" font-size="14.00">Crimp ferrule</text>
<polygon fill="none" stroke="black" points="86.75,0 86.75,-23.75 145.75,-23.75 145.75,0 86.75,0"/>
<text text-anchor="start" x="90.75" y="-6.45" font-family="arial" font-size="14.00">0.5 mm²</text>
<polygon fill="none" stroke="black" points="145.75,0 145.75,-23.75 176.25,-23.75 176.25,0 145.75,0"/>
<text text-anchor="start" x="149.75" y="-6.45" font-family="arial" font-size="14.00">OG</text>
<polygon fill="#ff8000" stroke="none" points="176.25,0 176.25,-23.75 184.25,-23.75 184.25,0 176.25,0"/>
<polygon fill="none" stroke="black" points="176.25,0 176.25,-23.75 184.25,-23.75 184.25,0 176.25,0"/>
</g>
<!-- __F1_4&#45;&#45;W1 -->
<g id="edge7" class="edge">
<title>__F1_4:e&#45;&#45;W1:w</title>
<path fill="none" stroke="#000000" stroke-width="2" d="M184.25,-9.88C251.8,-11.16 264.44,-44.41 328.25,-43.13"/>
<path fill="none" stroke="#ff0000" stroke-width="2" d="M184.25,-11.88C249.93,-11.88 262.57,-45.13 328.25,-45.12"/>
<path fill="none" stroke="#000000" stroke-width="2" d="M184.25,-13.87C248.06,-12.59 260.7,-45.84 328.25,-47.12"/>
</g>
<!-- X1 -->
<g id="node5" class="node">
<title>X1</title>
<polygon fill="#ffffff" stroke="black" points="769,-176.62 603.25,-176.62 603.25,-37.12 769,-37.12 769,-176.62"/>
<polygon fill="none" stroke="black" points="603.25,-152.88 603.25,-176.62 769,-176.62 769,-152.88 603.25,-152.88"/>
<text text-anchor="start" x="677.88" y="-159.32" font-family="arial" font-size="14.00">X1</text>
<polygon fill="none" stroke="black" points="603.25,-129.12 603.25,-152.88 681.75,-152.88 681.75,-129.12 603.25,-129.12"/>
<text text-anchor="start" x="607.25" y="-135.57" font-family="arial" font-size="14.00">Molex 8981</text>
<polygon fill="none" stroke="black" points="681.75,-129.12 681.75,-152.88 731,-152.88 731,-129.12 681.75,-129.12"/>
<text text-anchor="start" x="685.75" y="-135.57" font-family="arial" font-size="14.00">female</text>
<polygon fill="none" stroke="black" points="731,-129.12 731,-152.88 769,-152.88 769,-129.12 731,-129.12"/>
<text text-anchor="start" x="735" y="-135.57" font-family="arial" font-size="14.00">4&#45;pin</text>
<polygon fill="none" stroke="black" points="603.25,-106.12 603.25,-129.12 673.62,-129.12 673.62,-106.12 603.25,-106.12"/>
<text text-anchor="start" x="634.69" y="-111.83" font-family="arial" font-size="14.00">1</text>
<polygon fill="none" stroke="black" points="673.62,-106.12 673.62,-129.12 769,-129.12 769,-106.12 673.62,-106.12"/>
<text text-anchor="start" x="705.19" y="-111.83" font-family="arial" font-size="14.00">+12V</text>
<polygon fill="none" stroke="black" points="603.25,-83.12 603.25,-106.12 673.62,-106.12 673.62,-83.12 603.25,-83.12"/>
<text text-anchor="start" x="634.69" y="-88.83" font-family="arial" font-size="14.00">2</text>
<polygon fill="none" stroke="black" points="673.62,-83.12 673.62,-106.12 769,-106.12 769,-83.12 673.62,-83.12"/>
<text text-anchor="start" x="705.94" y="-88.83" font-family="arial" font-size="14.00">GND</text>
<polygon fill="none" stroke="black" points="603.25,-60.12 603.25,-83.12 673.62,-83.12 673.62,-60.12 603.25,-60.12"/>
<text text-anchor="start" x="634.69" y="-65.83" font-family="arial" font-size="14.00">3</text>
<polygon fill="none" stroke="black" points="673.62,-60.12 673.62,-83.12 769,-83.12 769,-60.12 673.62,-60.12"/>
<text text-anchor="start" x="705.94" y="-65.83" font-family="arial" font-size="14.00">GND</text>
<polygon fill="none" stroke="black" points="603.25,-37.12 603.25,-60.12 673.62,-60.12 673.62,-37.12 603.25,-37.12"/>
<text text-anchor="start" x="634.69" y="-42.83" font-family="arial" font-size="14.00">4</text>
<polygon fill="none" stroke="black" points="673.62,-37.12 673.62,-60.12 769,-60.12 769,-37.12 673.62,-37.12"/>
<text text-anchor="start" x="708.94" y="-42.83" font-family="arial" font-size="14.00">+5V</text>
</g>
<!-- W1&#45;&#45;X1 -->
<g id="edge2" class="edge">
<title>W1:e&#45;&#45;X1:w</title>
<path fill="none" stroke="#000000" stroke-width="2" d="M459.25,-118.13C522.95,-118.15 538.93,-115.65 603.25,-115.63"/>
<path fill="none" stroke="#ffff00" stroke-width="2" d="M459.25,-120.12C523.26,-120.13 539.24,-117.63 603.25,-117.62"/>
<path fill="none" stroke="#000000" stroke-width="2" d="M459.25,-122.12C523.57,-122.1 539.55,-119.6 603.25,-119.62"/>
</g>
<!-- W1&#45;&#45;X1 -->
<g id="edge4" class="edge">
<title>W1:e&#45;&#45;X1:w</title>
<path fill="none" stroke="#000000" stroke-width="2" d="M459.25,-93.13C523.19,-93.13 539.19,-92.63 603.25,-92.63"/>
<path fill="none" stroke="#000000" stroke-width="2" d="M459.25,-95.12C523.25,-95.12 539.25,-94.62 603.25,-94.62"/>
<path fill="none" stroke="#000000" stroke-width="2" d="M459.25,-97.12C523.31,-97.12 539.31,-96.62 603.25,-96.62"/>
</g>
<!-- W1&#45;&#45;X1 -->
<g id="edge6" class="edge">
<title>W1:e&#45;&#45;X1:w</title>
<path fill="none" stroke="#000000" stroke-width="2" d="M459.25,-68.13C523.44,-68.13 539.43,-69.63 603.25,-69.63"/>
<path fill="none" stroke="#000000" stroke-width="2" d="M459.25,-70.12C523.25,-70.12 539.25,-71.62 603.25,-71.62"/>
<path fill="none" stroke="#000000" stroke-width="2" d="M459.25,-72.12C523.07,-72.12 539.06,-73.62 603.25,-73.62"/>
</g>
<!-- W1&#45;&#45;X1 -->
<g id="edge8" class="edge">
<title>W1:e&#45;&#45;X1:w</title>
<path fill="none" stroke="#000000" stroke-width="2" d="M459.25,-43.13C523.7,-43.17 539.66,-46.67 603.25,-46.63"/>
<path fill="none" stroke="#ff0000" stroke-width="2" d="M459.25,-45.12C523.27,-45.12 539.23,-48.62 603.25,-48.62"/>
<path fill="none" stroke="#000000" stroke-width="2" d="M459.25,-47.12C522.84,-47.08 538.8,-50.58 603.25,-50.62"/>
</g>
</g>
</svg>
