<?xml version="1.0" encoding="UTF-8" standalone="no"?>
<!DOCTYPE svg PUBLIC "-//W3C//DTD SVG 1.1//EN"
 "http://www.w3.org/Graphics/SVG/1.1/DTD/svg11.dtd">
<!-- Generated by graphviz version 12.1.2 (0)
 -->
<!-- Title: graph Pages: 1 -->
<svg width="665pt" height="290pt"
 viewBox="0.00 0.00 665.25 289.62" xmlns="http://www.w3.org/2000/svg" xmlns:xlink="http://www.w3.org/1999/xlink">
<g id="graph0" class="graph" transform="scale(1 1) rotate(0) translate(4 285.62)">
<title>graph</title>
<polygon fill="#ffffff" stroke="none" points="-4,4 -4,-285.62 661.25,-285.62 661.25,4 -4,4"/>
<!-- __F_1 -->
<g id="node1" class="node">
<title>__F_1</title>
<polygon fill="#ffffff" stroke="black" points="86.75,-263.75 0,-263.75 0,-240 86.75,-240 86.75,-263.75"/>
<polygon fill="none" stroke="black" points="0,-240 0,-263.75 86.75,-263.75 86.75,-240 0,-240"/>
<text text-anchor="start" x="4" y="-246.45" font-family="arial" font-size="14.00">Crimp ferrule</text>
</g>
<!-- W1 -->
<g id="node13" class="node">
<title>W1</title>
<polygon fill="#ffffff" stroke="black" stroke-dasharray="5,2" points="426.5,-281.62 230.75,-281.62 230.75,-46.12 426.5,-46.12 426.5,-281.62"/>
<polygon fill="none" stroke="black" points="230.75,-257.88 230.75,-281.62 426.5,-281.62 426.5,-257.88 230.75,-257.88"/>
<text text-anchor="start" x="318.12" y="-264.32" font-family="arial" font-size="14.00">W1</text>
<polygon fill="none" stroke="black" points="230.75,-234.12 230.75,-257.88 253,-257.88 253,-234.12 230.75,-234.12"/>
<text text-anchor="start" x="234.75" y="-240.57" font-family="arial" font-size="14.00">6x</text>
<polygon fill="none" stroke="black" points="253,-234.12 253,-257.88 384,-257.88 384,-234.12 253,-234.12"/>
<text text-anchor="start" x="257" y="-240.57" font-family="arial" font-size="14.00">0.25 mm² (24 AWG)</text>
<polygon fill="none" stroke="black" points="384,-234.12 384,-257.88 426.5,-257.88 426.5,-234.12 384,-234.12"/>
<text text-anchor="start" x="388" y="-240.57" font-family="arial" font-size="14.00">0.2 m</text>
<text text-anchor="start" x="253.17" y="-218.82" font-family="arial" font-size="14.00"> </text>
<text text-anchor="start" x="303.88" y="-199.82" font-family="arial" font-size="14.00"> &#160;&#160;&#160;&#160;BN &#160;&#160;&#160;</text>
<polygon fill="#000000" stroke="none" points="230.75,-194.12 230.75,-196.12 426.5,-196.12 426.5,-194.12 230.75,-194.12"/>
<polygon fill="#895956" stroke="none" points="230.75,-192.12 230.75,-194.12 426.5,-194.12 426.5,-192.12 230.75,-192.12"/>
<polygon fill="#000000" stroke="none" points="230.75,-190.12 230.75,-192.12 426.5,-192.12 426.5,-190.12 230.75,-190.12"/>
<text text-anchor="start" x="303.5" y="-174.82" font-family="arial" font-size="14.00"> &#160;&#160;&#160;&#160;RD &#160;&#160;&#160;</text>
<polygon fill="#000000" stroke="none" points="230.75,-169.12 230.75,-171.12 426.5,-171.12 426.5,-169.12 230.75,-169.12"/>
<polygon fill="#ff0000" stroke="none" points="230.75,-167.12 230.75,-169.12 426.5,-169.12 426.5,-167.12 230.75,-167.12"/>
<polygon fill="#000000" stroke="none" points="230.75,-165.12 230.75,-167.12 426.5,-167.12 426.5,-165.12 230.75,-165.12"/>
<text text-anchor="start" x="302" y="-149.82" font-family="arial" font-size="14.00"> &#160;&#160;&#160;&#160;OG &#160;&#160;&#160;</text>
<polygon fill="#000000" stroke="none" points="230.75,-144.12 230.75,-146.12 426.5,-146.12 426.5,-144.12 230.75,-144.12"/>
<polygon fill="#ff8000" stroke="none" points="230.75,-142.12 230.75,-144.12 426.5,-144.12 426.5,-142.12 230.75,-142.12"/>
<polygon fill="#000000" stroke="none" points="230.75,-140.12 230.75,-142.12 426.5,-142.12 426.5,-140.12 230.75,-140.12"/>
<text text-anchor="start" x="304.25" y="-124.83" font-family="arial" font-size="14.00"> &#160;&#160;&#160;&#160;YE &#160;&#160;&#160;</text>
<polygon fill="#000000" stroke="none" points="230.75,-119.12 230.75,-121.12 426.5,-121.12 426.5,-119.12 230.75,-119.12"/>
<polygon fill="#ffff00" stroke="none" points="230.75,-117.12 230.75,-119.12 426.5,-119.12 426.5,-117.12 230.75,-117.12"/>
<polygon fill="#000000" stroke="none" points="230.75,-115.12 230.75,-117.12 426.5,-117.12 426.5,-115.12 230.75,-115.12"/>
<text text-anchor="start" x="302.75" y="-99.83" font-family="arial" font-size="14.00"> &#160;&#160;&#160;&#160;GN &#160;&#160;&#160;</text>
<polygon fill="#000000" stroke="none" points="230.75,-94.12 230.75,-96.12 426.5,-96.12 426.5,-94.12 230.75,-94.12"/>
<polygon fill="#00ff00" stroke="none" points="230.75,-92.12 230.75,-94.12 426.5,-94.12 426.5,-92.12 230.75,-92.12"/>
<polygon fill="#000000" stroke="none" points="230.75,-90.12 230.75,-92.12 426.5,-92.12 426.5,-90.12 230.75,-90.12"/>
<text text-anchor="start" x="303.88" y="-74.83" font-family="arial" font-size="14.00"> &#160;&#160;&#160;&#160;BU &#160;&#160;&#160;</text>
<polygon fill="#000000" stroke="none" points="230.75,-69.12 230.75,-71.12 426.5,-71.12 426.5,-69.12 230.75,-69.12"/>
<polygon fill="#0066ff" stroke="none" points="230.75,-67.12 230.75,-69.12 426.5,-69.12 426.5,-67.12 230.75,-67.12"/>
<polygon fill="#000000" stroke="none" points="230.75,-65.12 230.75,-67.12 426.5,-67.12 426.5,-65.12 230.75,-65.12"/>
<text text-anchor="start" x="253.17" y="-49.83" font-family="arial" font-size="14.00"> </text>
</g>
<!-- __F_1&#45;&#45;W1 -->
<g id="edge1" class="edge">
<title>__F_1:e&#45;&#45;W1:w</title>
<path fill="none" stroke="#000000" stroke-width="2" d="M86.75,-249.88C153.88,-251.68 159.64,-192.93 230.75,-191.13"/>
<path fill="none" stroke="#895956" stroke-width="2" d="M86.75,-251.88C155.87,-251.88 161.63,-193.13 230.75,-193.12"/>
<path fill="none" stroke="#000000" stroke-width="2" d="M86.75,-253.87C157.86,-252.07 163.62,-193.32 230.75,-195.12"/>
</g>
<!-- __F_2 -->
<g id="node2" class="node">
<title>__F_2</title>
<polygon fill="#ffffff" stroke="black" points="86.75,-215.75 0,-215.75 0,-192 86.75,-192 86.75,-215.75"/>
<polygon fill="none" stroke="black" points="0,-192 0,-215.75 86.75,-215.75 86.75,-192 0,-192"/>
<text text-anchor="start" x="4" y="-198.45" font-family="arial" font-size="14.00">Crimp ferrule</text>
</g>
<!-- __F_2&#45;&#45;W1 -->
<g id="edge3" class="edge">
<title>__F_2:e&#45;&#45;W1:w</title>
<path fill="none" stroke="#000000" stroke-width="2" d="M86.75,-201.88C150.8,-203.23 162.91,-167.48 230.75,-166.13"/>
<path fill="none" stroke="#ff0000" stroke-width="2" d="M86.75,-203.88C152.69,-203.88 164.81,-168.12 230.75,-168.12"/>
<path fill="none" stroke="#000000" stroke-width="2" d="M86.75,-205.87C154.59,-204.52 166.7,-168.77 230.75,-170.12"/>
</g>
<!-- __F_3 -->
<g id="node3" class="node">
<title>__F_3</title>
<polygon fill="#ffffff" stroke="black" points="86.75,-167.75 0,-167.75 0,-144 86.75,-144 86.75,-167.75"/>
<polygon fill="none" stroke="black" points="0,-144 0,-167.75 86.75,-167.75 86.75,-144 0,-144"/>
<text text-anchor="start" x="4" y="-150.45" font-family="arial" font-size="14.00">Crimp ferrule</text>
</g>
<!-- __F_3&#45;&#45;W1 -->
<g id="edge5" class="edge">
<title>__F_3:e&#45;&#45;W1:w</title>
<path fill="none" stroke="#000000" stroke-width="2" d="M86.75,-153.88C149.73,-154.33 165.23,-141.58 230.75,-141.13"/>
<path fill="none" stroke="#ff8000" stroke-width="2" d="M86.75,-155.87C151,-155.87 166.5,-143.12 230.75,-143.12"/>
<path fill="none" stroke="#000000" stroke-width="2" d="M86.75,-157.87C152.27,-157.42 167.77,-144.67 230.75,-145.12"/>
</g>
<!-- __F_4 -->
<g id="node4" class="node">
<title>__F_4</title>
<polygon fill="#ffffff" stroke="black" points="86.75,-119.75 0,-119.75 0,-96 86.75,-96 86.75,-119.75"/>
<polygon fill="none" stroke="black" points="0,-96 0,-119.75 86.75,-119.75 86.75,-96 0,-96"/>
<text text-anchor="start" x="4" y="-102.45" font-family="arial" font-size="14.00">Crimp ferrule</text>
</g>
<!-- __F_4&#45;&#45;W1 -->
<g id="edge7" class="edge">
<title>__F_4:e&#45;&#45;W1:w</title>
<path fill="none" stroke="#000000" stroke-width="2" d="M86.75,-105.88C152.01,-106.2 167.68,-116.45 230.75,-116.13"/>
<path fill="none" stroke="#ffff00" stroke-width="2" d="M86.75,-107.88C150.91,-107.88 166.59,-118.12 230.75,-118.13"/>
<path fill="none" stroke="#000000" stroke-width="2" d="M86.75,-109.87C149.82,-109.55 165.49,-119.8 230.75,-120.12"/>
</g>
<!-- __F_5 -->
<g id="node5" class="node">
<title>__F_5</title>
<polygon fill="#ffffff" stroke="black" points="86.75,-71.75 0,-71.75 0,-48 86.75,-48 86.75,-71.75"/>
<polygon fill="none" stroke="black" points="0,-48 0,-71.75 86.75,-71.75 86.75,-48 0,-48"/>
<text text-anchor="start" x="4" y="-54.45" font-family="arial" font-size="14.00">Crimp ferrule</text>
</g>
<!-- __F_5&#45;&#45;W1 -->
<g id="edge9" class="edge">
<title>__F_5:e&#45;&#45;W1:w</title>
<path fill="none" stroke="#000000" stroke-width="2" d="M86.75,-57.88C154.3,-59.16 166.94,-92.41 230.75,-91.13"/>
<path fill="none" stroke="#00ff00" stroke-width="2" d="M86.75,-59.88C152.43,-59.88 165.07,-93.13 230.75,-93.12"/>
<path fill="none" stroke="#000000" stroke-width="2" d="M86.75,-61.87C150.56,-60.59 163.2,-93.84 230.75,-95.12"/>
</g>
<!-- __F_6 -->
<g id="node6" class="node">
<title>__F_6</title>
<polygon fill="#ffffff" stroke="black" points="86.75,-23.75 0,-23.75 0,0 86.75,0 86.75,-23.75"/>
<polygon fill="none" stroke="black" points="0,0 0,-23.75 86.75,-23.75 86.75,0 0,0"/>
<text text-anchor="start" x="4" y="-6.45" font-family="arial" font-size="14.00">Crimp ferrule</text>
</g>
<!-- __F_6&#45;&#45;W1 -->
<g id="edge11" class="edge">
<title>__F_6:e&#45;&#45;W1:w</title>
<path fill="none" stroke="#000000" stroke-width="2" d="M86.75,-9.88C157.45,-11.64 164.03,-67.89 230.75,-66.13"/>
<path fill="none" stroke="#0066ff" stroke-width="2" d="M86.75,-11.88C155.46,-11.88 162.04,-68.12 230.75,-68.13"/>
<path fill="none" stroke="#000000" stroke-width="2" d="M86.75,-13.87C153.47,-12.11 160.05,-68.36 230.75,-70.12"/>
</g>
<!-- __F_7 -->
<g id="node7" class="node">
<title>__F_7</title>
<polygon fill="#ffffff" stroke="black" points="657.25,-263.75 570.5,-263.75 570.5,-240 657.25,-240 657.25,-263.75"/>
<polygon fill="none" stroke="black" points="570.5,-240 570.5,-263.75 657.25,-263.75 657.25,-240 570.5,-240"/>
<text text-anchor="start" x="574.5" y="-246.45" font-family="arial" font-size="14.00">Crimp ferrule</text>
</g>
<!-- __F_8 -->
<g id="node8" class="node">
<title>__F_8</title>
<polygon fill="#ffffff" stroke="black" points="657.25,-215.75 570.5,-215.75 570.5,-192 657.25,-192 657.25,-215.75"/>
<polygon fill="none" stroke="black" points="570.5,-192 570.5,-215.75 657.25,-215.75 657.25,-192 570.5,-192"/>
<text text-anchor="start" x="574.5" y="-198.45" font-family="arial" font-size="14.00">Crimp ferrule</text>
</g>
<!-- __F_9 -->
<g id="node9" class="node">
<title>__F_9</title>
<polygon fill="#ffffff" stroke="black" points="657.25,-167.75 570.5,-167.75 570.5,-144 657.25,-144 657.25,-167.75"/>
<polygon fill="none" stroke="black" points="570.5,-144 570.5,-167.75 657.25,-167.75 657.25,-144 570.5,-144"/>
<text text-anchor="start" x="574.5" y="-150.45" font-family="arial" font-size="14.00">Crimp ferrule</text>
</g>
<!-- __F_10 -->
<g id="node10" class="node">
<title>__F_10</title>
<polygon fill="#ffffff" stroke="black" points="657.25,-119.75 570.5,-119.75 570.5,-96 657.25,-96 657.25,-119.75"/>
<polygon fill="none" stroke="black" points="570.5,-96 570.5,-119.75 657.25,-119.75 657.25,-96 570.5,-96"/>
<text text-anchor="start" x="574.5" y="-102.45" font-family="arial" font-size="14.00">Crimp ferrule</text>
</g>
<!-- __F_11 -->
<g id="node11" class="node">
<title>__F_11</title>
<polygon fill="#ffffff" stroke="black" points="657.25,-71.75 570.5,-71.75 570.5,-48 657.25,-48 657.25,-71.75"/>
<polygon fill="none" stroke="black" points="570.5,-48 570.5,-71.75 657.25,-71.75 657.25,-48 570.5,-48"/>
<text text-anchor="start" x="574.5" y="-54.45" font-family="arial" font-size="14.00">Crimp ferrule</text>
</g>
<!-- __F_12 -->
<g id="node12" class="node">
<title>__F_12</title>
<polygon fill="#ffffff" stroke="black" points="657.25,-23.75 570.5,-23.75 570.5,0 657.25,0 657.25,-23.75"/>
<polygon fill="none" stroke="black" points="570.5,0 570.5,-23.75 657.25,-23.75 657.25,0 570.5,0"/>
<text text-anchor="start" x="574.5" y="-6.45" font-family="arial" font-size="14.00">Crimp ferrule</text>
</g>
<!-- W1&#45;&#45;__F_7 -->
<g id="edge2" class="edge">
<title>W1:e&#45;&#45;__F_7:w</title>
<path fill="none" stroke="#000000" stroke-width="2" d="M426.5,-191.13C497.61,-192.93 503.37,-251.68 570.5,-249.88"/>
<path fill="none" stroke="#895956" stroke-width="2" d="M426.5,-193.12C495.62,-193.13 501.38,-251.88 570.5,-251.88"/>
<path fill="none" stroke="#000000" stroke-width="2" d="M426.5,-195.12C493.63,-193.32 499.39,-252.07 570.5,-253.87"/>
</g>
<!-- W1&#45;&#45;__F_8 -->
<g id="edge4" class="edge">
<title>W1:e&#45;&#45;__F_8:w</title>
<path fill="none" stroke="#000000" stroke-width="2" d="M426.5,-166.13C494.34,-167.48 506.45,-203.23 570.5,-201.88"/>
<path fill="none" stroke="#ff0000" stroke-width="2" d="M426.5,-168.12C492.44,-168.12 504.56,-203.88 570.5,-203.88"/>
<path fill="none" stroke="#000000" stroke-width="2" d="M426.5,-170.12C490.55,-168.77 502.66,-204.52 570.5,-205.87"/>
</g>
<!-- W1&#45;&#45;__F_9 -->
<g id="edge6" class="edge">
<title>W1:e&#45;&#45;__F_9:w</title>
<path fill="none" stroke="#000000" stroke-width="2" d="M426.5,-141.13C492.02,-141.58 507.52,-154.33 570.5,-153.88"/>
<path fill="none" stroke="#ff8000" stroke-width="2" d="M426.5,-143.12C490.75,-143.12 506.25,-155.87 570.5,-155.87"/>
<path fill="none" stroke="#000000" stroke-width="2" d="M426.5,-145.12C489.48,-144.67 504.98,-157.42 570.5,-157.87"/>
</g>
<!-- W1&#45;&#45;__F_10 -->
<g id="edge8" class="edge">
<title>W1:e&#45;&#45;__F_10:w</title>
<path fill="none" stroke="#000000" stroke-width="2" d="M426.5,-116.13C489.57,-116.45 505.24,-106.2 570.5,-105.88"/>
<path fill="none" stroke="#ffff00" stroke-width="2" d="M426.5,-118.13C490.66,-118.12 506.34,-107.88 570.5,-107.88"/>
<path fill="none" stroke="#000000" stroke-width="2" d="M426.5,-120.12C491.76,-119.8 507.43,-109.55 570.5,-109.87"/>
</g>
<!-- W1&#45;&#45;__F_11 -->
<g id="edge10" class="edge">
<title>W1:e&#45;&#45;__F_11:w</title>
<path fill="none" stroke="#000000" stroke-width="2" d="M426.5,-91.13C490.31,-92.41 502.95,-59.16 570.5,-57.88"/>
<path fill="none" stroke="#00ff00" stroke-width="2" d="M426.5,-93.12C492.18,-93.13 504.82,-59.88 570.5,-59.88"/>
<path fill="none" stroke="#000000" stroke-width="2" d="M426.5,-95.12C494.05,-93.84 506.69,-60.59 570.5,-61.87"/>
</g>
<!-- W1&#45;&#45;__F_12 -->
<g id="edge12" class="edge">
<title>W1:e&#45;&#45;__F_12:w</title>
<path fill="none" stroke="#000000" stroke-width="2" d="M426.5,-66.13C493.22,-67.89 499.8,-11.64 570.5,-9.88"/>
<path fill="none" stroke="#0066ff" stroke-width="2" d="M426.5,-68.13C495.21,-68.12 501.79,-11.88 570.5,-11.88"/>
<path fill="none" stroke="#000000" stroke-width="2" d="M426.5,-70.12C497.2,-68.36 503.78,-12.11 570.5,-13.87"/>
</g>
</g>
</svg>
