<?xml version="1.0" encoding="UTF-8" standalone="no"?>
<!DOCTYPE svg PUBLIC "-//W3C//DTD SVG 1.1//EN"
 "http://www.w3.org/Graphics/SVG/1.1/DTD/svg11.dtd">
<!-- Generated by graphviz version 12.1.2 (0)
 -->
<!-- Title: graph Pages: 1 -->
<svg width="1502pt" height="194pt"
 viewBox="0.00 0.00 1502.00 193.50" xmlns="http://www.w3.org/2000/svg" xmlns:xlink="http://www.w3.org/1999/xlink">
<g id="graph0" class="graph" transform="scale(1 1) rotate(0) translate(4 189.5)">
<title>graph</title>
<polygon fill="#ffffff" stroke="none" points="-4,4 -4,-189.5 1498,-189.5 1498,4 -4,4"/>
<!-- X1 -->
<g id="node1" class="node">
<title>X1</title>
<polygon fill="#ffffff" stroke="black" points="180,-153.5 0,-153.5 0,-14 180,-14 180,-153.5"/>
<polygon fill="none" stroke="black" points="0,-129.75 0,-153.5 180,-153.5 180,-129.75 0,-129.75"/>
<text text-anchor="start" x="81.75" y="-136.2" font-family="arial" font-size="14.00">X1</text>
<polygon fill="none" stroke="black" points="0,-106 0,-129.75 92.75,-129.75 92.75,-106 0,-106"/>
<text text-anchor="start" x="4" y="-112.45" font-family="arial" font-size="14.00">Molex KK 254</text>
<polygon fill="none" stroke="black" points="92.75,-106 92.75,-129.75 142,-129.75 142,-106 92.75,-106"/>
<text text-anchor="start" x="96.75" y="-112.45" font-family="arial" font-size="14.00">female</text>
<polygon fill="none" stroke="black" points="142,-106 142,-129.75 180,-129.75 180,-106 142,-106"/>
<text text-anchor="start" x="146" y="-112.45" font-family="arial" font-size="14.00">4&#45;pin</text>
<polygon fill="none" stroke="black" points="0,-83 0,-106 101.5,-106 101.5,-83 0,-83"/>
<text text-anchor="start" x="35.38" y="-88.7" font-family="arial" font-size="14.00">GND</text>
<polygon fill="none" stroke="black" points="101.5,-83 101.5,-106 180,-106 180,-83 101.5,-83"/>
<text text-anchor="start" x="137" y="-88.7" font-family="arial" font-size="14.00">1</text>
<polygon fill="none" stroke="black" points="0,-60 0,-83 101.5,-83 101.5,-60 0,-60"/>
<text text-anchor="start" x="36.5" y="-65.7" font-family="arial" font-size="14.00">VCC</text>
<polygon fill="none" stroke="black" points="101.5,-60 101.5,-83 180,-83 180,-60 101.5,-60"/>
<text text-anchor="start" x="137" y="-65.7" font-family="arial" font-size="14.00">2</text>
<polygon fill="none" stroke="black" points="0,-37 0,-60 101.5,-60 101.5,-37 0,-37"/>
<text text-anchor="start" x="37.62" y="-42.7" font-family="arial" font-size="14.00">SCL</text>
<polygon fill="none" stroke="black" points="101.5,-37 101.5,-60 180,-60 180,-37 101.5,-37"/>
<text text-anchor="start" x="137" y="-42.7" font-family="arial" font-size="14.00">3</text>
<polygon fill="none" stroke="black" points="0,-14 0,-37 101.5,-37 101.5,-14 0,-14"/>
<text text-anchor="start" x="36.88" y="-19.7" font-family="arial" font-size="14.00">SDA</text>
<polygon fill="none" stroke="black" points="101.5,-14 101.5,-37 180,-37 180,-14 101.5,-14"/>
<text text-anchor="start" x="137" y="-19.7" font-family="arial" font-size="14.00">4</text>
</g>
<!-- W1 -->
<g id="node4" class="node">
<title>W1</title>
<polygon fill="#ffffff" stroke="black" stroke-dasharray="5,2" points="513,-185.5 324,-185.5 324,0 513,0 513,-185.5"/>
<polygon fill="none" stroke="black" points="324,-161.75 324,-185.5 513,-185.5 513,-161.75 324,-161.75"/>
<text text-anchor="start" x="408" y="-168.2" font-family="arial" font-size="14.00">W1</text>
<polygon fill="none" stroke="black" points="324,-138 324,-161.75 360.19,-161.75 360.19,-138 324,-138"/>
<text text-anchor="start" x="331.59" y="-144.45" font-family="arial" font-size="14.00">I2C</text>
<polygon fill="none" stroke="black" points="360.19,-138 360.19,-161.75 389.62,-161.75 389.62,-138 360.19,-138"/>
<text text-anchor="start" x="367.78" y="-144.45" font-family="arial" font-size="14.00">4x</text>
<polygon fill="none" stroke="black" points="389.62,-138 389.62,-161.75 463.31,-161.75 463.31,-138 389.62,-138"/>
<text text-anchor="start" x="397.22" y="-144.45" font-family="arial" font-size="14.00">0.25 mm²</text>
<polygon fill="none" stroke="black" points="463.31,-138 463.31,-161.75 513,-161.75 513,-138 463.31,-138"/>
<text text-anchor="start" x="470.91" y="-144.45" font-family="arial" font-size="14.00">0.2 m</text>
<text text-anchor="start" x="355.12" y="-122.7" font-family="arial" font-size="14.00"> </text>
<text text-anchor="start" x="325.88" y="-103.7" font-family="arial" font-size="14.00">X1:1:GND</text>
<text text-anchor="start" x="392.62" y="-103.7" font-family="arial" font-size="14.00"> &#160;&#160;&#160;&#160;PK &#160;&#160;&#160;</text>
<text text-anchor="start" x="448.88" y="-103.7" font-family="arial" font-size="14.00">X2:1:GND</text>
<polygon fill="#000000" stroke="none" points="324,-98 324,-100 513,-100 513,-98 324,-98"/>
<polygon fill="#ff66cc" stroke="none" points="324,-96 324,-98 513,-98 513,-96 324,-96"/>
<polygon fill="#000000" stroke="none" points="324,-94 324,-96 513,-96 513,-94 324,-94"/>
<text text-anchor="start" x="327" y="-78.7" font-family="arial" font-size="14.00">X1:2:VCC</text>
<text text-anchor="start" x="391.88" y="-78.7" font-family="arial" font-size="14.00"> &#160;&#160;&#160;&#160;TQ &#160;&#160;&#160;</text>
<text text-anchor="start" x="450" y="-78.7" font-family="arial" font-size="14.00">X2:2:VCC</text>
<polygon fill="#000000" stroke="none" points="324,-73 324,-75 513,-75 513,-73 324,-73"/>
<polygon fill="#00ffff" stroke="none" points="324,-71 324,-73 513,-73 513,-71 324,-71"/>
<polygon fill="#000000" stroke="none" points="324,-69 324,-71 513,-71 513,-69 324,-69"/>
<text text-anchor="start" x="328.12" y="-53.7" font-family="arial" font-size="14.00">X1:3:SCL</text>
<text text-anchor="start" x="392.62" y="-53.7" font-family="arial" font-size="14.00"> &#160;&#160;&#160;&#160;YE &#160;&#160;&#160;</text>
<text text-anchor="start" x="451.12" y="-53.7" font-family="arial" font-size="14.00">X2:3:SCL</text>
<polygon fill="#000000" stroke="none" points="324,-48 324,-50 513,-50 513,-48 324,-48"/>
<polygon fill="#ffff00" stroke="none" points="324,-46 324,-48 513,-48 513,-46 324,-46"/>
<polygon fill="#000000" stroke="none" points="324,-44 324,-46 513,-46 513,-44 324,-44"/>
<text text-anchor="start" x="327.38" y="-28.7" font-family="arial" font-size="14.00">X1:4:SDA</text>
<text text-anchor="start" x="393" y="-28.7" font-family="arial" font-size="14.00"> &#160;&#160;&#160;&#160;VT &#160;&#160;&#160;</text>
<text text-anchor="start" x="450.38" y="-28.7" font-family="arial" font-size="14.00">X2:4:SDA</text>
<polygon fill="#000000" stroke="none" points="324,-23 324,-25 513,-25 513,-23 324,-23"/>
<polygon fill="#8000ff" stroke="none" points="324,-21 324,-23 513,-23 513,-21 324,-21"/>
<polygon fill="#000000" stroke="none" points="324,-19 324,-21 513,-21 513,-19 324,-19"/>
<text text-anchor="start" x="355.12" y="-3.7" font-family="arial" font-size="14.00"> </text>
</g>
<!-- X1&#45;&#45;W1 -->
<g id="edge1" class="edge">
<title>X1:e&#45;&#45;W1:w</title>
<path fill="none" stroke="#000000" stroke-width="2" d="M180,-92.5C244.32,-92.52 260.3,-95.02 324,-95"/>
<path fill="none" stroke="#ff66cc" stroke-width="2" d="M180,-94.5C244.01,-94.5 259.99,-97 324,-97"/>
<path fill="none" stroke="#000000" stroke-width="2" d="M180,-96.5C243.7,-96.48 259.68,-98.98 324,-99"/>
</g>
<!-- X1&#45;&#45;W1 -->
<g id="edge3" class="edge">
<title>X1:e&#45;&#45;W1:w</title>
<path fill="none" stroke="#000000" stroke-width="2" d="M180,-69.5C244.06,-69.5 260.06,-70 324,-70"/>
<path fill="none" stroke="#00ffff" stroke-width="2" d="M180,-71.5C244,-71.5 260,-72 324,-72"/>
<path fill="none" stroke="#000000" stroke-width="2" d="M180,-73.5C243.94,-73.5 259.94,-74 324,-74"/>
</g>
<!-- X1&#45;&#45;W1 -->
<g id="edge5" class="edge">
<title>X1:e&#45;&#45;W1:w</title>
<path fill="none" stroke="#000000" stroke-width="2" d="M180,-46.5C243.82,-46.51 259.81,-45.01 324,-45"/>
<path fill="none" stroke="#ffff00" stroke-width="2" d="M180,-48.5C244,-48.5 260,-47 324,-47"/>
<path fill="none" stroke="#000000" stroke-width="2" d="M180,-50.5C244.19,-50.49 260.18,-48.99 324,-49"/>
</g>
<!-- X1&#45;&#45;W1 -->
<g id="edge7" class="edge">
<title>X1:e&#45;&#45;W1:w</title>
<path fill="none" stroke="#000000" stroke-width="2" d="M180,-23.5C243.59,-23.55 259.55,-20.05 324,-20"/>
<path fill="none" stroke="#8000ff" stroke-width="2" d="M180,-25.5C244.02,-25.5 259.98,-22 324,-22"/>
<path fill="none" stroke="#000000" stroke-width="2" d="M180,-27.5C244.45,-27.45 260.41,-23.95 324,-24"/>
</g>
<!-- X2 -->
<g id="node2" class="node">
<title>X2</title>
<polygon fill="#ffffff" stroke="black" points="837,-153.5 657,-153.5 657,-14 837,-14 837,-153.5"/>
<polygon fill="none" stroke="black" points="657,-129.75 657,-153.5 837,-153.5 837,-129.75 657,-129.75"/>
<text text-anchor="start" x="738.75" y="-136.2" font-family="arial" font-size="14.00">X2</text>
<polygon fill="none" stroke="black" points="657,-106 657,-129.75 749.75,-129.75 749.75,-106 657,-106"/>
<text text-anchor="start" x="661" y="-112.45" font-family="arial" font-size="14.00">Molex KK 254</text>
<polygon fill="none" stroke="black" points="749.75,-106 749.75,-129.75 799,-129.75 799,-106 749.75,-106"/>
<text text-anchor="start" x="753.75" y="-112.45" font-family="arial" font-size="14.00">female</text>
<polygon fill="none" stroke="black" points="799,-106 799,-129.75 837,-129.75 837,-106 799,-106"/>
<text text-anchor="start" x="803" y="-112.45" font-family="arial" font-size="14.00">4&#45;pin</text>
<polygon fill="none" stroke="black" points="657,-83 657,-106 709.33,-106 709.33,-83 657,-83"/>
<text text-anchor="start" x="679.42" y="-88.7" font-family="arial" font-size="14.00">1</text>
<polygon fill="none" stroke="black" points="709.33,-83 709.33,-106 784.67,-106 784.67,-83 709.33,-83"/>
<text text-anchor="start" x="731.62" y="-88.7" font-family="arial" font-size="14.00">GND</text>
<polygon fill="none" stroke="black" points="784.67,-83 784.67,-106 837,-106 837,-83 784.67,-83"/>
<text text-anchor="start" x="807.08" y="-88.7" font-family="arial" font-size="14.00">1</text>
<polygon fill="none" stroke="black" points="657,-60 657,-83 709.33,-83 709.33,-60 657,-60"/>
<text text-anchor="start" x="679.42" y="-65.7" font-family="arial" font-size="14.00">2</text>
<polygon fill="none" stroke="black" points="709.33,-60 709.33,-83 784.67,-83 784.67,-60 709.33,-60"/>
<text text-anchor="start" x="732.75" y="-65.7" font-family="arial" font-size="14.00">VCC</text>
<polygon fill="none" stroke="black" points="784.67,-60 784.67,-83 837,-83 837,-60 784.67,-60"/>
<text text-anchor="start" x="807.08" y="-65.7" font-family="arial" font-size="14.00">2</text>
<polygon fill="none" stroke="black" points="657,-37 657,-60 709.33,-60 709.33,-37 657,-37"/>
<text text-anchor="start" x="679.42" y="-42.7" font-family="arial" font-size="14.00">3</text>
<polygon fill="none" stroke="black" points="709.33,-37 709.33,-60 784.67,-60 784.67,-37 709.33,-37"/>
<text text-anchor="start" x="733.88" y="-42.7" font-family="arial" font-size="14.00">SCL</text>
<polygon fill="none" stroke="black" points="784.67,-37 784.67,-60 837,-60 837,-37 784.67,-37"/>
<text text-anchor="start" x="807.08" y="-42.7" font-family="arial" font-size="14.00">3</text>
<polygon fill="none" stroke="black" points="657,-14 657,-37 709.33,-37 709.33,-14 657,-14"/>
<text text-anchor="start" x="679.42" y="-19.7" font-family="arial" font-size="14.00">4</text>
<polygon fill="none" stroke="black" points="709.33,-14 709.33,-37 784.67,-37 784.67,-14 709.33,-14"/>
<text text-anchor="start" x="733.12" y="-19.7" font-family="arial" font-size="14.00">SDA</text>
<polygon fill="none" stroke="black" points="784.67,-14 784.67,-37 837,-37 837,-14 784.67,-14"/>
<text text-anchor="start" x="807.08" y="-19.7" font-family="arial" font-size="14.00">4</text>
</g>
<!-- W2 -->
<g id="node5" class="node">
<title>W2</title>
<polygon fill="#ffffff" stroke="black" stroke-dasharray="5,2" points="1170,-185.5 981,-185.5 981,0 1170,0 1170,-185.5"/>
<polygon fill="none" stroke="black" points="981,-161.75 981,-185.5 1170,-185.5 1170,-161.75 981,-161.75"/>
<text text-anchor="start" x="1065" y="-168.2" font-family="arial" font-size="14.00">W2</text>
<polygon fill="none" stroke="black" points="981,-138 981,-161.75 1017.19,-161.75 1017.19,-138 981,-138"/>
<text text-anchor="start" x="988.59" y="-144.45" font-family="arial" font-size="14.00">I2C</text>
<polygon fill="none" stroke="black" points="1017.19,-138 1017.19,-161.75 1046.62,-161.75 1046.62,-138 1017.19,-138"/>
<text text-anchor="start" x="1024.78" y="-144.45" font-family="arial" font-size="14.00">4x</text>
<polygon fill="none" stroke="black" points="1046.62,-138 1046.62,-161.75 1120.31,-161.75 1120.31,-138 1046.62,-138"/>
<text text-anchor="start" x="1054.22" y="-144.45" font-family="arial" font-size="14.00">0.25 mm²</text>
<polygon fill="none" stroke="black" points="1120.31,-138 1120.31,-161.75 1170,-161.75 1170,-138 1120.31,-138"/>
<text text-anchor="start" x="1127.91" y="-144.45" font-family="arial" font-size="14.00">0.2 m</text>
<text text-anchor="start" x="1012.12" y="-122.7" font-family="arial" font-size="14.00"> </text>
<text text-anchor="start" x="982.88" y="-103.7" font-family="arial" font-size="14.00">X2:1:GND</text>
<text text-anchor="start" x="1049.62" y="-103.7" font-family="arial" font-size="14.00"> &#160;&#160;&#160;&#160;PK &#160;&#160;&#160;</text>
<text text-anchor="start" x="1105.88" y="-103.7" font-family="arial" font-size="14.00">X3:1:GND</text>
<polygon fill="#000000" stroke="none" points="981,-98 981,-100 1170,-100 1170,-98 981,-98"/>
<polygon fill="#ff66cc" stroke="none" points="981,-96 981,-98 1170,-98 1170,-96 981,-96"/>
<polygon fill="#000000" stroke="none" points="981,-94 981,-96 1170,-96 1170,-94 981,-94"/>
<text text-anchor="start" x="984" y="-78.7" font-family="arial" font-size="14.00">X2:2:VCC</text>
<text text-anchor="start" x="1048.88" y="-78.7" font-family="arial" font-size="14.00"> &#160;&#160;&#160;&#160;TQ &#160;&#160;&#160;</text>
<text text-anchor="start" x="1107" y="-78.7" font-family="arial" font-size="14.00">X3:2:VCC</text>
<polygon fill="#000000" stroke="none" points="981,-73 981,-75 1170,-75 1170,-73 981,-73"/>
<polygon fill="#00ffff" stroke="none" points="981,-71 981,-73 1170,-73 1170,-71 981,-71"/>
<polygon fill="#000000" stroke="none" points="981,-69 981,-71 1170,-71 1170,-69 981,-69"/>
<text text-anchor="start" x="985.12" y="-53.7" font-family="arial" font-size="14.00">X2:3:SCL</text>
<text text-anchor="start" x="1049.62" y="-53.7" font-family="arial" font-size="14.00"> &#160;&#160;&#160;&#160;YE &#160;&#160;&#160;</text>
<text text-anchor="start" x="1108.12" y="-53.7" font-family="arial" font-size="14.00">X3:3:SCL</text>
<polygon fill="#000000" stroke="none" points="981,-48 981,-50 1170,-50 1170,-48 981,-48"/>
<polygon fill="#ffff00" stroke="none" points="981,-46 981,-48 1170,-48 1170,-46 981,-46"/>
<polygon fill="#000000" stroke="none" points="981,-44 981,-46 1170,-46 1170,-44 981,-44"/>
<text text-anchor="start" x="984.38" y="-28.7" font-family="arial" font-size="14.00">X2:4:SDA</text>
<text text-anchor="start" x="1050" y="-28.7" font-family="arial" font-size="14.00"> &#160;&#160;&#160;&#160;VT &#160;&#160;&#160;</text>
<text text-anchor="start" x="1107.38" y="-28.7" font-family="arial" font-size="14.00">X3:4:SDA</text>
<polygon fill="#000000" stroke="none" points="981,-23 981,-25 1170,-25 1170,-23 981,-23"/>
<polygon fill="#8000ff" stroke="none" points="981,-21 981,-23 1170,-23 1170,-21 981,-21"/>
<polygon fill="#000000" stroke="none" points="981,-19 981,-21 1170,-21 1170,-19 981,-19"/>
<text text-anchor="start" x="1012.12" y="-3.7" font-family="arial" font-size="14.00"> </text>
</g>
<!-- X2&#45;&#45;W2 -->
<g id="edge9" class="edge">
<title>X2:e&#45;&#45;W2:w</title>
<path fill="none" stroke="#000000" stroke-width="2" d="M837,-92.5C901.32,-92.52 917.3,-95.02 981,-95"/>
<path fill="none" stroke="#ff66cc" stroke-width="2" d="M837,-94.5C901.01,-94.5 916.99,-97 981,-97"/>
<path fill="none" stroke="#000000" stroke-width="2" d="M837,-96.5C900.7,-96.48 916.68,-98.98 981,-99"/>
</g>
<!-- X2&#45;&#45;W2 -->
<g id="edge11" class="edge">
<title>X2:e&#45;&#45;W2:w</title>
<path fill="none" stroke="#000000" stroke-width="2" d="M837,-69.5C901.06,-69.5 917.06,-70 981,-70"/>
<path fill="none" stroke="#00ffff" stroke-width="2" d="M837,-71.5C901,-71.5 917,-72 981,-72"/>
<path fill="none" stroke="#000000" stroke-width="2" d="M837,-73.5C900.94,-73.5 916.94,-74 981,-74"/>
</g>
<!-- X2&#45;&#45;W2 -->
<g id="edge13" class="edge">
<title>X2:e&#45;&#45;W2:w</title>
<path fill="none" stroke="#000000" stroke-width="2" d="M837,-46.5C900.82,-46.51 916.81,-45.01 981,-45"/>
<path fill="none" stroke="#ffff00" stroke-width="2" d="M837,-48.5C901,-48.5 917,-47 981,-47"/>
<path fill="none" stroke="#000000" stroke-width="2" d="M837,-50.5C901.19,-50.49 917.18,-48.99 981,-49"/>
</g>
<!-- X2&#45;&#45;W2 -->
<g id="edge15" class="edge">
<title>X2:e&#45;&#45;W2:w</title>
<path fill="none" stroke="#000000" stroke-width="2" d="M837,-23.5C900.59,-23.55 916.55,-20.05 981,-20"/>
<path fill="none" stroke="#8000ff" stroke-width="2" d="M837,-25.5C901.02,-25.5 916.98,-22 981,-22"/>
<path fill="none" stroke="#000000" stroke-width="2" d="M837,-27.5C901.45,-27.45 917.41,-23.95 981,-24"/>
</g>
<!-- X3 -->
<g id="node3" class="node">
<title>X3</title>
<polygon fill="#ffffff" stroke="black" points="1494,-153.5 1314,-153.5 1314,-14 1494,-14 1494,-153.5"/>
<polygon fill="none" stroke="black" points="1314,-129.75 1314,-153.5 1494,-153.5 1494,-129.75 1314,-129.75"/>
<text text-anchor="start" x="1395.75" y="-136.2" font-family="arial" font-size="14.00">X3</text>
<polygon fill="none" stroke="black" points="1314,-106 1314,-129.75 1406.75,-129.75 1406.75,-106 1314,-106"/>
<text text-anchor="start" x="1318" y="-112.45" font-family="arial" font-size="14.00">Molex KK 254</text>
<polygon fill="none" stroke="black" points="1406.75,-106 1406.75,-129.75 1456,-129.75 1456,-106 1406.75,-106"/>
<text text-anchor="start" x="1410.75" y="-112.45" font-family="arial" font-size="14.00">female</text>
<polygon fill="none" stroke="black" points="1456,-106 1456,-129.75 1494,-129.75 1494,-106 1456,-106"/>
<text text-anchor="start" x="1460" y="-112.45" font-family="arial" font-size="14.00">4&#45;pin</text>
<polygon fill="none" stroke="black" points="1314,-83 1314,-106 1392.5,-106 1392.5,-83 1314,-83"/>
<text text-anchor="start" x="1349.5" y="-88.7" font-family="arial" font-size="14.00">1</text>
<polygon fill="none" stroke="black" points="1392.5,-83 1392.5,-106 1494,-106 1494,-83 1392.5,-83"/>
<text text-anchor="start" x="1427.88" y="-88.7" font-family="arial" font-size="14.00">GND</text>
<polygon fill="none" stroke="black" points="1314,-60 1314,-83 1392.5,-83 1392.5,-60 1314,-60"/>
<text text-anchor="start" x="1349.5" y="-65.7" font-family="arial" font-size="14.00">2</text>
<polygon fill="none" stroke="black" points="1392.5,-60 1392.5,-83 1494,-83 1494,-60 1392.5,-60"/>
<text text-anchor="start" x="1429" y="-65.7" font-family="arial" font-size="14.00">VCC</text>
<polygon fill="none" stroke="black" points="1314,-37 1314,-60 1392.5,-60 1392.5,-37 1314,-37"/>
<text text-anchor="start" x="1349.5" y="-42.7" font-family="arial" font-size="14.00">3</text>
<polygon fill="none" stroke="black" points="1392.5,-37 1392.5,-60 1494,-60 1494,-37 1392.5,-37"/>
<text text-anchor="start" x="1430.12" y="-42.7" font-family="arial" font-size="14.00">SCL</text>
<polygon fill="none" stroke="black" points="1314,-14 1314,-37 1392.5,-37 1392.5,-14 1314,-14"/>
<text text-anchor="start" x="1349.5" y="-19.7" font-family="arial" font-size="14.00">4</text>
<polygon fill="none" stroke="black" points="1392.5,-14 1392.5,-37 1494,-37 1494,-14 1392.5,-14"/>
<text text-anchor="start" x="1429.38" y="-19.7" font-family="arial" font-size="14.00">SDA</text>
</g>
<!-- W1&#45;&#45;X2 -->
<g id="edge2" class="edge">
<title>W1:e&#45;&#45;X2:w</title>
<path fill="none" stroke="#000000" stroke-width="2" d="M513,-95C576.7,-95.02 592.68,-92.52 657,-92.5"/>
<path fill="none" stroke="#ff66cc" stroke-width="2" d="M513,-97C577.01,-97 592.99,-94.5 657,-94.5"/>
<path fill="none" stroke="#000000" stroke-width="2" d="M513,-99C577.32,-98.98 593.3,-96.48 657,-96.5"/>
</g>
<!-- W1&#45;&#45;X2 -->
<g id="edge4" class="edge">
<title>W1:e&#45;&#45;X2:w</title>
<path fill="none" stroke="#000000" stroke-width="2" d="M513,-70C576.94,-70 592.94,-69.5 657,-69.5"/>
<path fill="none" stroke="#00ffff" stroke-width="2" d="M513,-72C577,-72 593,-71.5 657,-71.5"/>
<path fill="none" stroke="#000000" stroke-width="2" d="M513,-74C577.06,-74 593.06,-73.5 657,-73.5"/>
</g>
<!-- W1&#45;&#45;X2 -->
<g id="edge6" class="edge">
<title>W1:e&#45;&#45;X2:w</title>
<path fill="none" stroke="#000000" stroke-width="2" d="M513,-45C577.19,-45.01 593.18,-46.51 657,-46.5"/>
<path fill="none" stroke="#ffff00" stroke-width="2" d="M513,-47C577,-47 593,-48.5 657,-48.5"/>
<path fill="none" stroke="#000000" stroke-width="2" d="M513,-49C576.82,-48.99 592.81,-50.49 657,-50.5"/>
</g>
<!-- W1&#45;&#45;X2 -->
<g id="edge8" class="edge">
<title>W1:e&#45;&#45;X2:w</title>
<path fill="none" stroke="#000000" stroke-width="2" d="M513,-20C577.45,-20.05 593.41,-23.55 657,-23.5"/>
<path fill="none" stroke="#8000ff" stroke-width="2" d="M513,-22C577.02,-22 592.98,-25.5 657,-25.5"/>
<path fill="none" stroke="#000000" stroke-width="2" d="M513,-24C576.59,-23.95 592.55,-27.45 657,-27.5"/>
</g>
<!-- W2&#45;&#45;X3 -->
<g id="edge10" class="edge">
<title>W2:e&#45;&#45;X3:w</title>
<path fill="none" stroke="#000000" stroke-width="2" d="M1170,-95C1233.7,-95.02 1249.68,-92.52 1314,-92.5"/>
<path fill="none" stroke="#ff66cc" stroke-width="2" d="M1170,-97C1234.01,-97 1249.99,-94.5 1314,-94.5"/>
<path fill="none" stroke="#000000" stroke-width="2" d="M1170,-99C1234.32,-98.98 1250.3,-96.48 1314,-96.5"/>
</g>
<!-- W2&#45;&#45;X3 -->
<g id="edge12" class="edge">
<title>W2:e&#45;&#45;X3:w</title>
<path fill="none" stroke="#000000" stroke-width="2" d="M1170,-70C1233.94,-70 1249.94,-69.5 1314,-69.5"/>
<path fill="none" stroke="#00ffff" stroke-width="2" d="M1170,-72C1234,-72 1250,-71.5 1314,-71.5"/>
<path fill="none" stroke="#000000" stroke-width="2" d="M1170,-74C1234.06,-74 1250.06,-73.5 1314,-73.5"/>
</g>
<!-- W2&#45;&#45;X3 -->
<g id="edge14" class="edge">
<title>W2:e&#45;&#45;X3:w</title>
<path fill="none" stroke="#000000" stroke-width="2" d="M1170,-45C1234.19,-45.01 1250.18,-46.51 1314,-46.5"/>
<path fill="none" stroke="#ffff00" stroke-width="2" d="M1170,-47C1234,-47 1250,-48.5 1314,-48.5"/>
<path fill="none" stroke="#000000" stroke-width="2" d="M1170,-49C1233.82,-48.99 1249.81,-50.49 1314,-50.5"/>
</g>
<!-- W2&#45;&#45;X3 -->
<g id="edge16" class="edge">
<title>W2:e&#45;&#45;X3:w</title>
<path fill="none" stroke="#000000" stroke-width="2" d="M1170,-20C1234.45,-20.05 1250.41,-23.55 1314,-23.5"/>
<path fill="none" stroke="#8000ff" stroke-width="2" d="M1170,-22C1234.02,-22 1249.98,-25.5 1314,-25.5"/>
<path fill="none" stroke="#000000" stroke-width="2" d="M1170,-24C1233.59,-23.95 1249.55,-27.45 1314,-27.5"/>
</g>
</g>
</svg>
