<?xml version="1.0" encoding="UTF-8" standalone="no"?>
<!DOCTYPE svg PUBLIC "-//W3C//DTD SVG 1.1//EN"
 "http://www.w3.org/Graphics/SVG/1.1/DTD/svg11.dtd">
<!-- Generated by graphviz version 12.1.2 (0)
 -->
<!-- Title: graph Pages: 1 -->
<svg width="837pt" height="156pt"
 viewBox="0.00 0.00 837.00 156.12" xmlns="http://www.w3.org/2000/svg" xmlns:xlink="http://www.w3.org/1999/xlink">
<g id="graph0" class="graph" transform="scale(1 1) rotate(0) translate(4 152.12)">
<title>graph</title>
<polygon fill="#ffffff" stroke="none" points="-4,4 -4,-152.12 833,-152.12 833,4 -4,4"/>
<!-- X1 -->
<g id="node1" class="node">
<title>X1</title>
<polygon fill="#ffffff" stroke="black" points="204.5,-118.75 0,-118.75 0,0 204.5,0 204.5,-118.75"/>
<polygon fill="none" stroke="black" points="0,-95 0,-118.75 204.5,-118.75 204.5,-95 0,-95"/>
<text text-anchor="start" x="94" y="-101.45" font-family="arial" font-size="14.00">X1</text>
<polygon fill="none" stroke="black" points="0,-71.25 0,-95 93.92,-95 93.92,-71.25 0,-71.25"/>
<text text-anchor="start" x="7.96" y="-77.7" font-family="arial" font-size="14.00">TE 776164&#45;1</text>
<polygon fill="none" stroke="black" points="93.92,-71.25 93.92,-95 151.08,-95 151.08,-71.25 93.92,-71.25"/>
<text text-anchor="start" x="101.88" y="-77.7" font-family="arial" font-size="14.00">female</text>
<polygon fill="none" stroke="black" points="151.08,-71.25 151.08,-95 204.5,-95 204.5,-71.25 151.08,-71.25"/>
<text text-anchor="start" x="159.04" y="-77.7" font-family="arial" font-size="14.00">35&#45;pin</text>
<polygon fill="none" stroke="black" points="0,-47.5 0,-71.25 204.5,-71.25 204.5,-47.5 0,-47.5"/>
<text text-anchor="start" x="98.5" y="-53.95" font-family="arial" font-size="14.00">5</text>
<polygon fill="none" stroke="black" points="0,-23.75 0,-47.5 204.5,-47.5 204.5,-23.75 0,-23.75"/>
<text text-anchor="start" x="98.5" y="-30.2" font-family="arial" font-size="14.00">6</text>
<polygon fill="none" stroke="black" points="0,0 0,-23.75 204.5,-23.75 204.5,0 0,0"/>
<text text-anchor="start" x="4" y="-6.45" font-family="arial" font-size="14.00">Unconnected pins are not shown</text>
</g>
<!-- C1 -->
<g id="node3" class="node">
<title>C1</title>
<polygon fill="#ffffff" stroke="black" points="480.5,-148.12 348.5,-148.12 348.5,-12.62 480.5,-12.62 480.5,-148.12"/>
<polygon fill="none" stroke="black" points="348.5,-124.38 348.5,-148.12 480.5,-148.12 480.5,-124.38 348.5,-124.38"/>
<text text-anchor="start" x="405.88" y="-130.82" font-family="arial" font-size="14.00">C1</text>
<polygon fill="none" stroke="black" points="348.5,-100.62 348.5,-124.38 377,-124.38 377,-100.62 348.5,-100.62"/>
<text text-anchor="start" x="355.62" y="-107.08" font-family="arial" font-size="14.00">2x</text>
<polygon fill="none" stroke="black" points="377,-100.62 377,-124.38 443,-124.38 443,-100.62 377,-100.62"/>
<text text-anchor="start" x="384.12" y="-107.08" font-family="arial" font-size="14.00">20 AWG</text>
<polygon fill="none" stroke="black" points="443,-100.62 443,-124.38 480.5,-124.38 480.5,-100.62 443,-100.62"/>
<text text-anchor="start" x="450.12" y="-107.08" font-family="arial" font-size="14.00">1 m</text>
<text text-anchor="start" x="362.12" y="-85.33" font-family="arial" font-size="14.00"> </text>
<text text-anchor="start" x="350.12" y="-66.33" font-family="arial" font-size="14.00">X1:5</text>
<text text-anchor="start" x="383" y="-66.33" font-family="arial" font-size="14.00"> &#160;&#160;&#160;&#160;1:YE &#160;&#160;&#160;</text>
<text text-anchor="start" x="451.12" y="-66.33" font-family="arial" font-size="14.00">X2:7</text>
<polygon fill="#000000" stroke="none" points="348.5,-60.62 348.5,-62.62 480.5,-62.62 480.5,-60.62 348.5,-60.62"/>
<polygon fill="#ffff00" stroke="none" points="348.5,-58.62 348.5,-60.62 480.5,-60.62 480.5,-58.62 348.5,-58.62"/>
<polygon fill="#000000" stroke="none" points="348.5,-56.62 348.5,-58.62 480.5,-58.62 480.5,-56.62 348.5,-56.62"/>
<text text-anchor="start" x="350.12" y="-41.33" font-family="arial" font-size="14.00">X1:6</text>
<text text-anchor="start" x="381.5" y="-41.33" font-family="arial" font-size="14.00"> &#160;&#160;&#160;&#160;2:GN &#160;&#160;&#160;</text>
<text text-anchor="start" x="451.12" y="-41.33" font-family="arial" font-size="14.00">X2:2</text>
<polygon fill="#000000" stroke="none" points="348.5,-35.62 348.5,-37.62 480.5,-37.62 480.5,-35.62 348.5,-35.62"/>
<polygon fill="#00ff00" stroke="none" points="348.5,-33.62 348.5,-35.62 480.5,-35.62 480.5,-33.62 348.5,-33.62"/>
<polygon fill="#000000" stroke="none" points="348.5,-31.62 348.5,-33.62 480.5,-33.62 480.5,-31.62 348.5,-31.62"/>
<text text-anchor="start" x="362.12" y="-16.32" font-family="arial" font-size="14.00"> </text>
</g>
<!-- X1&#45;&#45;C1 -->
<g id="edge1" class="edge">
<title>X1:e&#45;&#45;C1:w</title>
<path fill="none" stroke="#000000" stroke-width="2" d="M204.5,-57.38C268.53,-57.38 284.53,-57.63 348.5,-57.63"/>
<path fill="none" stroke="#ffff00" stroke-width="2" d="M204.5,-59.38C268.5,-59.38 284.5,-59.63 348.5,-59.63"/>
<path fill="none" stroke="#000000" stroke-width="2" d="M204.5,-61.37C268.47,-61.37 284.47,-61.62 348.5,-61.62"/>
</g>
<!-- X1&#45;&#45;C1 -->
<g id="edge3" class="edge">
<title>X1:e&#45;&#45;C1:w</title>
<path fill="none" stroke="#000000" stroke-width="2" d="M204.5,-33.63C268.38,-33.63 284.37,-32.63 348.5,-32.63"/>
<path fill="none" stroke="#00ff00" stroke-width="2" d="M204.5,-35.62C268.5,-35.63 284.5,-34.63 348.5,-34.62"/>
<path fill="none" stroke="#000000" stroke-width="2" d="M204.5,-37.62C268.63,-37.62 284.62,-36.62 348.5,-36.62"/>
</g>
<!-- X2 -->
<g id="node2" class="node">
<title>X2</title>
<polygon fill="#ffffff" stroke="black" points="829,-118.75 624.5,-118.75 624.5,0 829,0 829,-118.75"/>
<polygon fill="none" stroke="black" points="624.5,-95 624.5,-118.75 829,-118.75 829,-95 624.5,-95"/>
<text text-anchor="start" x="718.5" y="-101.45" font-family="arial" font-size="14.00">X2</text>
<polygon fill="none" stroke="black" points="624.5,-71.25 624.5,-95 694.42,-95 694.42,-71.25 624.5,-71.25"/>
<text text-anchor="start" x="640.33" y="-77.7" font-family="arial" font-size="14.00">D&#45;Sub</text>
<polygon fill="none" stroke="black" points="694.42,-71.25 694.42,-95 767.33,-95 767.33,-71.25 694.42,-71.25"/>
<text text-anchor="start" x="710.25" y="-77.7" font-family="arial" font-size="14.00">female</text>
<polygon fill="none" stroke="black" points="767.33,-71.25 767.33,-95 829,-95 829,-71.25 767.33,-71.25"/>
<text text-anchor="start" x="783.17" y="-77.7" font-family="arial" font-size="14.00">9&#45;pin</text>
<polygon fill="none" stroke="black" points="624.5,-47.5 624.5,-71.25 829,-71.25 829,-47.5 624.5,-47.5"/>
<text text-anchor="start" x="723" y="-53.95" font-family="arial" font-size="14.00">2</text>
<polygon fill="none" stroke="black" points="624.5,-23.75 624.5,-47.5 829,-47.5 829,-23.75 624.5,-23.75"/>
<text text-anchor="start" x="723" y="-30.2" font-family="arial" font-size="14.00">7</text>
<polygon fill="none" stroke="black" points="624.5,0 624.5,-23.75 829,-23.75 829,0 624.5,0"/>
<text text-anchor="start" x="628.5" y="-6.45" font-family="arial" font-size="14.00">Unconnected pins are not shown</text>
</g>
<!-- C1&#45;&#45;X2 -->
<g id="edge2" class="edge">
<title>C1:e&#45;&#45;X2:w</title>
<path fill="none" stroke="#000000" stroke-width="2" d="M480.5,-57.63C543.66,-58.6 557.9,-34.6 624.5,-33.63"/>
<path fill="none" stroke="#ffff00" stroke-width="2" d="M480.5,-59.62C545.38,-59.62 559.62,-35.62 624.5,-35.62"/>
<path fill="none" stroke="#000000" stroke-width="2" d="M480.5,-61.62C547.1,-60.65 561.34,-36.65 624.5,-37.62"/>
</g>
<!-- C1&#45;&#45;X2 -->
<g id="edge4" class="edge">
<title>C1:e&#45;&#45;X2:w</title>
<path fill="none" stroke="#000000" stroke-width="2" d="M480.5,-32.63C547.18,-33.63 561.3,-58.38 624.5,-57.38"/>
<path fill="none" stroke="#00ff00" stroke-width="2" d="M480.5,-34.62C545.44,-34.63 559.56,-59.38 624.5,-59.38"/>
<path fill="none" stroke="#000000" stroke-width="2" d="M480.5,-36.62C543.7,-35.62 557.82,-60.37 624.5,-61.37"/>
</g>
</g>
</svg>
