<?xml version="1.0" encoding="UTF-8" standalone="no"?>
<!DOCTYPE svg PUBLIC "-//W3C//DTD SVG 1.1//EN"
 "http://www.w3.org/Graphics/SVG/1.1/DTD/svg11.dtd">
<!-- Generated by graphviz version 12.1.2 (0)
 -->
<!-- Title: graph Pages: 1 -->
<svg width="813pt" height="1196pt"
 viewBox="0.00 0.00 812.75 1195.50" xmlns="http://www.w3.org/2000/svg" xmlns:xlink="http://www.w3.org/1999/xlink">
<g id="graph0" class="graph" transform="scale(1 1) rotate(0) translate(4 1191.5)">
<title>graph</title>
<polygon fill="#ffffff" stroke="none" points="-4,4 -4,-1191.5 808.75,-1191.5 808.75,4 -4,4"/>
<!-- X1 -->
<g id="node1" class="node">
<title>X1</title>
<polygon fill="#ffffff" stroke="black" points="129.75,-752 0,-752 0,-405.5 129.75,-405.5 129.75,-752"/>
<polygon fill="none" stroke="black" points="0,-728.25 0,-752 129.75,-752 129.75,-728.25 0,-728.25"/>
<text text-anchor="start" x="56.62" y="-734.7" font-family="arial" font-size="14.00">X1</text>
<polygon fill="none" stroke="black" points="0,-704.5 0,-728.25 46.25,-728.25 46.25,-704.5 0,-704.5"/>
<text text-anchor="start" x="4" y="-710.95" font-family="arial" font-size="14.00">D&#45;Sub</text>
<polygon fill="none" stroke="black" points="46.25,-704.5 46.25,-728.25 84.25,-728.25 84.25,-704.5 46.25,-704.5"/>
<text text-anchor="start" x="50.25" y="-710.95" font-family="arial" font-size="14.00">male</text>
<polygon fill="none" stroke="black" points="84.25,-704.5 84.25,-728.25 129.75,-728.25 129.75,-704.5 84.25,-704.5"/>
<text text-anchor="start" x="88.25" y="-710.95" font-family="arial" font-size="14.00">25&#45;pin</text>
<polygon fill="none" stroke="black" points="0,-681.5 0,-704.5 96.38,-704.5 96.38,-681.5 0,-681.5"/>
<text text-anchor="start" x="9.56" y="-687.2" font-family="arial" font-size="14.00">SENSE_P_1</text>
<polygon fill="none" stroke="black" points="96.38,-681.5 96.38,-704.5 129.75,-704.5 129.75,-681.5 96.38,-681.5"/>
<text text-anchor="start" x="109.31" y="-687.2" font-family="arial" font-size="14.00">1</text>
<polygon fill="none" stroke="black" points="0,-658.5 0,-681.5 96.38,-681.5 96.38,-658.5 0,-658.5"/>
<text text-anchor="start" x="9.19" y="-664.2" font-family="arial" font-size="14.00">SENSE_N_1</text>
<polygon fill="none" stroke="black" points="96.38,-658.5 96.38,-681.5 129.75,-681.5 129.75,-658.5 96.38,-658.5"/>
<text text-anchor="start" x="105.56" y="-664.2" font-family="arial" font-size="14.00">14</text>
<polygon fill="none" stroke="black" points="0,-635.5 0,-658.5 96.38,-658.5 96.38,-635.5 0,-635.5"/>
<text text-anchor="start" x="9.56" y="-641.2" font-family="arial" font-size="14.00">SENSE_P_2</text>
<polygon fill="none" stroke="black" points="96.38,-635.5 96.38,-658.5 129.75,-658.5 129.75,-635.5 96.38,-635.5"/>
<text text-anchor="start" x="109.31" y="-641.2" font-family="arial" font-size="14.00">3</text>
<polygon fill="none" stroke="black" points="0,-612.5 0,-635.5 96.38,-635.5 96.38,-612.5 0,-612.5"/>
<text text-anchor="start" x="9.19" y="-618.2" font-family="arial" font-size="14.00">SENSE_N_2</text>
<polygon fill="none" stroke="black" points="96.38,-612.5 96.38,-635.5 129.75,-635.5 129.75,-612.5 96.38,-612.5"/>
<text text-anchor="start" x="105.56" y="-618.2" font-family="arial" font-size="14.00">16</text>
<polygon fill="none" stroke="black" points="0,-589.5 0,-612.5 96.38,-612.5 96.38,-589.5 0,-589.5"/>
<text text-anchor="start" x="9.56" y="-595.2" font-family="arial" font-size="14.00">SENSE_P_3</text>
<polygon fill="none" stroke="black" points="96.38,-589.5 96.38,-612.5 129.75,-612.5 129.75,-589.5 96.38,-589.5"/>
<text text-anchor="start" x="109.31" y="-595.2" font-family="arial" font-size="14.00">5</text>
<polygon fill="none" stroke="black" points="0,-566.5 0,-589.5 96.38,-589.5 96.38,-566.5 0,-566.5"/>
<text text-anchor="start" x="9.19" y="-572.2" font-family="arial" font-size="14.00">SENSE_N_3</text>
<polygon fill="none" stroke="black" points="96.38,-566.5 96.38,-589.5 129.75,-589.5 129.75,-566.5 96.38,-566.5"/>
<text text-anchor="start" x="105.56" y="-572.2" font-family="arial" font-size="14.00">18</text>
<polygon fill="none" stroke="black" points="0,-543.5 0,-566.5 96.38,-566.5 96.38,-543.5 0,-543.5"/>
<text text-anchor="start" x="9.56" y="-549.2" font-family="arial" font-size="14.00">SENSE_P_4</text>
<polygon fill="none" stroke="black" points="96.38,-543.5 96.38,-566.5 129.75,-566.5 129.75,-543.5 96.38,-543.5"/>
<text text-anchor="start" x="109.31" y="-549.2" font-family="arial" font-size="14.00">7</text>
<polygon fill="none" stroke="black" points="0,-520.5 0,-543.5 96.38,-543.5 96.38,-520.5 0,-520.5"/>
<text text-anchor="start" x="9.19" y="-526.2" font-family="arial" font-size="14.00">SENSE_N_4</text>
<polygon fill="none" stroke="black" points="96.38,-520.5 96.38,-543.5 129.75,-543.5 129.75,-520.5 96.38,-520.5"/>
<text text-anchor="start" x="105.56" y="-526.2" font-family="arial" font-size="14.00">20</text>
<polygon fill="none" stroke="black" points="0,-497.5 0,-520.5 96.38,-520.5 96.38,-497.5 0,-497.5"/>
<text text-anchor="start" x="9.56" y="-503.2" font-family="arial" font-size="14.00">SENSE_P_5</text>
<polygon fill="none" stroke="black" points="96.38,-497.5 96.38,-520.5 129.75,-520.5 129.75,-497.5 96.38,-497.5"/>
<text text-anchor="start" x="109.31" y="-503.2" font-family="arial" font-size="14.00">9</text>
<polygon fill="none" stroke="black" points="0,-474.5 0,-497.5 96.38,-497.5 96.38,-474.5 0,-474.5"/>
<text text-anchor="start" x="9.19" y="-480.2" font-family="arial" font-size="14.00">SENSE_N_5</text>
<polygon fill="none" stroke="black" points="96.38,-474.5 96.38,-497.5 129.75,-497.5 129.75,-474.5 96.38,-474.5"/>
<text text-anchor="start" x="105.56" y="-480.2" font-family="arial" font-size="14.00">22</text>
<polygon fill="none" stroke="black" points="0,-451.5 0,-474.5 96.38,-474.5 96.38,-451.5 0,-451.5"/>
<text text-anchor="start" x="9.56" y="-457.2" font-family="arial" font-size="14.00">SENSE_P_6</text>
<polygon fill="none" stroke="black" points="96.38,-451.5 96.38,-474.5 129.75,-474.5 129.75,-451.5 96.38,-451.5"/>
<text text-anchor="start" x="105.56" y="-457.2" font-family="arial" font-size="14.00">11</text>
<polygon fill="none" stroke="black" points="0,-428.5 0,-451.5 96.38,-451.5 96.38,-428.5 0,-428.5"/>
<text text-anchor="start" x="9.19" y="-434.2" font-family="arial" font-size="14.00">SENSE_N_6</text>
<polygon fill="none" stroke="black" points="96.38,-428.5 96.38,-451.5 129.75,-451.5 129.75,-428.5 96.38,-428.5"/>
<text text-anchor="start" x="105.56" y="-434.2" font-family="arial" font-size="14.00">24</text>
<polygon fill="none" stroke="black" points="0,-405.5 0,-428.5 96.38,-428.5 96.38,-405.5 0,-405.5"/>
<text text-anchor="start" x="32.81" y="-411.2" font-family="arial" font-size="14.00">GND</text>
<polygon fill="none" stroke="black" points="96.38,-405.5 96.38,-428.5 129.75,-428.5 129.75,-405.5 96.38,-405.5"/>
<text text-anchor="start" x="105.56" y="-411.2" font-family="arial" font-size="14.00">13</text>
</g>
<!-- W1 -->
<g id="node3" class="node">
<title>W1</title>
<polygon fill="#ffffff" stroke="black" points="534.75,-820.5 273.75,-820.5 273.75,-347 534.75,-347 534.75,-820.5"/>
<polygon fill="none" stroke="black" points="273.75,-796.75 273.75,-820.5 534.75,-820.5 534.75,-796.75 273.75,-796.75"/>
<text text-anchor="start" x="393.75" y="-803.2" font-family="arial" font-size="14.00">W1</text>
<polygon fill="none" stroke="black" points="273.75,-773 273.75,-796.75 326.81,-796.75 326.81,-773 273.75,-773"/>
<text text-anchor="start" x="289.41" y="-779.45" font-family="arial" font-size="14.00">12x</text>
<polygon fill="none" stroke="black" points="326.81,-773 326.81,-796.75 416.62,-796.75 416.62,-773 326.81,-773"/>
<text text-anchor="start" x="342.47" y="-779.45" font-family="arial" font-size="14.00">0.25 mm²</text>
<polygon fill="none" stroke="black" points="416.62,-773 416.62,-796.75 468.94,-796.75 468.94,-773 416.62,-773"/>
<text text-anchor="start" x="432.28" y="-779.45" font-family="arial" font-size="14.00">+ S</text>
<polygon fill="none" stroke="black" points="468.94,-773 468.94,-796.75 534.75,-796.75 534.75,-773 468.94,-773"/>
<text text-anchor="start" x="484.59" y="-779.45" font-family="arial" font-size="14.00">0.2 m</text>
<text text-anchor="start" x="332.38" y="-757.7" font-family="arial" font-size="14.00"> </text>
<text text-anchor="start" x="275.75" y="-738.7" font-family="arial" font-size="14.00">X1:14:SENSE_N_1</text>
<text text-anchor="start" x="407.62" y="-738.7" font-family="arial" font-size="14.00"> &#160;&#160;&#160;&#160;1:WH &#160;&#160;&#160;</text>
<text text-anchor="start" x="494.5" y="-738.7" font-family="arial" font-size="14.00">X2:z2</text>
<polygon fill="#000000" stroke="none" points="273.75,-733 273.75,-735 534.75,-735 534.75,-733 273.75,-733"/>
<polygon fill="#ffffff" stroke="none" points="273.75,-731 273.75,-733 534.75,-733 534.75,-731 273.75,-731"/>
<polygon fill="#ffffff" stroke="none" points="273.75,-729 273.75,-731 534.75,-731 534.75,-729 273.75,-729"/>
<polygon fill="#ffffff" stroke="none" points="273.75,-727 273.75,-729 534.75,-729 534.75,-727 273.75,-727"/>
<polygon fill="#000000" stroke="none" points="273.75,-725 273.75,-727 534.75,-727 534.75,-725 273.75,-725"/>
<text text-anchor="start" x="279.88" y="-709.7" font-family="arial" font-size="14.00">X1:1:SENSE_P_1</text>
<text text-anchor="start" x="409.88" y="-709.7" font-family="arial" font-size="14.00"> &#160;&#160;&#160;&#160;2:BN &#160;&#160;&#160;</text>
<text text-anchor="start" x="494.12" y="-709.7" font-family="arial" font-size="14.00">X2:d4</text>
<polygon fill="#000000" stroke="none" points="273.75,-704 273.75,-706 534.75,-706 534.75,-704 273.75,-704"/>
<polygon fill="#895956" stroke="none" points="273.75,-702 273.75,-704 534.75,-704 534.75,-702 273.75,-702"/>
<polygon fill="#895956" stroke="none" points="273.75,-700 273.75,-702 534.75,-702 534.75,-700 273.75,-700"/>
<polygon fill="#895956" stroke="none" points="273.75,-698 273.75,-700 534.75,-700 534.75,-698 273.75,-698"/>
<polygon fill="#000000" stroke="none" points="273.75,-696 273.75,-698 534.75,-698 534.75,-696 273.75,-696"/>
<text text-anchor="start" x="275.75" y="-680.7" font-family="arial" font-size="14.00">X1:16:SENSE_N_2</text>
<text text-anchor="start" x="408.75" y="-680.7" font-family="arial" font-size="14.00"> &#160;&#160;&#160;&#160;3:GN &#160;&#160;&#160;</text>
<text text-anchor="start" x="494.5" y="-680.7" font-family="arial" font-size="14.00">X2:z8</text>
<polygon fill="#000000" stroke="none" points="273.75,-675 273.75,-677 534.75,-677 534.75,-675 273.75,-675"/>
<polygon fill="#00ff00" stroke="none" points="273.75,-673 273.75,-675 534.75,-675 534.75,-673 273.75,-673"/>
<polygon fill="#00ff00" stroke="none" points="273.75,-671 273.75,-673 534.75,-673 534.75,-671 273.75,-671"/>
<polygon fill="#00ff00" stroke="none" points="273.75,-669 273.75,-671 534.75,-671 534.75,-669 273.75,-669"/>
<polygon fill="#000000" stroke="none" points="273.75,-667 273.75,-669 534.75,-669 534.75,-667 273.75,-667"/>
<text text-anchor="start" x="279.88" y="-651.7" font-family="arial" font-size="14.00">X1:3:SENSE_P_2</text>
<text text-anchor="start" x="410.25" y="-651.7" font-family="arial" font-size="14.00"> &#160;&#160;&#160;&#160;4:YE &#160;&#160;&#160;</text>
<text text-anchor="start" x="490.38" y="-651.7" font-family="arial" font-size="14.00">X2:d10</text>
<polygon fill="#000000" stroke="none" points="273.75,-646 273.75,-648 534.75,-648 534.75,-646 273.75,-646"/>
<polygon fill="#ffff00" stroke="none" points="273.75,-644 273.75,-646 534.75,-646 534.75,-644 273.75,-644"/>
<polygon fill="#ffff00" stroke="none" points="273.75,-642 273.75,-644 534.75,-644 534.75,-642 273.75,-642"/>
<polygon fill="#ffff00" stroke="none" points="273.75,-640 273.75,-642 534.75,-642 534.75,-640 273.75,-640"/>
<polygon fill="#000000" stroke="none" points="273.75,-638 273.75,-640 534.75,-640 534.75,-638 273.75,-638"/>
<text text-anchor="start" x="275.75" y="-622.7" font-family="arial" font-size="14.00">X1:18:SENSE_N_3</text>
<text text-anchor="start" x="409.12" y="-622.7" font-family="arial" font-size="14.00"> &#160;&#160;&#160;&#160;5:GY &#160;&#160;&#160;</text>
<text text-anchor="start" x="490.75" y="-622.7" font-family="arial" font-size="14.00">X2:z14</text>
<polygon fill="#000000" stroke="none" points="273.75,-617 273.75,-619 534.75,-619 534.75,-617 273.75,-617"/>
<polygon fill="#999999" stroke="none" points="273.75,-615 273.75,-617 534.75,-617 534.75,-615 273.75,-615"/>
<polygon fill="#999999" stroke="none" points="273.75,-613 273.75,-615 534.75,-615 534.75,-613 273.75,-613"/>
<polygon fill="#999999" stroke="none" points="273.75,-611 273.75,-613 534.75,-613 534.75,-611 273.75,-611"/>
<polygon fill="#000000" stroke="none" points="273.75,-609 273.75,-611 534.75,-611 534.75,-609 273.75,-609"/>
<text text-anchor="start" x="279.88" y="-593.7" font-family="arial" font-size="14.00">X1:5:SENSE_P_3</text>
<text text-anchor="start" x="410.25" y="-593.7" font-family="arial" font-size="14.00"> &#160;&#160;&#160;&#160;6:PK &#160;&#160;&#160;</text>
<text text-anchor="start" x="490.38" y="-593.7" font-family="arial" font-size="14.00">X2:d16</text>
<polygon fill="#000000" stroke="none" points="273.75,-588 273.75,-590 534.75,-590 534.75,-588 273.75,-588"/>
<polygon fill="#ff66cc" stroke="none" points="273.75,-586 273.75,-588 534.75,-588 534.75,-586 273.75,-586"/>
<polygon fill="#ff66cc" stroke="none" points="273.75,-584 273.75,-586 534.75,-586 534.75,-584 273.75,-584"/>
<polygon fill="#ff66cc" stroke="none" points="273.75,-582 273.75,-584 534.75,-584 534.75,-582 273.75,-582"/>
<polygon fill="#000000" stroke="none" points="273.75,-580 273.75,-582 534.75,-582 534.75,-580 273.75,-580"/>
<text text-anchor="start" x="275.75" y="-564.7" font-family="arial" font-size="14.00">X1:20:SENSE_N_4</text>
<text text-anchor="start" x="409.88" y="-564.7" font-family="arial" font-size="14.00"> &#160;&#160;&#160;&#160;7:BU &#160;&#160;&#160;</text>
<text text-anchor="start" x="490.75" y="-564.7" font-family="arial" font-size="14.00">X2:z18</text>
<polygon fill="#000000" stroke="none" points="273.75,-559 273.75,-561 534.75,-561 534.75,-559 273.75,-559"/>
<polygon fill="#0066ff" stroke="none" points="273.75,-557 273.75,-559 534.75,-559 534.75,-557 273.75,-557"/>
<polygon fill="#0066ff" stroke="none" points="273.75,-555 273.75,-557 534.75,-557 534.75,-555 273.75,-555"/>
<polygon fill="#0066ff" stroke="none" points="273.75,-553 273.75,-555 534.75,-555 534.75,-553 273.75,-553"/>
<polygon fill="#000000" stroke="none" points="273.75,-551 273.75,-553 534.75,-553 534.75,-551 273.75,-551"/>
<text text-anchor="start" x="279.88" y="-535.7" font-family="arial" font-size="14.00">X1:7:SENSE_P_4</text>
<text text-anchor="start" x="409.5" y="-535.7" font-family="arial" font-size="14.00"> &#160;&#160;&#160;&#160;8:RD &#160;&#160;&#160;</text>
<text text-anchor="start" x="490.38" y="-535.7" font-family="arial" font-size="14.00">X2:d20</text>
<polygon fill="#000000" stroke="none" points="273.75,-530 273.75,-532 534.75,-532 534.75,-530 273.75,-530"/>
<polygon fill="#ff0000" stroke="none" points="273.75,-528 273.75,-530 534.75,-530 534.75,-528 273.75,-528"/>
<polygon fill="#ff0000" stroke="none" points="273.75,-526 273.75,-528 534.75,-528 534.75,-526 273.75,-526"/>
<polygon fill="#ff0000" stroke="none" points="273.75,-524 273.75,-526 534.75,-526 534.75,-524 273.75,-524"/>
<polygon fill="#000000" stroke="none" points="273.75,-522 273.75,-524 534.75,-524 534.75,-522 273.75,-522"/>
<text text-anchor="start" x="275.75" y="-506.7" font-family="arial" font-size="14.00">X1:22:SENSE_N_5</text>
<text text-anchor="start" x="410.25" y="-506.7" font-family="arial" font-size="14.00"> &#160;&#160;&#160;&#160;9:BK &#160;&#160;&#160;</text>
<text text-anchor="start" x="490.75" y="-506.7" font-family="arial" font-size="14.00">X2:z24</text>
<polygon fill="#000000" stroke="none" points="273.75,-501 273.75,-503 534.75,-503 534.75,-501 273.75,-501"/>
<polygon fill="#000000" stroke="none" points="273.75,-499 273.75,-501 534.75,-501 534.75,-499 273.75,-499"/>
<polygon fill="#000000" stroke="none" points="273.75,-497 273.75,-499 534.75,-499 534.75,-497 273.75,-497"/>
<polygon fill="#000000" stroke="none" points="273.75,-495 273.75,-497 534.75,-497 534.75,-495 273.75,-495"/>
<polygon fill="#000000" stroke="none" points="273.75,-493 273.75,-495 534.75,-495 534.75,-493 273.75,-493"/>
<text text-anchor="start" x="279.88" y="-477.7" font-family="arial" font-size="14.00">X1:9:SENSE_P_5</text>
<text text-anchor="start" x="406.88" y="-477.7" font-family="arial" font-size="14.00"> &#160;&#160;&#160;&#160;10:VT &#160;&#160;&#160;</text>
<text text-anchor="start" x="490.38" y="-477.7" font-family="arial" font-size="14.00">X2:d26</text>
<polygon fill="#000000" stroke="none" points="273.75,-472 273.75,-474 534.75,-474 534.75,-472 273.75,-472"/>
<polygon fill="#8000ff" stroke="none" points="273.75,-470 273.75,-472 534.75,-472 534.75,-470 273.75,-470"/>
<polygon fill="#8000ff" stroke="none" points="273.75,-468 273.75,-470 534.75,-470 534.75,-468 273.75,-468"/>
<polygon fill="#8000ff" stroke="none" points="273.75,-466 273.75,-468 534.75,-468 534.75,-466 273.75,-466"/>
<polygon fill="#000000" stroke="none" points="273.75,-464 273.75,-466 534.75,-466 534.75,-464 273.75,-464"/>
<text text-anchor="start" x="275.75" y="-448.7" font-family="arial" font-size="14.00">X1:24:SENSE_N_6</text>
<text text-anchor="start" x="396.75" y="-448.7" font-family="arial" font-size="14.00"> &#160;&#160;&#160;&#160;11:GYPK &#160;&#160;&#160;</text>
<text text-anchor="start" x="490.75" y="-448.7" font-family="arial" font-size="14.00">X2:z30</text>
<polygon fill="#000000" stroke="none" points="273.75,-443 273.75,-445 534.75,-445 534.75,-443 273.75,-443"/>
<polygon fill="#999999" stroke="none" points="273.75,-441 273.75,-443 534.75,-443 534.75,-441 273.75,-441"/>
<polygon fill="#ff66cc" stroke="none" points="273.75,-439 273.75,-441 534.75,-441 534.75,-439 273.75,-439"/>
<polygon fill="#999999" stroke="none" points="273.75,-437 273.75,-439 534.75,-439 534.75,-437 273.75,-437"/>
<polygon fill="#000000" stroke="none" points="273.75,-435 273.75,-437 534.75,-437 534.75,-435 273.75,-435"/>
<text text-anchor="start" x="276.5" y="-419.7" font-family="arial" font-size="14.00">X1:11:SENSE_P_6</text>
<text text-anchor="start" x="396.38" y="-419.7" font-family="arial" font-size="14.00"> &#160;&#160;&#160;&#160;12:RDBU &#160;&#160;&#160;</text>
<text text-anchor="start" x="490.38" y="-419.7" font-family="arial" font-size="14.00">X2:d32</text>
<polygon fill="#000000" stroke="none" points="273.75,-414 273.75,-416 534.75,-416 534.75,-414 273.75,-414"/>
<polygon fill="#ff0000" stroke="none" points="273.75,-412 273.75,-414 534.75,-414 534.75,-412 273.75,-412"/>
<polygon fill="#0066ff" stroke="none" points="273.75,-410 273.75,-412 534.75,-412 534.75,-410 273.75,-410"/>
<polygon fill="#ff0000" stroke="none" points="273.75,-408 273.75,-410 534.75,-410 534.75,-408 273.75,-408"/>
<polygon fill="#000000" stroke="none" points="273.75,-406 273.75,-408 534.75,-408 534.75,-406 273.75,-406"/>
<text text-anchor="start" x="332.38" y="-390.7" font-family="arial" font-size="14.00"> </text>
<text text-anchor="start" x="299.38" y="-371.7" font-family="arial" font-size="14.00">X1:13:GND</text>
<text text-anchor="start" x="423" y="-371.7" font-family="arial" font-size="14.00">Shield</text>
<polygon fill="#000000" stroke="none" points="273.75,-366 273.75,-368 534.75,-368 534.75,-366 273.75,-366"/>
<text text-anchor="start" x="332.38" y="-350.7" font-family="arial" font-size="14.00"> </text>
</g>
<!-- X1&#45;&#45;W1 -->
<g id="edge1" class="edge">
<title>X1:e&#45;&#45;W1:w</title>
<path fill="none" stroke="#000000" stroke-width="2" d="M129.75,-689C195.66,-689.43 211.46,-697.43 273.75,-697"/>
<path fill="none" stroke="#895956" stroke-width="2" d="M129.75,-691C194.75,-691.22 210.55,-699.22 273.75,-699"/>
<path fill="none" stroke="#895956" stroke-width="2" d="M129.75,-693C193.85,-693 209.65,-701 273.75,-701"/>
<path fill="none" stroke="#895956" stroke-width="2" d="M129.75,-695C192.95,-694.78 208.75,-702.78 273.75,-703"/>
<path fill="none" stroke="#000000" stroke-width="2" d="M129.75,-697C192.04,-696.57 207.84,-704.57 273.75,-705"/>
</g>
<!-- X1&#45;&#45;W1 -->
<g id="edge3" class="edge">
<title>X1:e&#45;&#45;W1:w</title>
<path fill="none" stroke="#000000" stroke-width="2" d="M129.75,-666C203.07,-669.65 208.4,-729.65 273.75,-726"/>
<path fill="none" stroke="#ffffff" stroke-width="2" d="M129.75,-668C201.08,-669.82 206.41,-729.82 273.75,-728"/>
<path fill="none" stroke="#ffffff" stroke-width="2" d="M129.75,-670C199.08,-670 204.42,-730 273.75,-730"/>
<path fill="none" stroke="#ffffff" stroke-width="2" d="M129.75,-672C197.09,-670.18 202.42,-730.18 273.75,-732"/>
<path fill="none" stroke="#000000" stroke-width="2" d="M129.75,-674C195.1,-670.35 200.43,-730.35 273.75,-734"/>
</g>
<!-- X1&#45;&#45;W1 -->
<g id="edge5" class="edge">
<title>X1:e&#45;&#45;W1:w</title>
<path fill="none" stroke="#000000" stroke-width="2" d="M129.75,-643C192.8,-643.12 208.75,-639.12 273.75,-639"/>
<path fill="none" stroke="#ffff00" stroke-width="2" d="M129.75,-645C193.29,-645.06 209.24,-641.06 273.75,-641"/>
<path fill="none" stroke="#ffff00" stroke-width="2" d="M129.75,-647C193.77,-647 209.73,-643 273.75,-643"/>
<path fill="none" stroke="#ffff00" stroke-width="2" d="M129.75,-649C194.26,-648.94 210.21,-644.94 273.75,-645"/>
<path fill="none" stroke="#000000" stroke-width="2" d="M129.75,-651C194.75,-650.88 210.7,-646.88 273.75,-647"/>
</g>
<!-- X1&#45;&#45;W1 -->
<g id="edge7" class="edge">
<title>X1:e&#45;&#45;W1:w</title>
<path fill="none" stroke="#000000" stroke-width="2" d="M129.75,-620C201.14,-623.26 210.22,-671.26 273.75,-668"/>
<path fill="none" stroke="#00ff00" stroke-width="2" d="M129.75,-622C199.18,-623.63 208.25,-671.63 273.75,-670"/>
<path fill="none" stroke="#00ff00" stroke-width="2" d="M129.75,-624C197.21,-624 206.29,-672 273.75,-672"/>
<path fill="none" stroke="#00ff00" stroke-width="2" d="M129.75,-626C195.25,-624.37 204.32,-672.37 273.75,-674"/>
<path fill="none" stroke="#000000" stroke-width="2" d="M129.75,-628C193.28,-624.74 202.36,-672.74 273.75,-676"/>
</g>
<!-- X1&#45;&#45;W1 -->
<g id="edge9" class="edge">
<title>X1:e&#45;&#45;W1:w</title>
<path fill="none" stroke="#000000" stroke-width="2" d="M129.75,-597C191.24,-598.24 206.46,-582.24 273.75,-581"/>
<path fill="none" stroke="#ff66cc" stroke-width="2" d="M129.75,-599C192.69,-599.62 207.91,-583.62 273.75,-583"/>
<path fill="none" stroke="#ff66cc" stroke-width="2" d="M129.75,-601C194.14,-601 209.36,-585 273.75,-585"/>
<path fill="none" stroke="#ff66cc" stroke-width="2" d="M129.75,-603C195.59,-602.38 210.81,-586.38 273.75,-587"/>
<path fill="none" stroke="#000000" stroke-width="2" d="M129.75,-605C197.04,-603.76 212.26,-587.76 273.75,-589"/>
</g>
<!-- X1&#45;&#45;W1 -->
<g id="edge11" class="edge">
<title>X1:e&#45;&#45;W1:w</title>
<path fill="none" stroke="#000000" stroke-width="2" d="M129.75,-574C199.51,-576.73 211.57,-612.73 273.75,-610"/>
<path fill="none" stroke="#999999" stroke-width="2" d="M129.75,-576C197.62,-577.36 209.68,-613.36 273.75,-612"/>
<path fill="none" stroke="#999999" stroke-width="2" d="M129.75,-578C195.72,-578 207.78,-614 273.75,-614"/>
<path fill="none" stroke="#999999" stroke-width="2" d="M129.75,-580C193.82,-578.64 205.88,-614.64 273.75,-616"/>
<path fill="none" stroke="#000000" stroke-width="2" d="M129.75,-582C191.93,-579.27 203.99,-615.27 273.75,-618"/>
</g>
<!-- X1&#45;&#45;W1 -->
<g id="edge13" class="edge">
<title>X1:e&#45;&#45;W1:w</title>
<path fill="none" stroke="#000000" stroke-width="2" d="M129.75,-551C191.35,-553.25 204.95,-525.25 273.75,-523"/>
<path fill="none" stroke="#ff0000" stroke-width="2" d="M129.75,-553C193.15,-554.13 206.75,-526.13 273.75,-525"/>
<path fill="none" stroke="#ff0000" stroke-width="2" d="M129.75,-555C194.95,-555 208.55,-527 273.75,-527"/>
<path fill="none" stroke="#ff0000" stroke-width="2" d="M129.75,-557C196.75,-555.87 210.35,-527.87 273.75,-529"/>
<path fill="none" stroke="#000000" stroke-width="2" d="M129.75,-559C198.55,-556.75 212.15,-528.75 273.75,-531"/>
</g>
<!-- X1&#45;&#45;W1 -->
<g id="edge15" class="edge">
<title>X1:e&#45;&#45;W1:w</title>
<path fill="none" stroke="#000000" stroke-width="2" d="M129.75,-528C198.07,-529.96 212.31,-553.96 273.75,-552"/>
<path fill="none" stroke="#0066ff" stroke-width="2" d="M129.75,-530C196.35,-530.98 210.59,-554.98 273.75,-554"/>
<path fill="none" stroke="#0066ff" stroke-width="2" d="M129.75,-532C194.63,-532 208.87,-556 273.75,-556"/>
<path fill="none" stroke="#0066ff" stroke-width="2" d="M129.75,-534C192.91,-533.02 207.15,-557.02 273.75,-558"/>
<path fill="none" stroke="#000000" stroke-width="2" d="M129.75,-536C191.19,-534.04 205.43,-558.04 273.75,-560"/>
</g>
<!-- X1&#45;&#45;W1 -->
<g id="edge17" class="edge">
<title>X1:e&#45;&#45;W1:w</title>
<path fill="none" stroke="#000000" stroke-width="2" d="M129.75,-505C192.32,-507.93 203.47,-467.93 273.75,-465"/>
<path fill="none" stroke="#8000ff" stroke-width="2" d="M129.75,-507C194.25,-508.46 205.4,-468.46 273.75,-467"/>
<path fill="none" stroke="#8000ff" stroke-width="2" d="M129.75,-509C196.17,-509 207.33,-469 273.75,-469"/>
<path fill="none" stroke="#8000ff" stroke-width="2" d="M129.75,-511C198.1,-509.54 209.25,-469.54 273.75,-471"/>
<path fill="none" stroke="#000000" stroke-width="2" d="M129.75,-513C200.03,-510.07 211.18,-470.07 273.75,-473"/>
</g>
<!-- X1&#45;&#45;W1 -->
<g id="edge19" class="edge">
<title>X1:e&#45;&#45;W1:w</title>
<path fill="none" stroke="#000000" stroke-width="2" d="M129.75,-482C196.41,-482.83 211.97,-494.83 273.75,-494"/>
<path fill="none" stroke="#000000" stroke-width="2" d="M129.75,-484C195.19,-484.42 210.75,-496.42 273.75,-496"/>
<path fill="none" stroke="#000000" stroke-width="2" d="M129.75,-486C193.97,-486 209.53,-498 273.75,-498"/>
<path fill="none" stroke="#000000" stroke-width="2" d="M129.75,-488C192.75,-487.58 208.31,-499.58 273.75,-500"/>
<path fill="none" stroke="#000000" stroke-width="2" d="M129.75,-490C191.53,-489.17 207.09,-501.17 273.75,-502"/>
</g>
<!-- X1&#45;&#45;W1 -->
<g id="edge21" class="edge">
<title>X1:e&#45;&#45;W1:w</title>
<path fill="none" stroke="#000000" stroke-width="2" d="M129.75,-459C193.84,-462.4 201.75,-410.4 273.75,-407"/>
<path fill="none" stroke="#ff0000" stroke-width="2" d="M129.75,-461C195.82,-462.7 203.73,-410.7 273.75,-409"/>
<path fill="none" stroke="#0066ff" stroke-width="2" d="M129.75,-463C197.8,-463 205.7,-411 273.75,-411"/>
<path fill="none" stroke="#ff0000" stroke-width="2" d="M129.75,-465C199.77,-463.3 207.68,-411.3 273.75,-413"/>
<path fill="none" stroke="#000000" stroke-width="2" d="M129.75,-467C201.75,-463.6 209.66,-411.6 273.75,-415"/>
</g>
<!-- X1&#45;&#45;W1 -->
<g id="edge23" class="edge">
<title>X1:e&#45;&#45;W1:w</title>
<path fill="none" stroke="#000000" stroke-width="2" d="M129.75,-436C193.75,-436 209.75,-436 273.75,-436"/>
<path fill="none" stroke="#999999" stroke-width="2" d="M129.75,-438C193.75,-438 209.75,-438 273.75,-438"/>
<path fill="none" stroke="#ff66cc" stroke-width="2" d="M129.75,-440C193.75,-440 209.75,-440 273.75,-440"/>
<path fill="none" stroke="#999999" stroke-width="2" d="M129.75,-442C193.75,-442 209.75,-442 273.75,-442"/>
<path fill="none" stroke="#000000" stroke-width="2" d="M129.75,-444C193.75,-444 209.75,-444 273.75,-444"/>
</g>
<!-- X1&#45;&#45;W1 -->
<g id="edge25" class="edge">
<title>X1:e&#45;&#45;W1:w</title>
<path fill="none" stroke="#000000" stroke-width="2" d="M129.75,-417C197.5,-417 206,-367 273.75,-367"/>
</g>
<!-- X2 -->
<g id="node2" class="node">
<title>X2</title>
<polygon fill="#ffffff" stroke="black" points="804.75,-1187.5 678.75,-1187.5 678.75,0 804.75,0 804.75,-1187.5"/>
<polygon fill="none" stroke="black" points="678.75,-1163.75 678.75,-1187.5 804.75,-1187.5 804.75,-1163.75 678.75,-1163.75"/>
<text text-anchor="start" x="733.5" y="-1170.2" font-family="arial" font-size="14.00">X2</text>
<polygon fill="none" stroke="black" points="678.75,-1140 678.75,-1163.75 710,-1163.75 710,-1140 678.75,-1140"/>
<text text-anchor="start" x="682.75" y="-1146.45" font-family="arial" font-size="14.00">F48</text>
<polygon fill="none" stroke="black" points="710,-1140 710,-1163.75 759.25,-1163.75 759.25,-1140 710,-1140"/>
<text text-anchor="start" x="714" y="-1146.45" font-family="arial" font-size="14.00">female</text>
<polygon fill="none" stroke="black" points="759.25,-1140 759.25,-1163.75 804.75,-1163.75 804.75,-1140 759.25,-1140"/>
<text text-anchor="start" x="763.25" y="-1146.45" font-family="arial" font-size="14.00">48&#45;pin</text>
<polygon fill="none" stroke="black" points="678.75,-1116.25 678.75,-1140 804.75,-1140 804.75,-1116.25 678.75,-1116.25"/>
<text text-anchor="start" x="734.62" y="-1122.7" font-family="arial" font-size="14.00">z2</text>
<polygon fill="none" stroke="black" points="678.75,-1092.5 678.75,-1116.25 804.75,-1116.25 804.75,-1092.5 678.75,-1092.5"/>
<text text-anchor="start" x="734.25" y="-1098.95" font-family="arial" font-size="14.00">b2</text>
<polygon fill="none" stroke="black" points="678.75,-1068.75 678.75,-1092.5 804.75,-1092.5 804.75,-1068.75 678.75,-1068.75"/>
<text text-anchor="start" x="734.25" y="-1075.2" font-family="arial" font-size="14.00">d2</text>
<polygon fill="none" stroke="black" points="678.75,-1045 678.75,-1068.75 804.75,-1068.75 804.75,-1045 678.75,-1045"/>
<text text-anchor="start" x="734.62" y="-1051.45" font-family="arial" font-size="14.00">z4</text>
<polygon fill="none" stroke="black" points="678.75,-1021.25 678.75,-1045 804.75,-1045 804.75,-1021.25 678.75,-1021.25"/>
<text text-anchor="start" x="734.25" y="-1027.7" font-family="arial" font-size="14.00">b4</text>
<polygon fill="none" stroke="black" points="678.75,-997.5 678.75,-1021.25 804.75,-1021.25 804.75,-997.5 678.75,-997.5"/>
<text text-anchor="start" x="734.25" y="-1003.95" font-family="arial" font-size="14.00">d4</text>
<polygon fill="none" stroke="black" points="678.75,-973.75 678.75,-997.5 804.75,-997.5 804.75,-973.75 678.75,-973.75"/>
<text text-anchor="start" x="734.62" y="-980.2" font-family="arial" font-size="14.00">z6</text>
<polygon fill="none" stroke="black" points="678.75,-950 678.75,-973.75 804.75,-973.75 804.75,-950 678.75,-950"/>
<text text-anchor="start" x="734.25" y="-956.45" font-family="arial" font-size="14.00">b6</text>
<polygon fill="none" stroke="black" points="678.75,-926.25 678.75,-950 804.75,-950 804.75,-926.25 678.75,-926.25"/>
<text text-anchor="start" x="734.25" y="-932.7" font-family="arial" font-size="14.00">d6</text>
<polygon fill="none" stroke="black" points="678.75,-902.5 678.75,-926.25 804.75,-926.25 804.75,-902.5 678.75,-902.5"/>
<text text-anchor="start" x="734.62" y="-908.95" font-family="arial" font-size="14.00">z8</text>
<polygon fill="none" stroke="black" points="678.75,-878.75 678.75,-902.5 804.75,-902.5 804.75,-878.75 678.75,-878.75"/>
<text text-anchor="start" x="734.25" y="-885.2" font-family="arial" font-size="14.00">b8</text>
<polygon fill="none" stroke="black" points="678.75,-855 678.75,-878.75 804.75,-878.75 804.75,-855 678.75,-855"/>
<text text-anchor="start" x="734.25" y="-861.45" font-family="arial" font-size="14.00">d8</text>
<polygon fill="none" stroke="black" points="678.75,-831.25 678.75,-855 804.75,-855 804.75,-831.25 678.75,-831.25"/>
<text text-anchor="start" x="730.88" y="-837.7" font-family="arial" font-size="14.00">z10</text>
<polygon fill="none" stroke="black" points="678.75,-807.5 678.75,-831.25 804.75,-831.25 804.75,-807.5 678.75,-807.5"/>
<text text-anchor="start" x="730.5" y="-813.95" font-family="arial" font-size="14.00">b10</text>
<polygon fill="none" stroke="black" points="678.75,-783.75 678.75,-807.5 804.75,-807.5 804.75,-783.75 678.75,-783.75"/>
<text text-anchor="start" x="730.5" y="-790.2" font-family="arial" font-size="14.00">d10</text>
<polygon fill="none" stroke="black" points="678.75,-760 678.75,-783.75 804.75,-783.75 804.75,-760 678.75,-760"/>
<text text-anchor="start" x="730.88" y="-766.45" font-family="arial" font-size="14.00">z12</text>
<polygon fill="none" stroke="black" points="678.75,-736.25 678.75,-760 804.75,-760 804.75,-736.25 678.75,-736.25"/>
<text text-anchor="start" x="730.5" y="-742.7" font-family="arial" font-size="14.00">b12</text>
<polygon fill="none" stroke="black" points="678.75,-712.5 678.75,-736.25 804.75,-736.25 804.75,-712.5 678.75,-712.5"/>
<text text-anchor="start" x="730.5" y="-718.95" font-family="arial" font-size="14.00">d12</text>
<polygon fill="none" stroke="black" points="678.75,-688.75 678.75,-712.5 804.75,-712.5 804.75,-688.75 678.75,-688.75"/>
<text text-anchor="start" x="730.88" y="-695.2" font-family="arial" font-size="14.00">z14</text>
<polygon fill="none" stroke="black" points="678.75,-665 678.75,-688.75 804.75,-688.75 804.75,-665 678.75,-665"/>
<text text-anchor="start" x="730.5" y="-671.45" font-family="arial" font-size="14.00">b14</text>
<polygon fill="none" stroke="black" points="678.75,-641.25 678.75,-665 804.75,-665 804.75,-641.25 678.75,-641.25"/>
<text text-anchor="start" x="730.5" y="-647.7" font-family="arial" font-size="14.00">d14</text>
<polygon fill="none" stroke="black" points="678.75,-617.5 678.75,-641.25 804.75,-641.25 804.75,-617.5 678.75,-617.5"/>
<text text-anchor="start" x="730.88" y="-623.95" font-family="arial" font-size="14.00">z16</text>
<polygon fill="none" stroke="black" points="678.75,-593.75 678.75,-617.5 804.75,-617.5 804.75,-593.75 678.75,-593.75"/>
<text text-anchor="start" x="730.5" y="-600.2" font-family="arial" font-size="14.00">b16</text>
<polygon fill="none" stroke="black" points="678.75,-570 678.75,-593.75 804.75,-593.75 804.75,-570 678.75,-570"/>
<text text-anchor="start" x="730.5" y="-576.45" font-family="arial" font-size="14.00">d16</text>
<polygon fill="none" stroke="black" points="678.75,-546.25 678.75,-570 804.75,-570 804.75,-546.25 678.75,-546.25"/>
<text text-anchor="start" x="730.88" y="-552.7" font-family="arial" font-size="14.00">z18</text>
<polygon fill="none" stroke="black" points="678.75,-522.5 678.75,-546.25 804.75,-546.25 804.75,-522.5 678.75,-522.5"/>
<text text-anchor="start" x="730.5" y="-528.95" font-family="arial" font-size="14.00">b18</text>
<polygon fill="none" stroke="black" points="678.75,-498.75 678.75,-522.5 804.75,-522.5 804.75,-498.75 678.75,-498.75"/>
<text text-anchor="start" x="730.5" y="-505.2" font-family="arial" font-size="14.00">d18</text>
<polygon fill="none" stroke="black" points="678.75,-475 678.75,-498.75 804.75,-498.75 804.75,-475 678.75,-475"/>
<text text-anchor="start" x="730.88" y="-481.45" font-family="arial" font-size="14.00">z20</text>
<polygon fill="none" stroke="black" points="678.75,-451.25 678.75,-475 804.75,-475 804.75,-451.25 678.75,-451.25"/>
<text text-anchor="start" x="730.5" y="-457.7" font-family="arial" font-size="14.00">b20</text>
<polygon fill="none" stroke="black" points="678.75,-427.5 678.75,-451.25 804.75,-451.25 804.75,-427.5 678.75,-427.5"/>
<text text-anchor="start" x="730.5" y="-433.95" font-family="arial" font-size="14.00">d20</text>
<polygon fill="none" stroke="black" points="678.75,-403.75 678.75,-427.5 804.75,-427.5 804.75,-403.75 678.75,-403.75"/>
<text text-anchor="start" x="730.88" y="-410.2" font-family="arial" font-size="14.00">z22</text>
<polygon fill="none" stroke="black" points="678.75,-380 678.75,-403.75 804.75,-403.75 804.75,-380 678.75,-380"/>
<text text-anchor="start" x="730.5" y="-386.45" font-family="arial" font-size="14.00">b22</text>
<polygon fill="none" stroke="black" points="678.75,-356.25 678.75,-380 804.75,-380 804.75,-356.25 678.75,-356.25"/>
<text text-anchor="start" x="730.5" y="-362.7" font-family="arial" font-size="14.00">d22</text>
<polygon fill="none" stroke="black" points="678.75,-332.5 678.75,-356.25 804.75,-356.25 804.75,-332.5 678.75,-332.5"/>
<text text-anchor="start" x="730.88" y="-338.95" font-family="arial" font-size="14.00">z24</text>
<polygon fill="none" stroke="black" points="678.75,-308.75 678.75,-332.5 804.75,-332.5 804.75,-308.75 678.75,-308.75"/>
<text text-anchor="start" x="730.5" y="-315.2" font-family="arial" font-size="14.00">b24</text>
<polygon fill="none" stroke="black" points="678.75,-285 678.75,-308.75 804.75,-308.75 804.75,-285 678.75,-285"/>
<text text-anchor="start" x="730.5" y="-291.45" font-family="arial" font-size="14.00">d24</text>
<polygon fill="none" stroke="black" points="678.75,-261.25 678.75,-285 804.75,-285 804.75,-261.25 678.75,-261.25"/>
<text text-anchor="start" x="730.88" y="-267.7" font-family="arial" font-size="14.00">z26</text>
<polygon fill="none" stroke="black" points="678.75,-237.5 678.75,-261.25 804.75,-261.25 804.75,-237.5 678.75,-237.5"/>
<text text-anchor="start" x="730.5" y="-243.95" font-family="arial" font-size="14.00">b26</text>
<polygon fill="none" stroke="black" points="678.75,-213.75 678.75,-237.5 804.75,-237.5 804.75,-213.75 678.75,-213.75"/>
<text text-anchor="start" x="730.5" y="-220.2" font-family="arial" font-size="14.00">d26</text>
<polygon fill="none" stroke="black" points="678.75,-190 678.75,-213.75 804.75,-213.75 804.75,-190 678.75,-190"/>
<text text-anchor="start" x="730.88" y="-196.45" font-family="arial" font-size="14.00">z28</text>
<polygon fill="none" stroke="black" points="678.75,-166.25 678.75,-190 804.75,-190 804.75,-166.25 678.75,-166.25"/>
<text text-anchor="start" x="730.5" y="-172.7" font-family="arial" font-size="14.00">b28</text>
<polygon fill="none" stroke="black" points="678.75,-142.5 678.75,-166.25 804.75,-166.25 804.75,-142.5 678.75,-142.5"/>
<text text-anchor="start" x="730.5" y="-148.95" font-family="arial" font-size="14.00">d28</text>
<polygon fill="none" stroke="black" points="678.75,-118.75 678.75,-142.5 804.75,-142.5 804.75,-118.75 678.75,-118.75"/>
<text text-anchor="start" x="730.88" y="-125.2" font-family="arial" font-size="14.00">z30</text>
<polygon fill="none" stroke="black" points="678.75,-95 678.75,-118.75 804.75,-118.75 804.75,-95 678.75,-95"/>
<text text-anchor="start" x="730.5" y="-101.45" font-family="arial" font-size="14.00">b30</text>
<polygon fill="none" stroke="black" points="678.75,-71.25 678.75,-95 804.75,-95 804.75,-71.25 678.75,-71.25"/>
<text text-anchor="start" x="730.5" y="-77.7" font-family="arial" font-size="14.00">d30</text>
<polygon fill="none" stroke="black" points="678.75,-47.5 678.75,-71.25 804.75,-71.25 804.75,-47.5 678.75,-47.5"/>
<text text-anchor="start" x="730.88" y="-53.95" font-family="arial" font-size="14.00">z32</text>
<polygon fill="none" stroke="black" points="678.75,-23.75 678.75,-47.5 804.75,-47.5 804.75,-23.75 678.75,-23.75"/>
<text text-anchor="start" x="730.5" y="-30.2" font-family="arial" font-size="14.00">b32</text>
<polygon fill="none" stroke="black" points="678.75,0 678.75,-23.75 804.75,-23.75 804.75,0 678.75,0"/>
<text text-anchor="start" x="730.5" y="-6.45" font-family="arial" font-size="14.00">d32</text>
</g>
<!-- W1&#45;&#45;X2 -->
<g id="edge2" class="edge">
<title>W1:e&#45;&#45;X2:w</title>
<path fill="none" stroke="#000000" stroke-width="2" d="M534.75,-697C689.57,-702.83 531.05,-1011.2 678.75,-1005.38"/>
<path fill="none" stroke="#895956" stroke-width="2" d="M534.75,-699C687.79,-701.91 529.27,-1010.29 678.75,-1007.38"/>
<path fill="none" stroke="#895956" stroke-width="2" d="M534.75,-701C686.01,-701 527.49,-1009.38 678.75,-1009.38"/>
<path fill="none" stroke="#895956" stroke-width="2" d="M534.75,-703C684.23,-700.09 525.71,-1008.46 678.75,-1011.37"/>
<path fill="none" stroke="#000000" stroke-width="2" d="M534.75,-705C682.45,-699.17 523.93,-1007.55 678.75,-1013.37"/>
</g>
<!-- W1&#45;&#45;X2 -->
<g id="edge4" class="edge">
<title>W1:e&#45;&#45;X2:w</title>
<path fill="none" stroke="#000000" stroke-width="2" d="M534.75,-726C726.37,-732.02 494.04,-1130.14 678.75,-1124.13"/>
<path fill="none" stroke="#ffffff" stroke-width="2" d="M534.75,-728C724.64,-731.01 492.31,-1129.13 678.75,-1126.13"/>
<path fill="none" stroke="#ffffff" stroke-width="2" d="M534.75,-730C722.91,-730 490.59,-1128.12 678.75,-1128.12"/>
<path fill="none" stroke="#ffffff" stroke-width="2" d="M534.75,-732C721.19,-728.99 488.86,-1127.12 678.75,-1130.12"/>
<path fill="none" stroke="#000000" stroke-width="2" d="M534.75,-734C719.46,-727.98 487.13,-1126.11 678.75,-1132.12"/>
</g>
<!-- W1&#45;&#45;X2 -->
<g id="edge6" class="edge">
<title>W1:e&#45;&#45;X2:w</title>
<path fill="none" stroke="#000000" stroke-width="2" d="M534.75,-639C631.86,-644.07 589.34,-796.7 678.75,-791.63"/>
<path fill="none" stroke="#ffff00" stroke-width="2" d="M534.75,-641C629.94,-643.54 587.42,-796.16 678.75,-793.63"/>
<path fill="none" stroke="#ffff00" stroke-width="2" d="M534.75,-643C628.01,-643 585.49,-795.63 678.75,-795.63"/>
<path fill="none" stroke="#ffff00" stroke-width="2" d="M534.75,-645C626.08,-642.46 583.56,-795.09 678.75,-797.62"/>
<path fill="none" stroke="#000000" stroke-width="2" d="M534.75,-647C624.16,-641.93 581.64,-794.55 678.75,-799.62"/>
</g>
<!-- W1&#45;&#45;X2 -->
<g id="edge8" class="edge">
<title>W1:e&#45;&#45;X2:w</title>
<path fill="none" stroke="#000000" stroke-width="2" d="M534.75,-668C663.71,-673.61 557.11,-915.99 678.75,-910.38"/>
<path fill="none" stroke="#00ff00" stroke-width="2" d="M534.75,-670C661.88,-672.81 555.28,-915.18 678.75,-912.38"/>
<path fill="none" stroke="#00ff00" stroke-width="2" d="M534.75,-672C660.05,-672 553.45,-914.38 678.75,-914.37"/>
<path fill="none" stroke="#00ff00" stroke-width="2" d="M534.75,-674C658.22,-671.19 551.62,-913.57 678.75,-916.37"/>
<path fill="none" stroke="#000000" stroke-width="2" d="M534.75,-676C656.39,-670.39 549.79,-912.76 678.75,-918.37"/>
</g>
<!-- W1&#45;&#45;X2 -->
<g id="edge10" class="edge">
<title>W1:e&#45;&#45;X2:w</title>
<path fill="none" stroke="#000000" stroke-width="2" d="M534.75,-581C598,-581.07 613.97,-577.95 678.75,-577.88"/>
<path fill="none" stroke="#ff66cc" stroke-width="2" d="M534.75,-583C598.38,-583.04 614.35,-579.91 678.75,-579.88"/>
<path fill="none" stroke="#ff66cc" stroke-width="2" d="M534.75,-585C598.77,-585 614.73,-581.87 678.75,-581.88"/>
<path fill="none" stroke="#ff66cc" stroke-width="2" d="M534.75,-587C599.15,-586.96 615.12,-583.84 678.75,-583.87"/>
<path fill="none" stroke="#000000" stroke-width="2" d="M534.75,-589C599.53,-588.93 615.5,-585.8 678.75,-585.87"/>
</g>
<!-- W1&#45;&#45;X2 -->
<g id="edge12" class="edge">
<title>W1:e&#45;&#45;X2:w</title>
<path fill="none" stroke="#000000" stroke-width="2" d="M534.75,-610C613.43,-614.25 608.05,-700.87 678.75,-696.63"/>
<path fill="none" stroke="#999999" stroke-width="2" d="M534.75,-612C611.43,-614.12 606.06,-700.75 678.75,-698.63"/>
<path fill="none" stroke="#999999" stroke-width="2" d="M534.75,-614C609.44,-614 604.06,-700.63 678.75,-700.62"/>
<path fill="none" stroke="#999999" stroke-width="2" d="M534.75,-616C607.44,-613.88 602.07,-700.5 678.75,-702.62"/>
<path fill="none" stroke="#000000" stroke-width="2" d="M534.75,-618C605.45,-613.75 600.07,-700.38 678.75,-704.62"/>
</g>
<!-- W1&#45;&#45;X2 -->
<g id="edge14" class="edge">
<title>W1:e&#45;&#45;X2:w</title>
<path fill="none" stroke="#000000" stroke-width="2" d="M534.75,-523C605.68,-527.27 599.84,-439.64 678.75,-435.38"/>
<path fill="none" stroke="#ff0000" stroke-width="2" d="M534.75,-525C607.67,-527.13 601.84,-439.51 678.75,-437.38"/>
<path fill="none" stroke="#ff0000" stroke-width="2" d="M534.75,-527C609.67,-527 603.83,-439.38 678.75,-439.38"/>
<path fill="none" stroke="#ff0000" stroke-width="2" d="M534.75,-529C611.66,-526.87 605.83,-439.24 678.75,-441.37"/>
<path fill="none" stroke="#000000" stroke-width="2" d="M534.75,-531C613.66,-526.73 607.82,-439.11 678.75,-443.37"/>
</g>
<!-- W1&#45;&#45;X2 -->
<g id="edge16" class="edge">
<title>W1:e&#45;&#45;X2:w</title>
<path fill="none" stroke="#000000" stroke-width="2" d="M534.75,-552C599.28,-552.03 615.27,-554.16 678.75,-554.13"/>
<path fill="none" stroke="#0066ff" stroke-width="2" d="M534.75,-554C599.02,-554.02 615.01,-556.14 678.75,-556.13"/>
<path fill="none" stroke="#0066ff" stroke-width="2" d="M534.75,-556C598.76,-556 614.74,-558.12 678.75,-558.12"/>
<path fill="none" stroke="#0066ff" stroke-width="2" d="M534.75,-558C598.49,-557.98 614.48,-560.11 678.75,-560.12"/>
<path fill="none" stroke="#000000" stroke-width="2" d="M534.75,-560C598.23,-559.97 614.22,-562.09 678.75,-562.12"/>
</g>
<!-- W1&#45;&#45;X2 -->
<g id="edge18" class="edge">
<title>W1:e&#45;&#45;X2:w</title>
<path fill="none" stroke="#000000" stroke-width="2" d="M534.75,-465C656.77,-470.61 549.41,-227.24 678.75,-221.63"/>
<path fill="none" stroke="#8000ff" stroke-width="2" d="M534.75,-467C658.6,-469.81 551.24,-226.43 678.75,-223.63"/>
<path fill="none" stroke="#8000ff" stroke-width="2" d="M534.75,-469C660.43,-469 553.07,-225.62 678.75,-225.62"/>
<path fill="none" stroke="#8000ff" stroke-width="2" d="M534.75,-471C662.26,-468.19 554.9,-224.82 678.75,-227.62"/>
<path fill="none" stroke="#000000" stroke-width="2" d="M534.75,-473C664.09,-467.39 556.73,-224.01 678.75,-229.62"/>
</g>
<!-- W1&#45;&#45;X2 -->
<g id="edge20" class="edge">
<title>W1:e&#45;&#45;X2:w</title>
<path fill="none" stroke="#000000" stroke-width="2" d="M534.75,-494C624.48,-499.08 581.32,-345.46 678.75,-340.38"/>
<path fill="none" stroke="#000000" stroke-width="2" d="M534.75,-496C626.41,-498.54 583.24,-344.92 678.75,-342.38"/>
<path fill="none" stroke="#000000" stroke-width="2" d="M534.75,-498C628.33,-498 585.17,-344.37 678.75,-344.38"/>
<path fill="none" stroke="#000000" stroke-width="2" d="M534.75,-500C630.26,-497.46 587.09,-343.83 678.75,-346.37"/>
<path fill="none" stroke="#000000" stroke-width="2" d="M534.75,-502C632.18,-496.92 589.02,-343.29 678.75,-348.37"/>
</g>
<!-- W1&#45;&#45;X2 -->
<g id="edge22" class="edge">
<title>W1:e&#45;&#45;X2:w</title>
<path fill="none" stroke="#000000" stroke-width="2" d="M534.75,-407C719.88,-413.02 486.72,-13.89 678.75,-7.88"/>
<path fill="none" stroke="#ff0000" stroke-width="2" d="M534.75,-409C721.6,-412.01 488.44,-12.88 678.75,-9.88"/>
<path fill="none" stroke="#0066ff" stroke-width="2" d="M534.75,-411C723.33,-411 490.17,-11.88 678.75,-11.88"/>
<path fill="none" stroke="#ff0000" stroke-width="2" d="M534.75,-413C725.06,-409.99 491.9,-10.87 678.75,-13.87"/>
<path fill="none" stroke="#000000" stroke-width="2" d="M534.75,-415C726.78,-408.98 493.62,-9.86 678.75,-15.87"/>
</g>
<!-- W1&#45;&#45;X2 -->
<g id="edge24" class="edge">
<title>W1:e&#45;&#45;X2:w</title>
<path fill="none" stroke="#000000" stroke-width="2" d="M534.75,-436C682.86,-441.83 523.53,-132.46 678.75,-126.63"/>
<path fill="none" stroke="#999999" stroke-width="2" d="M534.75,-438C684.64,-440.92 525.31,-131.54 678.75,-128.63"/>
<path fill="none" stroke="#ff66cc" stroke-width="2" d="M534.75,-440C686.41,-440 527.09,-130.63 678.75,-130.62"/>
<path fill="none" stroke="#999999" stroke-width="2" d="M534.75,-442C688.19,-439.08 528.86,-129.71 678.75,-132.62"/>
<path fill="none" stroke="#000000" stroke-width="2" d="M534.75,-444C689.97,-438.17 530.64,-128.79 678.75,-134.62"/>
</g>
</g>
</svg>
