<?xml version="1.0" encoding="UTF-8" standalone="no"?>
<!DOCTYPE svg PUBLIC "-//W3C//DTD SVG 1.1//EN"
 "http://www.w3.org/Graphics/SVG/1.1/DTD/svg11.dtd">
<!-- Generated by graphviz version 12.1.2 (0)
 -->
<!-- Title: graph Pages: 1 -->
<svg width="1071pt" height="205pt"
 viewBox="0.00 0.00 1071.25 204.88" xmlns="http://www.w3.org/2000/svg" xmlns:xlink="http://www.w3.org/1999/xlink">
<g id="graph0" class="graph" transform="scale(1 1) rotate(0) translate(4 200.88)">
<title>graph</title>
<polygon fill="#ffffff" stroke="none" points="-4,4 -4,-200.88 1067.25,-200.88 1067.25,4 -4,4"/>
<!-- X1 -->
<g id="node1" class="node">
<title>X1</title>
<polygon fill="#ffffff" stroke="black" points="455.5,-166.25 240,-166.25 240,0 455.5,0 455.5,-166.25"/>
<polygon fill="none" stroke="black" points="240,-142.5 240,-166.25 455.5,-166.25 455.5,-142.5 240,-142.5"/>
<text text-anchor="start" x="339.5" y="-148.95" font-family="arial" font-size="14.00">X1</text>
<polygon fill="none" stroke="black" points="240,-118.75 240,-142.5 345.5,-142.5 345.5,-118.75 240,-118.75"/>
<text text-anchor="start" x="244" y="-125.2" font-family="arial" font-size="14.00">Dupont 2.54mm</text>
<polygon fill="none" stroke="black" points="345.5,-118.75 345.5,-142.5 383.5,-142.5 383.5,-118.75 345.5,-118.75"/>
<text text-anchor="start" x="349.5" y="-125.2" font-family="arial" font-size="14.00">male</text>
<polygon fill="none" stroke="black" points="383.5,-118.75 383.5,-142.5 421.5,-142.5 421.5,-118.75 383.5,-118.75"/>
<text text-anchor="start" x="387.5" y="-125.2" font-family="arial" font-size="14.00">5&#45;pin</text>
<polygon fill="none" stroke="black" points="421.5,-118.75 421.5,-142.5 447.5,-142.5 447.5,-118.75 421.5,-118.75"/>
<text text-anchor="start" x="425.5" y="-125.2" font-family="arial" font-size="14.00">BK</text>
<polygon fill="#000000" stroke="none" points="447.5,-118.75 447.5,-142.5 455.5,-142.5 455.5,-118.75 447.5,-118.75"/>
<polygon fill="none" stroke="black" points="447.5,-118.75 447.5,-142.5 455.5,-142.5 455.5,-118.75 447.5,-118.75"/>
<polygon fill="none" stroke="black" points="240,-95 240,-118.75 455.5,-118.75 455.5,-95 240,-95"/>
<text text-anchor="start" x="344" y="-101.45" font-family="arial" font-size="14.00">1</text>
<polygon fill="none" stroke="black" points="240,-71.25 240,-95 455.5,-95 455.5,-71.25 240,-71.25"/>
<text text-anchor="start" x="344" y="-77.7" font-family="arial" font-size="14.00">2</text>
<polygon fill="none" stroke="black" points="240,-47.5 240,-71.25 455.5,-71.25 455.5,-47.5 240,-47.5"/>
<text text-anchor="start" x="344" y="-53.95" font-family="arial" font-size="14.00">3</text>
<polygon fill="none" stroke="black" points="240,-23.75 240,-47.5 455.5,-47.5 455.5,-23.75 240,-23.75"/>
<text text-anchor="start" x="344" y="-30.2" font-family="arial" font-size="14.00">4</text>
<polygon fill="none" stroke="black" points="240,0 240,-23.75 455.5,-23.75 455.5,0 240,0"/>
<text text-anchor="start" x="344" y="-6.45" font-family="arial" font-size="14.00">5</text>
</g>
<!-- X2 -->
<g id="node2" class="node">
<title>X2</title>
<polygon fill="#ffffff" stroke="black" points="826.25,-166.25 599.5,-166.25 599.5,0 826.25,0 826.25,-166.25"/>
<polygon fill="none" stroke="black" points="599.5,-142.5 599.5,-166.25 826.25,-166.25 826.25,-142.5 599.5,-142.5"/>
<text text-anchor="start" x="704.62" y="-148.95" font-family="arial" font-size="14.00">X2</text>
<polygon fill="none" stroke="black" points="599.5,-118.75 599.5,-142.5 705,-142.5 705,-118.75 599.5,-118.75"/>
<text text-anchor="start" x="603.5" y="-125.2" font-family="arial" font-size="14.00">Dupont 2.54mm</text>
<polygon fill="none" stroke="black" points="705,-118.75 705,-142.5 754.25,-142.5 754.25,-118.75 705,-118.75"/>
<text text-anchor="start" x="709" y="-125.2" font-family="arial" font-size="14.00">female</text>
<polygon fill="none" stroke="black" points="754.25,-118.75 754.25,-142.5 792.25,-142.5 792.25,-118.75 754.25,-118.75"/>
<text text-anchor="start" x="758.25" y="-125.2" font-family="arial" font-size="14.00">5&#45;pin</text>
<polygon fill="none" stroke="black" points="792.25,-118.75 792.25,-142.5 818.25,-142.5 818.25,-118.75 792.25,-118.75"/>
<text text-anchor="start" x="796.25" y="-125.2" font-family="arial" font-size="14.00">BK</text>
<polygon fill="#000000" stroke="none" points="818.25,-118.75 818.25,-142.5 826.25,-142.5 826.25,-118.75 818.25,-118.75"/>
<polygon fill="none" stroke="black" points="818.25,-118.75 818.25,-142.5 826.25,-142.5 826.25,-118.75 818.25,-118.75"/>
<polygon fill="none" stroke="black" points="599.5,-95 599.5,-118.75 826.25,-118.75 826.25,-95 599.5,-95"/>
<text text-anchor="start" x="709.12" y="-101.45" font-family="arial" font-size="14.00">1</text>
<polygon fill="none" stroke="black" points="599.5,-71.25 599.5,-95 826.25,-95 826.25,-71.25 599.5,-71.25"/>
<text text-anchor="start" x="709.12" y="-77.7" font-family="arial" font-size="14.00">2</text>
<polygon fill="none" stroke="black" points="599.5,-47.5 599.5,-71.25 826.25,-71.25 826.25,-47.5 599.5,-47.5"/>
<text text-anchor="start" x="709.12" y="-53.95" font-family="arial" font-size="14.00">3</text>
<polygon fill="none" stroke="black" points="599.5,-23.75 599.5,-47.5 826.25,-47.5 826.25,-23.75 599.5,-23.75"/>
<text text-anchor="start" x="709.12" y="-30.2" font-family="arial" font-size="14.00">4</text>
<polygon fill="none" stroke="black" points="599.5,0 599.5,-23.75 826.25,-23.75 826.25,0 599.5,0"/>
<text text-anchor="start" x="709.12" y="-6.45" font-family="arial" font-size="14.00">5</text>
</g>
<!-- X1&#45;&#45;X2 -->
<g id="edge9" class="edge">
<title>X1:e&#45;&#45;X2:w</title>
<path fill="none" stroke="#000000" stroke-dasharray="5,2" d="M455.5,-82.13C515.5,-82.12 533.31,-82.12 588.04,-82.13"/>
<path fill="none" stroke="#000000" stroke-dasharray="5,2" d="M455.5,-84.12C515.5,-84.12 533.31,-84.12 588.04,-84.12"/>
<polygon fill="#000000" stroke="#000000" points="587.99,-86.63 597.99,-83.13 587.99,-79.63 587.99,-86.63"/>
</g>
<!-- W2 -->
<g id="node4" class="node">
<title>W2</title>
<polygon fill="#ffffff" stroke="black" stroke-dasharray="5,2" points="1063.25,-196.88 970.25,-196.88 970.25,-11.38 1063.25,-11.38 1063.25,-196.88"/>
<polygon fill="none" stroke="black" points="970.25,-173.12 970.25,-196.88 1063.25,-196.88 1063.25,-173.12 970.25,-173.12"/>
<text text-anchor="start" x="1006.25" y="-179.57" font-family="arial" font-size="14.00">W2</text>
<polygon fill="none" stroke="black" points="970.25,-149.38 970.25,-173.12 1006.62,-173.12 1006.62,-149.38 970.25,-149.38"/>
<text text-anchor="start" x="981.31" y="-155.82" font-family="arial" font-size="14.00">4x</text>
<polygon fill="none" stroke="black" points="1006.62,-149.38 1006.62,-173.12 1063.25,-173.12 1063.25,-149.38 1006.62,-149.38"/>
<text text-anchor="start" x="1017.69" y="-155.82" font-family="arial" font-size="14.00">0.2 m</text>
<text text-anchor="start" x="983.88" y="-134.07" font-family="arial" font-size="14.00"> </text>
<text text-anchor="start" x="971.88" y="-115.08" font-family="arial" font-size="14.00">X2:1</text>
<text text-anchor="start" x="1003.62" y="-115.08" font-family="arial" font-size="14.00"> &#160;&#160;&#160;&#160;RD &#160;&#160;&#160;</text>
<polygon fill="#000000" stroke="none" points="970.25,-109.38 970.25,-111.38 1063.25,-111.38 1063.25,-109.38 970.25,-109.38"/>
<polygon fill="#ff0000" stroke="none" points="970.25,-107.38 970.25,-109.38 1063.25,-109.38 1063.25,-107.38 970.25,-107.38"/>
<polygon fill="#000000" stroke="none" points="970.25,-105.38 970.25,-107.38 1063.25,-107.38 1063.25,-105.38 970.25,-105.38"/>
<text text-anchor="start" x="971.88" y="-90.08" font-family="arial" font-size="14.00">X2:2</text>
<text text-anchor="start" x="1004.38" y="-90.08" font-family="arial" font-size="14.00"> &#160;&#160;&#160;&#160;BK &#160;&#160;&#160;</text>
<polygon fill="#000000" stroke="none" points="970.25,-84.38 970.25,-86.38 1063.25,-86.38 1063.25,-84.38 970.25,-84.38"/>
<polygon fill="#000000" stroke="none" points="970.25,-82.38 970.25,-84.38 1063.25,-84.38 1063.25,-82.38 970.25,-82.38"/>
<polygon fill="#000000" stroke="none" points="970.25,-80.38 970.25,-82.38 1063.25,-82.38 1063.25,-80.38 970.25,-80.38"/>
<text text-anchor="start" x="971.88" y="-65.08" font-family="arial" font-size="14.00">X2:3</text>
<text text-anchor="start" x="1004" y="-65.08" font-family="arial" font-size="14.00"> &#160;&#160;&#160;&#160;BU &#160;&#160;&#160;</text>
<polygon fill="#000000" stroke="none" points="970.25,-59.38 970.25,-61.38 1063.25,-61.38 1063.25,-59.38 970.25,-59.38"/>
<polygon fill="#0066ff" stroke="none" points="970.25,-57.38 970.25,-59.38 1063.25,-59.38 1063.25,-57.38 970.25,-57.38"/>
<polygon fill="#000000" stroke="none" points="970.25,-55.38 970.25,-57.38 1063.25,-57.38 1063.25,-55.38 970.25,-55.38"/>
<text text-anchor="start" x="971.88" y="-40.08" font-family="arial" font-size="14.00">X2:4</text>
<text text-anchor="start" x="1002.88" y="-40.08" font-family="arial" font-size="14.00"> &#160;&#160;&#160;&#160;GN &#160;&#160;&#160;</text>
<polygon fill="#000000" stroke="none" points="970.25,-34.38 970.25,-36.38 1063.25,-36.38 1063.25,-34.38 970.25,-34.38"/>
<polygon fill="#00ff00" stroke="none" points="970.25,-32.38 970.25,-34.38 1063.25,-34.38 1063.25,-32.38 970.25,-32.38"/>
<polygon fill="#000000" stroke="none" points="970.25,-30.38 970.25,-32.38 1063.25,-32.38 1063.25,-30.38 970.25,-30.38"/>
<text text-anchor="start" x="983.88" y="-15.07" font-family="arial" font-size="14.00"> </text>
</g>
<!-- X2&#45;&#45;W2 -->
<g id="edge5" class="edge">
<title>X2:e&#45;&#45;W2:w</title>
<path fill="none" stroke="#000000" stroke-width="2" d="M826.25,-104.88C890.44,-104.88 906.43,-106.38 970.25,-106.38"/>
<path fill="none" stroke="#ff0000" stroke-width="2" d="M826.25,-106.88C890.25,-106.87 906.25,-108.37 970.25,-108.38"/>
<path fill="none" stroke="#000000" stroke-width="2" d="M826.25,-108.87C890.07,-108.87 906.06,-110.37 970.25,-110.37"/>
</g>
<!-- X2&#45;&#45;W2 -->
<g id="edge6" class="edge">
<title>X2:e&#45;&#45;W2:w</title>
<path fill="none" stroke="#000000" stroke-width="2" d="M826.25,-81.13C890.28,-81.13 906.28,-81.38 970.25,-81.38"/>
<path fill="none" stroke="#000000" stroke-width="2" d="M826.25,-83.12C890.25,-83.12 906.25,-83.37 970.25,-83.37"/>
<path fill="none" stroke="#000000" stroke-width="2" d="M826.25,-85.12C890.22,-85.12 906.22,-85.37 970.25,-85.37"/>
</g>
<!-- X2&#45;&#45;W2 -->
<g id="edge7" class="edge">
<title>X2:e&#45;&#45;W2:w</title>
<path fill="none" stroke="#000000" stroke-width="2" d="M826.25,-57.38C890.13,-57.38 906.12,-56.38 970.25,-56.38"/>
<path fill="none" stroke="#0066ff" stroke-width="2" d="M826.25,-59.38C890.25,-59.38 906.25,-58.38 970.25,-58.38"/>
<path fill="none" stroke="#000000" stroke-width="2" d="M826.25,-61.37C890.38,-61.37 906.37,-60.37 970.25,-60.37"/>
</g>
<!-- X2&#45;&#45;W2 -->
<g id="edge8" class="edge">
<title>X2:e&#45;&#45;W2:w</title>
<path fill="none" stroke="#000000" stroke-width="2" d="M826.25,-33.63C889.98,-33.64 905.96,-31.39 970.25,-31.38"/>
<path fill="none" stroke="#00ff00" stroke-width="2" d="M826.25,-35.62C890.26,-35.62 906.24,-33.38 970.25,-33.38"/>
<path fill="none" stroke="#000000" stroke-width="2" d="M826.25,-37.62C890.54,-37.61 906.52,-35.36 970.25,-35.37"/>
</g>
<!-- W1 -->
<g id="node3" class="node">
<title>W1</title>
<polygon fill="#ffffff" stroke="black" stroke-dasharray="5,2" points="96,-196.88 0,-196.88 0,-11.38 96,-11.38 96,-196.88"/>
<polygon fill="none" stroke="black" points="0,-173.12 0,-196.88 96,-196.88 96,-173.12 0,-173.12"/>
<text text-anchor="start" x="37.5" y="-179.57" font-family="arial" font-size="14.00">W1</text>
<polygon fill="none" stroke="black" points="0,-149.38 0,-173.12 37.88,-173.12 37.88,-149.38 0,-149.38"/>
<text text-anchor="start" x="11.81" y="-155.82" font-family="arial" font-size="14.00">4x</text>
<polygon fill="none" stroke="black" points="37.88,-149.38 37.88,-173.12 96,-173.12 96,-149.38 37.88,-149.38"/>
<text text-anchor="start" x="49.69" y="-155.82" font-family="arial" font-size="14.00">0.2 m</text>
<text text-anchor="start" x="1.62" y="-134.07" font-family="arial" font-size="14.00"> </text>
<text text-anchor="start" x="9.38" y="-115.08" font-family="arial" font-size="14.00"> &#160;&#160;&#160;&#160;RD &#160;&#160;&#160;</text>
<text text-anchor="start" x="66.62" y="-115.08" font-family="arial" font-size="14.00">X1:1</text>
<polygon fill="#000000" stroke="none" points="0,-109.38 0,-111.38 96,-111.38 96,-109.38 0,-109.38"/>
<polygon fill="#ff0000" stroke="none" points="0,-107.38 0,-109.38 96,-109.38 96,-107.38 0,-107.38"/>
<polygon fill="#000000" stroke="none" points="0,-105.38 0,-107.38 96,-107.38 96,-105.38 0,-105.38"/>
<text text-anchor="start" x="10.12" y="-90.08" font-family="arial" font-size="14.00"> &#160;&#160;&#160;&#160;BK &#160;&#160;&#160;</text>
<text text-anchor="start" x="66.62" y="-90.08" font-family="arial" font-size="14.00">X1:2</text>
<polygon fill="#000000" stroke="none" points="0,-84.38 0,-86.38 96,-86.38 96,-84.38 0,-84.38"/>
<polygon fill="#000000" stroke="none" points="0,-82.38 0,-84.38 96,-84.38 96,-82.38 0,-82.38"/>
<polygon fill="#000000" stroke="none" points="0,-80.38 0,-82.38 96,-82.38 96,-80.38 0,-80.38"/>
<text text-anchor="start" x="9.75" y="-65.08" font-family="arial" font-size="14.00"> &#160;&#160;&#160;&#160;BU &#160;&#160;&#160;</text>
<text text-anchor="start" x="66.62" y="-65.08" font-family="arial" font-size="14.00">X1:3</text>
<polygon fill="#000000" stroke="none" points="0,-59.38 0,-61.38 96,-61.38 96,-59.38 0,-59.38"/>
<polygon fill="#0066ff" stroke="none" points="0,-57.38 0,-59.38 96,-59.38 96,-57.38 0,-57.38"/>
<polygon fill="#000000" stroke="none" points="0,-55.38 0,-57.38 96,-57.38 96,-55.38 0,-55.38"/>
<text text-anchor="start" x="8.62" y="-40.08" font-family="arial" font-size="14.00"> &#160;&#160;&#160;&#160;GN &#160;&#160;&#160;</text>
<text text-anchor="start" x="66.62" y="-40.08" font-family="arial" font-size="14.00">X1:4</text>
<polygon fill="#000000" stroke="none" points="0,-34.38 0,-36.38 96,-36.38 96,-34.38 0,-34.38"/>
<polygon fill="#00ff00" stroke="none" points="0,-32.38 0,-34.38 96,-34.38 96,-32.38 0,-32.38"/>
<polygon fill="#000000" stroke="none" points="0,-30.38 0,-32.38 96,-32.38 96,-30.38 0,-30.38"/>
<text text-anchor="start" x="1.62" y="-15.07" font-family="arial" font-size="14.00"> </text>
</g>
<!-- W1&#45;&#45;X1 -->
<g id="edge1" class="edge">
<title>W1:e&#45;&#45;X1:w</title>
<path fill="none" stroke="#000000" stroke-width="2" d="M96,-106.38C159.82,-106.38 175.81,-104.88 240,-104.88"/>
<path fill="none" stroke="#ff0000" stroke-width="2" d="M96,-108.38C160,-108.37 176,-106.87 240,-106.88"/>
<path fill="none" stroke="#000000" stroke-width="2" d="M96,-110.37C160.19,-110.37 176.18,-108.87 240,-108.87"/>
</g>
<!-- W1&#45;&#45;X1 -->
<g id="edge2" class="edge">
<title>W1:e&#45;&#45;X1:w</title>
<path fill="none" stroke="#000000" stroke-width="2" d="M96,-81.38C159.97,-81.38 175.97,-81.13 240,-81.13"/>
<path fill="none" stroke="#000000" stroke-width="2" d="M96,-83.37C160,-83.37 176,-83.12 240,-83.12"/>
<path fill="none" stroke="#000000" stroke-width="2" d="M96,-85.37C160.03,-85.37 176.03,-85.12 240,-85.12"/>
</g>
<!-- W1&#45;&#45;X1 -->
<g id="edge3" class="edge">
<title>W1:e&#45;&#45;X1:w</title>
<path fill="none" stroke="#000000" stroke-width="2" d="M96,-56.38C160.13,-56.38 176.12,-57.38 240,-57.38"/>
<path fill="none" stroke="#0066ff" stroke-width="2" d="M96,-58.38C160,-58.38 176,-59.38 240,-59.38"/>
<path fill="none" stroke="#000000" stroke-width="2" d="M96,-60.37C159.88,-60.37 175.87,-61.37 240,-61.37"/>
</g>
<!-- W1&#45;&#45;X1 -->
<g id="edge4" class="edge">
<title>W1:e&#45;&#45;X1:w</title>
<path fill="none" stroke="#000000" stroke-width="2" d="M96,-31.38C160.29,-31.39 176.27,-33.64 240,-33.63"/>
<path fill="none" stroke="#00ff00" stroke-width="2" d="M96,-33.38C160.01,-33.38 175.99,-35.62 240,-35.62"/>
<path fill="none" stroke="#000000" stroke-width="2" d="M96,-35.37C159.73,-35.36 175.71,-37.61 240,-37.62"/>
</g>
</g>
</svg>
