<?xml version="1.0" encoding="UTF-8" standalone="no"?>
<!DOCTYPE svg PUBLIC "-//W3C//DTD SVG 1.1//EN"
 "http://www.w3.org/Graphics/SVG/1.1/DTD/svg11.dtd">
<!-- Generated by graphviz version 12.1.2 (0)
 -->
<!-- Title: graph Pages: 1 -->
<svg width="951pt" height="404pt"
 viewBox="0.00 0.00 951.25 403.50" xmlns="http://www.w3.org/2000/svg" xmlns:xlink="http://www.w3.org/1999/xlink">
<g id="graph0" class="graph" transform="scale(1 1) rotate(0) translate(4 399.5)">
<title>graph</title>
<polygon fill="#ffffff" stroke="none" points="-4,4 -4,-399.5 947.25,-399.5 947.25,4 -4,4"/>
<!-- X1 -->
<g id="node1" class="node">
<title>X1</title>
<polygon fill="#ffffff" stroke="black" points="38,-257.5 0,-257.5 0,-118 38,-118 38,-257.5"/>
<polygon fill="none" stroke="black" points="0,-233.75 0,-257.5 38,-257.5 38,-233.75 0,-233.75"/>
<text text-anchor="start" x="10.75" y="-240.2" font-family="arial" font-size="14.00">X1</text>
<polygon fill="none" stroke="black" points="0,-210 0,-233.75 38,-233.75 38,-210 0,-210"/>
<text text-anchor="start" x="4" y="-216.45" font-family="arial" font-size="14.00">4&#45;pin</text>
<polygon fill="none" stroke="black" points="0,-187 0,-210 20,-210 20,-187 0,-187"/>
<text text-anchor="start" x="5.5" y="-192.7" font-family="arial" font-size="14.00">A</text>
<polygon fill="none" stroke="black" points="20,-187 20,-210 38,-210 38,-187 20,-187"/>
<text text-anchor="start" x="25.25" y="-192.7" font-family="arial" font-size="14.00">1</text>
<polygon fill="none" stroke="black" points="0,-164 0,-187 20,-187 20,-164 0,-164"/>
<text text-anchor="start" x="5.5" y="-169.7" font-family="arial" font-size="14.00">B</text>
<polygon fill="none" stroke="black" points="20,-164 20,-187 38,-187 38,-164 20,-164"/>
<text text-anchor="start" x="25.25" y="-169.7" font-family="arial" font-size="14.00">2</text>
<polygon fill="none" stroke="black" points="0,-141 0,-164 20,-164 20,-141 0,-141"/>
<text text-anchor="start" x="5.12" y="-146.7" font-family="arial" font-size="14.00">C</text>
<polygon fill="none" stroke="black" points="20,-141 20,-164 38,-164 38,-141 20,-141"/>
<text text-anchor="start" x="25.25" y="-146.7" font-family="arial" font-size="14.00">3</text>
<polygon fill="none" stroke="black" points="0,-118 0,-141 20,-141 20,-118 0,-118"/>
<text text-anchor="start" x="5.12" y="-123.7" font-family="arial" font-size="14.00">D</text>
<polygon fill="none" stroke="black" points="20,-118 20,-141 38,-141 38,-118 20,-118"/>
<text text-anchor="start" x="25.25" y="-123.7" font-family="arial" font-size="14.00">4</text>
</g>
<!-- C1 -->
<g id="node8" class="node">
<title>C1</title>
<polygon fill="#ffffff" stroke="black" points="303,-289.5 182,-289.5 182,-104 303,-104 303,-289.5"/>
<polygon fill="none" stroke="black" points="182,-265.75 182,-289.5 303,-289.5 303,-265.75 182,-265.75"/>
<text text-anchor="start" x="233.88" y="-272.2" font-family="arial" font-size="14.00">C1</text>
<polygon fill="none" stroke="black" points="182,-242 182,-265.75 303,-265.75 303,-242 182,-242"/>
<text text-anchor="start" x="235.38" y="-248.45" font-family="arial" font-size="14.00">4x</text>
<text text-anchor="start" x="202.62" y="-226.7" font-family="arial" font-size="14.00"> </text>
<text text-anchor="start" x="184.25" y="-207.7" font-family="arial" font-size="14.00">X1:1:A</text>
<text text-anchor="start" x="228.88" y="-207.7" font-family="arial" font-size="14.00"> &#160;&#160;&#160;&#160;1:WH &#160;&#160;&#160;</text>
<polygon fill="#000000" stroke="none" points="182,-202 182,-204 303,-204 303,-202 182,-202"/>
<polygon fill="#ffffff" stroke="none" points="182,-200 182,-202 303,-202 303,-200 182,-200"/>
<polygon fill="#000000" stroke="none" points="182,-198 182,-200 303,-200 303,-198 182,-198"/>
<text text-anchor="start" x="184.25" y="-182.7" font-family="arial" font-size="14.00">X1:2:B</text>
<text text-anchor="start" x="231.12" y="-182.7" font-family="arial" font-size="14.00"> &#160;&#160;&#160;&#160;2:BN &#160;&#160;&#160;</text>
<polygon fill="#000000" stroke="none" points="182,-177 182,-179 303,-179 303,-177 182,-177"/>
<polygon fill="#895956" stroke="none" points="182,-175 182,-177 303,-177 303,-175 182,-175"/>
<polygon fill="#000000" stroke="none" points="182,-173 182,-175 303,-175 303,-173 182,-173"/>
<text text-anchor="start" x="183.88" y="-157.7" font-family="arial" font-size="14.00">X1:3:C</text>
<text text-anchor="start" x="230" y="-157.7" font-family="arial" font-size="14.00"> &#160;&#160;&#160;&#160;3:GN &#160;&#160;&#160;</text>
<polygon fill="#000000" stroke="none" points="182,-152 182,-154 303,-154 303,-152 182,-152"/>
<polygon fill="#00ff00" stroke="none" points="182,-150 182,-152 303,-152 303,-150 182,-150"/>
<polygon fill="#000000" stroke="none" points="182,-148 182,-150 303,-150 303,-148 182,-148"/>
<text text-anchor="start" x="183.88" y="-132.7" font-family="arial" font-size="14.00">X1:4:D</text>
<text text-anchor="start" x="231.5" y="-132.7" font-family="arial" font-size="14.00"> &#160;&#160;&#160;&#160;4:YE &#160;&#160;&#160;</text>
<polygon fill="#000000" stroke="none" points="182,-127 182,-129 303,-129 303,-127 182,-127"/>
<polygon fill="#ffff00" stroke="none" points="182,-125 182,-127 303,-127 303,-125 182,-125"/>
<polygon fill="#000000" stroke="none" points="182,-123 182,-125 303,-125 303,-123 182,-123"/>
<text text-anchor="start" x="202.62" y="-107.7" font-family="arial" font-size="14.00"> </text>
</g>
<!-- X1&#45;&#45;C1 -->
<g id="edge1" class="edge">
<title>X1:e&#45;&#45;C1:w</title>
<path fill="none" stroke="#000000" stroke-width="2" d="M38,-196.5C102.32,-196.52 118.3,-199.02 182,-199"/>
<path fill="none" stroke="#ffffff" stroke-width="2" d="M38,-198.5C102.01,-198.5 117.99,-201 182,-201"/>
<path fill="none" stroke="#000000" stroke-width="2" d="M38,-200.5C101.7,-200.48 117.68,-202.98 182,-203"/>
</g>
<!-- X1&#45;&#45;C1 -->
<g id="edge3" class="edge">
<title>X1:e&#45;&#45;C1:w</title>
<path fill="none" stroke="#000000" stroke-width="2" d="M38,-173.5C102.06,-173.5 118.06,-174 182,-174"/>
<path fill="none" stroke="#895956" stroke-width="2" d="M38,-175.5C102,-175.5 118,-176 182,-176"/>
<path fill="none" stroke="#000000" stroke-width="2" d="M38,-177.5C101.94,-177.5 117.94,-178 182,-178"/>
</g>
<!-- X1&#45;&#45;C1 -->
<g id="edge5" class="edge">
<title>X1:e&#45;&#45;C1:w</title>
<path fill="none" stroke="#000000" stroke-width="2" d="M38,-150.5C101.82,-150.51 117.81,-149.01 182,-149"/>
<path fill="none" stroke="#00ff00" stroke-width="2" d="M38,-152.5C102,-152.5 118,-151 182,-151"/>
<path fill="none" stroke="#000000" stroke-width="2" d="M38,-154.5C102.19,-154.49 118.18,-152.99 182,-153"/>
</g>
<!-- X1&#45;&#45;C1 -->
<g id="edge7" class="edge">
<title>X1:e&#45;&#45;C1:w</title>
<path fill="none" stroke="#000000" stroke-width="2" d="M38,-127.5C101.59,-127.55 117.55,-124.05 182,-124"/>
<path fill="none" stroke="#ffff00" stroke-width="2" d="M38,-129.5C102.02,-129.5 117.98,-126 182,-126"/>
<path fill="none" stroke="#000000" stroke-width="2" d="M38,-131.5C102.45,-131.45 118.41,-127.95 182,-128"/>
</g>
<!-- F1 -->
<g id="node2" class="node">
<title>F1</title>
<polygon fill="#ffffff" stroke="black" points="493.25,-248.62 447,-248.62 447,-224.88 493.25,-224.88 493.25,-248.62"/>
<polygon fill="none" stroke="black" points="447,-224.88 447,-248.62 493.25,-248.62 493.25,-224.88 447,-224.88"/>
<text text-anchor="start" x="451" y="-231.32" font-family="arial" font-size="14.00">ferrule</text>
</g>
<!-- C2 -->
<g id="node9" class="node">
<title>C2</title>
<polygon fill="#ffffff" stroke="black" points="761.25,-395.5 637.25,-395.5 637.25,-210 761.25,-210 761.25,-395.5"/>
<polygon fill="none" stroke="black" points="637.25,-371.75 637.25,-395.5 761.25,-395.5 761.25,-371.75 637.25,-371.75"/>
<text text-anchor="start" x="690.62" y="-378.2" font-family="arial" font-size="14.00">C2</text>
<polygon fill="none" stroke="black" points="637.25,-348 637.25,-371.75 761.25,-371.75 761.25,-348 637.25,-348"/>
<text text-anchor="start" x="692.12" y="-354.45" font-family="arial" font-size="14.00">4x</text>
<text text-anchor="start" x="638.88" y="-332.7" font-family="arial" font-size="14.00"> </text>
<text text-anchor="start" x="646.12" y="-313.7" font-family="arial" font-size="14.00"> &#160;&#160;&#160;&#160;1:WH &#160;&#160;&#160;</text>
<text text-anchor="start" x="718.5" y="-313.7" font-family="arial" font-size="14.00">X2:1:A</text>
<polygon fill="#000000" stroke="none" points="637.25,-308 637.25,-310 761.25,-310 761.25,-308 637.25,-308"/>
<polygon fill="#ffffff" stroke="none" points="637.25,-306 637.25,-308 761.25,-308 761.25,-306 637.25,-306"/>
<polygon fill="#000000" stroke="none" points="637.25,-304 637.25,-306 761.25,-306 761.25,-304 637.25,-304"/>
<text text-anchor="start" x="648.38" y="-288.7" font-family="arial" font-size="14.00"> &#160;&#160;&#160;&#160;2:BN &#160;&#160;&#160;</text>
<text text-anchor="start" x="718.5" y="-288.7" font-family="arial" font-size="14.00">X2:2:B</text>
<polygon fill="#000000" stroke="none" points="637.25,-283 637.25,-285 761.25,-285 761.25,-283 637.25,-283"/>
<polygon fill="#895956" stroke="none" points="637.25,-281 637.25,-283 761.25,-283 761.25,-281 637.25,-281"/>
<polygon fill="#000000" stroke="none" points="637.25,-279 637.25,-281 761.25,-281 761.25,-279 637.25,-279"/>
<text text-anchor="start" x="647.25" y="-263.7" font-family="arial" font-size="14.00"> &#160;&#160;&#160;&#160;3:GN &#160;&#160;&#160;</text>
<text text-anchor="start" x="718.12" y="-263.7" font-family="arial" font-size="14.00">X2:3:C</text>
<polygon fill="#000000" stroke="none" points="637.25,-258 637.25,-260 761.25,-260 761.25,-258 637.25,-258"/>
<polygon fill="#00ff00" stroke="none" points="637.25,-256 637.25,-258 761.25,-258 761.25,-256 637.25,-256"/>
<polygon fill="#000000" stroke="none" points="637.25,-254 637.25,-256 761.25,-256 761.25,-254 637.25,-254"/>
<text text-anchor="start" x="648.75" y="-238.7" font-family="arial" font-size="14.00"> &#160;&#160;&#160;&#160;4:YE &#160;&#160;&#160;</text>
<text text-anchor="start" x="718.12" y="-238.7" font-family="arial" font-size="14.00">X2:4:D</text>
<polygon fill="#000000" stroke="none" points="637.25,-233 637.25,-235 761.25,-235 761.25,-233 637.25,-233"/>
<polygon fill="#ffff00" stroke="none" points="637.25,-231 637.25,-233 761.25,-233 761.25,-231 637.25,-231"/>
<polygon fill="#000000" stroke="none" points="637.25,-229 637.25,-231 761.25,-231 761.25,-229 637.25,-229"/>
<text text-anchor="start" x="638.88" y="-213.7" font-family="arial" font-size="14.00"> </text>
</g>
<!-- F1&#45;&#45;C2 -->
<g id="edge9" class="edge">
<title>F1:e&#45;&#45;C2:w</title>
<path fill="none" stroke="#000000" stroke-width="2" d="M493.25,-234.75C566.46,-236.71 568.04,-306.96 637.25,-305"/>
<path fill="none" stroke="#ffffff" stroke-width="2" d="M493.25,-236.75C564.46,-236.75 566.04,-307 637.25,-307"/>
<path fill="none" stroke="#000000" stroke-width="2" d="M493.25,-238.75C562.46,-236.79 564.04,-307.04 637.25,-309"/>
</g>
<!-- C3 -->
<g id="node10" class="node">
<title>C3</title>
<polygon fill="#ffffff" stroke="black" points="761.25,-185.5 637.25,-185.5 637.25,0 761.25,0 761.25,-185.5"/>
<polygon fill="none" stroke="black" points="637.25,-161.75 637.25,-185.5 761.25,-185.5 761.25,-161.75 637.25,-161.75"/>
<text text-anchor="start" x="690.62" y="-168.2" font-family="arial" font-size="14.00">C3</text>
<polygon fill="none" stroke="black" points="637.25,-138 637.25,-161.75 761.25,-161.75 761.25,-138 637.25,-138"/>
<text text-anchor="start" x="692.12" y="-144.45" font-family="arial" font-size="14.00">4x</text>
<text text-anchor="start" x="638.88" y="-122.7" font-family="arial" font-size="14.00"> </text>
<text text-anchor="start" x="646.12" y="-103.7" font-family="arial" font-size="14.00"> &#160;&#160;&#160;&#160;1:WH &#160;&#160;&#160;</text>
<text text-anchor="start" x="718.5" y="-103.7" font-family="arial" font-size="14.00">X3:1:A</text>
<polygon fill="#000000" stroke="none" points="637.25,-98 637.25,-100 761.25,-100 761.25,-98 637.25,-98"/>
<polygon fill="#ffffff" stroke="none" points="637.25,-96 637.25,-98 761.25,-98 761.25,-96 637.25,-96"/>
<polygon fill="#000000" stroke="none" points="637.25,-94 637.25,-96 761.25,-96 761.25,-94 637.25,-94"/>
<text text-anchor="start" x="648.38" y="-78.7" font-family="arial" font-size="14.00"> &#160;&#160;&#160;&#160;2:BN &#160;&#160;&#160;</text>
<text text-anchor="start" x="718.5" y="-78.7" font-family="arial" font-size="14.00">X3:2:B</text>
<polygon fill="#000000" stroke="none" points="637.25,-73 637.25,-75 761.25,-75 761.25,-73 637.25,-73"/>
<polygon fill="#895956" stroke="none" points="637.25,-71 637.25,-73 761.25,-73 761.25,-71 637.25,-71"/>
<polygon fill="#000000" stroke="none" points="637.25,-69 637.25,-71 761.25,-71 761.25,-69 637.25,-69"/>
<text text-anchor="start" x="647.25" y="-53.7" font-family="arial" font-size="14.00"> &#160;&#160;&#160;&#160;3:GN &#160;&#160;&#160;</text>
<text text-anchor="start" x="718.12" y="-53.7" font-family="arial" font-size="14.00">X3:3:C</text>
<polygon fill="#000000" stroke="none" points="637.25,-48 637.25,-50 761.25,-50 761.25,-48 637.25,-48"/>
<polygon fill="#00ff00" stroke="none" points="637.25,-46 637.25,-48 761.25,-48 761.25,-46 637.25,-46"/>
<polygon fill="#000000" stroke="none" points="637.25,-44 637.25,-46 761.25,-46 761.25,-44 637.25,-44"/>
<text text-anchor="start" x="648.75" y="-28.7" font-family="arial" font-size="14.00"> &#160;&#160;&#160;&#160;4:YE &#160;&#160;&#160;</text>
<text text-anchor="start" x="718.12" y="-28.7" font-family="arial" font-size="14.00">X3:4:D</text>
<polygon fill="#000000" stroke="none" points="637.25,-23 637.25,-25 761.25,-25 761.25,-23 637.25,-23"/>
<polygon fill="#ffff00" stroke="none" points="637.25,-21 637.25,-23 761.25,-23 761.25,-21 637.25,-21"/>
<polygon fill="#000000" stroke="none" points="637.25,-19 637.25,-21 761.25,-21 761.25,-19 637.25,-19"/>
<text text-anchor="start" x="638.88" y="-3.7" font-family="arial" font-size="14.00"> </text>
</g>
<!-- F1&#45;&#45;C3 -->
<g id="edge17" class="edge">
<title>F1:e&#45;&#45;C3:w</title>
<path fill="none" stroke="#000000" stroke-width="2" d="M493.25,-234.75C580.49,-237.23 546.12,-97.48 637.25,-95"/>
<path fill="none" stroke="#ffffff" stroke-width="2" d="M493.25,-236.75C582.43,-236.75 548.07,-97 637.25,-97"/>
<path fill="none" stroke="#000000" stroke-width="2" d="M493.25,-238.75C584.38,-236.27 550.01,-96.52 637.25,-99"/>
</g>
<!-- F2 -->
<g id="node3" class="node">
<title>F2</title>
<polygon fill="#ffffff" stroke="black" points="493.25,-200.62 447,-200.62 447,-176.88 493.25,-176.88 493.25,-200.62"/>
<polygon fill="none" stroke="black" points="447,-176.88 447,-200.62 493.25,-200.62 493.25,-176.88 447,-176.88"/>
<text text-anchor="start" x="451" y="-183.32" font-family="arial" font-size="14.00">ferrule</text>
</g>
<!-- F2&#45;&#45;C2 -->
<g id="edge11" class="edge">
<title>F2:e&#45;&#45;C2:w</title>
<path fill="none" stroke="#000000" stroke-width="2" d="M493.25,-186.75C571.49,-188.93 562.99,-282.18 637.25,-280"/>
<path fill="none" stroke="#895956" stroke-width="2" d="M493.25,-188.75C569.5,-188.75 561,-282 637.25,-282"/>
<path fill="none" stroke="#000000" stroke-width="2" d="M493.25,-190.75C567.51,-188.57 559.01,-281.82 637.25,-284"/>
</g>
<!-- F2&#45;&#45;C3 -->
<g id="edge19" class="edge">
<title>F2:e&#45;&#45;C3:w</title>
<path fill="none" stroke="#000000" stroke-width="2" d="M493.25,-186.75C573.67,-189.1 552.89,-72.35 637.25,-70"/>
<path fill="none" stroke="#895956" stroke-width="2" d="M493.25,-188.75C575.64,-188.75 554.86,-72 637.25,-72"/>
<path fill="none" stroke="#000000" stroke-width="2" d="M493.25,-190.75C577.61,-188.4 556.83,-71.65 637.25,-74"/>
</g>
<!-- F3 -->
<g id="node4" class="node">
<title>F3</title>
<polygon fill="#ffffff" stroke="black" points="493.25,-152.62 447,-152.62 447,-128.88 493.25,-128.88 493.25,-152.62"/>
<polygon fill="none" stroke="black" points="447,-128.88 447,-152.62 493.25,-152.62 493.25,-128.88 447,-128.88"/>
<text text-anchor="start" x="451" y="-135.32" font-family="arial" font-size="14.00">ferrule</text>
</g>
<!-- F3&#45;&#45;C2 -->
<g id="edge13" class="edge">
<title>F3:e&#45;&#45;C2:w</title>
<path fill="none" stroke="#000000" stroke-width="2" d="M493.25,-138.75C577.47,-141.1 556.97,-257.35 637.25,-255"/>
<path fill="none" stroke="#00ff00" stroke-width="2" d="M493.25,-140.75C575.5,-140.75 555,-257 637.25,-257"/>
<path fill="none" stroke="#000000" stroke-width="2" d="M493.25,-142.75C573.53,-140.4 553.03,-256.65 637.25,-259"/>
</g>
<!-- F3&#45;&#45;C3 -->
<g id="edge21" class="edge">
<title>F3:e&#45;&#45;C3:w</title>
<path fill="none" stroke="#000000" stroke-width="2" d="M493.25,-138.75C567.63,-140.94 558.89,-47.19 637.25,-45"/>
<path fill="none" stroke="#00ff00" stroke-width="2" d="M493.25,-140.75C569.62,-140.75 560.88,-47 637.25,-47"/>
<path fill="none" stroke="#000000" stroke-width="2" d="M493.25,-142.75C571.61,-140.56 562.87,-46.81 637.25,-49"/>
</g>
<!-- F4 -->
<g id="node5" class="node">
<title>F4</title>
<polygon fill="#ffffff" stroke="black" points="493.25,-104.62 447,-104.62 447,-80.88 493.25,-80.88 493.25,-104.62"/>
<polygon fill="none" stroke="black" points="447,-80.88 447,-104.62 493.25,-104.62 493.25,-80.88 447,-80.88"/>
<text text-anchor="start" x="451" y="-87.33" font-family="arial" font-size="14.00">ferrule</text>
</g>
<!-- F4&#45;&#45;C2 -->
<g id="edge15" class="edge">
<title>F4:e&#45;&#45;C2:w</title>
<path fill="none" stroke="#000000" stroke-width="2" d="M493.25,-90.75C584.22,-93.23 550.16,-232.48 637.25,-230"/>
<path fill="none" stroke="#ffff00" stroke-width="2" d="M493.25,-92.75C582.28,-92.75 548.22,-232 637.25,-232"/>
<path fill="none" stroke="#000000" stroke-width="2" d="M493.25,-94.75C580.34,-92.27 546.28,-231.52 637.25,-234"/>
</g>
<!-- F4&#45;&#45;C3 -->
<g id="edge23" class="edge">
<title>F4:e&#45;&#45;C3:w</title>
<path fill="none" stroke="#000000" stroke-width="2" d="M493.25,-90.75C562.56,-92.71 563.94,-21.96 637.25,-20"/>
<path fill="none" stroke="#ffff00" stroke-width="2" d="M493.25,-92.75C564.56,-92.75 565.94,-22 637.25,-22"/>
<path fill="none" stroke="#000000" stroke-width="2" d="M493.25,-94.75C566.56,-92.79 567.94,-22.04 637.25,-24"/>
</g>
<!-- X2 -->
<g id="node6" class="node">
<title>X2</title>
<polygon fill="#ffffff" stroke="black" points="943.25,-363.5 905.25,-363.5 905.25,-224 943.25,-224 943.25,-363.5"/>
<polygon fill="none" stroke="black" points="905.25,-339.75 905.25,-363.5 943.25,-363.5 943.25,-339.75 905.25,-339.75"/>
<text text-anchor="start" x="916" y="-346.2" font-family="arial" font-size="14.00">X2</text>
<polygon fill="none" stroke="black" points="905.25,-316 905.25,-339.75 943.25,-339.75 943.25,-316 905.25,-316"/>
<text text-anchor="start" x="909.25" y="-322.45" font-family="arial" font-size="14.00">4&#45;pin</text>
<polygon fill="none" stroke="black" points="905.25,-293 905.25,-316 923.25,-316 923.25,-293 905.25,-293"/>
<text text-anchor="start" x="910.5" y="-298.7" font-family="arial" font-size="14.00">1</text>
<polygon fill="none" stroke="black" points="923.25,-293 923.25,-316 943.25,-316 943.25,-293 923.25,-293"/>
<text text-anchor="start" x="928.75" y="-298.7" font-family="arial" font-size="14.00">A</text>
<polygon fill="none" stroke="black" points="905.25,-270 905.25,-293 923.25,-293 923.25,-270 905.25,-270"/>
<text text-anchor="start" x="910.5" y="-275.7" font-family="arial" font-size="14.00">2</text>
<polygon fill="none" stroke="black" points="923.25,-270 923.25,-293 943.25,-293 943.25,-270 923.25,-270"/>
<text text-anchor="start" x="928.75" y="-275.7" font-family="arial" font-size="14.00">B</text>
<polygon fill="none" stroke="black" points="905.25,-247 905.25,-270 923.25,-270 923.25,-247 905.25,-247"/>
<text text-anchor="start" x="910.5" y="-252.7" font-family="arial" font-size="14.00">3</text>
<polygon fill="none" stroke="black" points="923.25,-247 923.25,-270 943.25,-270 943.25,-247 923.25,-247"/>
<text text-anchor="start" x="928.38" y="-252.7" font-family="arial" font-size="14.00">C</text>
<polygon fill="none" stroke="black" points="905.25,-224 905.25,-247 923.25,-247 923.25,-224 905.25,-224"/>
<text text-anchor="start" x="910.5" y="-229.7" font-family="arial" font-size="14.00">4</text>
<polygon fill="none" stroke="black" points="923.25,-224 923.25,-247 943.25,-247 943.25,-224 923.25,-224"/>
<text text-anchor="start" x="928.38" y="-229.7" font-family="arial" font-size="14.00">D</text>
</g>
<!-- X3 -->
<g id="node7" class="node">
<title>X3</title>
<polygon fill="#ffffff" stroke="black" points="943.25,-153.5 905.25,-153.5 905.25,-14 943.25,-14 943.25,-153.5"/>
<polygon fill="none" stroke="black" points="905.25,-129.75 905.25,-153.5 943.25,-153.5 943.25,-129.75 905.25,-129.75"/>
<text text-anchor="start" x="916" y="-136.2" font-family="arial" font-size="14.00">X3</text>
<polygon fill="none" stroke="black" points="905.25,-106 905.25,-129.75 943.25,-129.75 943.25,-106 905.25,-106"/>
<text text-anchor="start" x="909.25" y="-112.45" font-family="arial" font-size="14.00">4&#45;pin</text>
<polygon fill="none" stroke="black" points="905.25,-83 905.25,-106 923.25,-106 923.25,-83 905.25,-83"/>
<text text-anchor="start" x="910.5" y="-88.7" font-family="arial" font-size="14.00">1</text>
<polygon fill="none" stroke="black" points="923.25,-83 923.25,-106 943.25,-106 943.25,-83 923.25,-83"/>
<text text-anchor="start" x="928.75" y="-88.7" font-family="arial" font-size="14.00">A</text>
<polygon fill="none" stroke="black" points="905.25,-60 905.25,-83 923.25,-83 923.25,-60 905.25,-60"/>
<text text-anchor="start" x="910.5" y="-65.7" font-family="arial" font-size="14.00">2</text>
<polygon fill="none" stroke="black" points="923.25,-60 923.25,-83 943.25,-83 943.25,-60 923.25,-60"/>
<text text-anchor="start" x="928.75" y="-65.7" font-family="arial" font-size="14.00">B</text>
<polygon fill="none" stroke="black" points="905.25,-37 905.25,-60 923.25,-60 923.25,-37 905.25,-37"/>
<text text-anchor="start" x="910.5" y="-42.7" font-family="arial" font-size="14.00">3</text>
<polygon fill="none" stroke="black" points="923.25,-37 923.25,-60 943.25,-60 943.25,-37 923.25,-37"/>
<text text-anchor="start" x="928.38" y="-42.7" font-family="arial" font-size="14.00">C</text>
<polygon fill="none" stroke="black" points="905.25,-14 905.25,-37 923.25,-37 923.25,-14 905.25,-14"/>
<text text-anchor="start" x="910.5" y="-19.7" font-family="arial" font-size="14.00">4</text>
<polygon fill="none" stroke="black" points="923.25,-14 923.25,-37 943.25,-37 943.25,-14 923.25,-14"/>
<text text-anchor="start" x="928.38" y="-19.7" font-family="arial" font-size="14.00">D</text>
</g>
<!-- C1&#45;&#45;F1 -->
<g id="edge2" class="edge">
<title>C1:e&#45;&#45;F1:w</title>
<path fill="none" stroke="#000000" stroke-width="2" d="M303,-199C370.84,-200.36 382.95,-236.11 447,-234.75"/>
<path fill="none" stroke="#ffffff" stroke-width="2" d="M303,-201C368.94,-201 381.06,-236.75 447,-236.75"/>
<path fill="none" stroke="#000000" stroke-width="2" d="M303,-203C367.05,-201.64 379.16,-237.39 447,-238.75"/>
</g>
<!-- C1&#45;&#45;F2 -->
<g id="edge4" class="edge">
<title>C1:e&#45;&#45;F2:w</title>
<path fill="none" stroke="#000000" stroke-width="2" d="M303,-174C368.52,-174.46 384.02,-187.21 447,-186.75"/>
<path fill="none" stroke="#895956" stroke-width="2" d="M303,-176C367.25,-176 382.75,-188.75 447,-188.75"/>
<path fill="none" stroke="#000000" stroke-width="2" d="M303,-178C365.98,-177.54 381.48,-190.29 447,-190.75"/>
</g>
<!-- C1&#45;&#45;F3 -->
<g id="edge6" class="edge">
<title>C1:e&#45;&#45;F3:w</title>
<path fill="none" stroke="#000000" stroke-width="2" d="M303,-149C366.07,-149.33 381.74,-139.08 447,-138.75"/>
<path fill="none" stroke="#00ff00" stroke-width="2" d="M303,-151C367.16,-151 382.84,-140.75 447,-140.75"/>
<path fill="none" stroke="#000000" stroke-width="2" d="M303,-153C368.26,-152.67 383.93,-142.42 447,-142.75"/>
</g>
<!-- C1&#45;&#45;F4 -->
<g id="edge8" class="edge">
<title>C1:e&#45;&#45;F4:w</title>
<path fill="none" stroke="#000000" stroke-width="2" d="M303,-124C366.81,-125.29 379.45,-92.04 447,-90.75"/>
<path fill="none" stroke="#ffff00" stroke-width="2" d="M303,-126C368.68,-126 381.32,-92.75 447,-92.75"/>
<path fill="none" stroke="#000000" stroke-width="2" d="M303,-128C370.55,-126.71 383.19,-93.46 447,-94.75"/>
</g>
<!-- C2&#45;&#45;X2 -->
<g id="edge10" class="edge">
<title>C2:e&#45;&#45;X2:w</title>
<path fill="none" stroke="#000000" stroke-width="2" d="M761.25,-305C824.95,-305.02 840.93,-302.52 905.25,-302.5"/>
<path fill="none" stroke="#ffffff" stroke-width="2" d="M761.25,-307C825.26,-307 841.24,-304.5 905.25,-304.5"/>
<path fill="none" stroke="#000000" stroke-width="2" d="M761.25,-309C825.57,-308.98 841.55,-306.48 905.25,-306.5"/>
</g>
<!-- C2&#45;&#45;X2 -->
<g id="edge12" class="edge">
<title>C2:e&#45;&#45;X2:w</title>
<path fill="none" stroke="#000000" stroke-width="2" d="M761.25,-280C825.19,-280 841.19,-279.5 905.25,-279.5"/>
<path fill="none" stroke="#895956" stroke-width="2" d="M761.25,-282C825.25,-282 841.25,-281.5 905.25,-281.5"/>
<path fill="none" stroke="#000000" stroke-width="2" d="M761.25,-284C825.31,-284 841.31,-283.5 905.25,-283.5"/>
</g>
<!-- C2&#45;&#45;X2 -->
<g id="edge14" class="edge">
<title>C2:e&#45;&#45;X2:w</title>
<path fill="none" stroke="#000000" stroke-width="2" d="M761.25,-255C825.44,-255.01 841.43,-256.51 905.25,-256.5"/>
<path fill="none" stroke="#00ff00" stroke-width="2" d="M761.25,-257C825.25,-257 841.25,-258.5 905.25,-258.5"/>
<path fill="none" stroke="#000000" stroke-width="2" d="M761.25,-259C825.07,-258.99 841.06,-260.49 905.25,-260.5"/>
</g>
<!-- C2&#45;&#45;X2 -->
<g id="edge16" class="edge">
<title>C2:e&#45;&#45;X2:w</title>
<path fill="none" stroke="#000000" stroke-width="2" d="M761.25,-230C825.7,-230.05 841.66,-233.55 905.25,-233.5"/>
<path fill="none" stroke="#ffff00" stroke-width="2" d="M761.25,-232C825.27,-232 841.23,-235.5 905.25,-235.5"/>
<path fill="none" stroke="#000000" stroke-width="2" d="M761.25,-234C824.84,-233.95 840.8,-237.45 905.25,-237.5"/>
</g>
<!-- C3&#45;&#45;X3 -->
<g id="edge18" class="edge">
<title>C3:e&#45;&#45;X3:w</title>
<path fill="none" stroke="#000000" stroke-width="2" d="M761.25,-95C824.95,-95.02 840.93,-92.52 905.25,-92.5"/>
<path fill="none" stroke="#ffffff" stroke-width="2" d="M761.25,-97C825.26,-97 841.24,-94.5 905.25,-94.5"/>
<path fill="none" stroke="#000000" stroke-width="2" d="M761.25,-99C825.57,-98.98 841.55,-96.48 905.25,-96.5"/>
</g>
<!-- C3&#45;&#45;X3 -->
<g id="edge20" class="edge">
<title>C3:e&#45;&#45;X3:w</title>
<path fill="none" stroke="#000000" stroke-width="2" d="M761.25,-70C825.19,-70 841.19,-69.5 905.25,-69.5"/>
<path fill="none" stroke="#895956" stroke-width="2" d="M761.25,-72C825.25,-72 841.25,-71.5 905.25,-71.5"/>
<path fill="none" stroke="#000000" stroke-width="2" d="M761.25,-74C825.31,-74 841.31,-73.5 905.25,-73.5"/>
</g>
<!-- C3&#45;&#45;X3 -->
<g id="edge22" class="edge">
<title>C3:e&#45;&#45;X3:w</title>
<path fill="none" stroke="#000000" stroke-width="2" d="M761.25,-45C825.44,-45.01 841.43,-46.51 905.25,-46.5"/>
<path fill="none" stroke="#00ff00" stroke-width="2" d="M761.25,-47C825.25,-47 841.25,-48.5 905.25,-48.5"/>
<path fill="none" stroke="#000000" stroke-width="2" d="M761.25,-49C825.07,-48.99 841.06,-50.49 905.25,-50.5"/>
</g>
<!-- C3&#45;&#45;X3 -->
<g id="edge24" class="edge">
<title>C3:e&#45;&#45;X3:w</title>
<path fill="none" stroke="#000000" stroke-width="2" d="M761.25,-20C825.7,-20.05 841.66,-23.55 905.25,-23.5"/>
<path fill="none" stroke="#ffff00" stroke-width="2" d="M761.25,-22C825.27,-22 841.23,-25.5 905.25,-25.5"/>
<path fill="none" stroke="#000000" stroke-width="2" d="M761.25,-24C824.84,-23.95 840.8,-27.45 905.25,-27.5"/>
</g>
</g>
</svg>
